<svg width="201" height="63" viewBox="0 0 201 63" fill="none" xmlns="http://www.w3.org/2000/svg">
<rect width="200.993" height="63" rx="5" fill="#D10010"/>
<path d="M26.4973 36.5V26.7H33.3293V28.744H28.8353V34.456H33.4833V36.5H26.4973ZM27.6313 32.496V30.536H32.7133V32.496H27.6313ZM35.2967 36.5V29.066H37.4387L37.5227 30.578L37.0607 30.746C37.1634 30.41 37.3454 30.1067 37.6067 29.836C37.8774 29.556 38.1994 29.332 38.5727 29.164C38.9461 28.996 39.3381 28.912 39.7487 28.912C40.3087 28.912 40.7801 29.0287 41.1627 29.262C41.5454 29.486 41.8301 29.8267 42.0167 30.284C42.2127 30.732 42.3107 31.2873 42.3107 31.95V36.5H40.0567V32.118C40.0567 31.8193 40.0147 31.572 39.9307 31.376C39.8467 31.18 39.7207 31.0353 39.5527 30.942C39.3847 30.8487 39.1747 30.8067 38.9227 30.816C38.7267 30.816 38.5447 30.8487 38.3767 30.914C38.2087 30.97 38.0594 31.0587 37.9287 31.18C37.8074 31.292 37.7141 31.4227 37.6487 31.572C37.5834 31.7213 37.5507 31.8893 37.5507 32.076V36.5H36.4167C36.1741 36.5 35.9547 36.5 35.7587 36.5C35.5721 36.5 35.4181 36.5 35.2967 36.5ZM46.4931 36.5L43.3851 29.066H45.8631L47.7111 34.568L47.1651 34.638L49.0691 29.066H51.5331L48.2571 36.5H46.4931ZM52.827 36.5V29.066H55.081V36.5H52.827ZM53.961 27.596C53.5317 27.596 53.1957 27.498 52.953 27.302C52.7197 27.0967 52.603 26.8073 52.603 26.434C52.603 26.0887 52.7244 25.8087 52.967 25.594C53.2097 25.3793 53.541 25.272 53.961 25.272C54.3717 25.272 54.6937 25.3747 54.927 25.58C55.1697 25.776 55.291 26.0607 55.291 26.434C55.291 26.7793 55.1697 27.0593 54.927 27.274C54.6937 27.4887 54.3717 27.596 53.961 27.596ZM61.1611 36.5V31.936C61.1611 31.5533 61.0537 31.2733 60.8391 31.096C60.6337 30.9093 60.3444 30.816 59.9711 30.816C59.6071 30.816 59.2804 30.886 58.9911 31.026C58.7111 31.1567 58.4404 31.376 58.1791 31.684L56.8351 30.382C57.2831 29.9247 57.7964 29.5653 58.3751 29.304C58.9537 29.0427 59.5837 28.912 60.2651 28.912C60.8904 28.912 61.4317 29.0053 61.8891 29.192C62.3464 29.3787 62.7011 29.6633 62.9531 30.046C63.2051 30.4287 63.3311 30.914 63.3311 31.502V36.5H61.1611ZM59.2291 36.64C58.7624 36.64 58.3377 36.5467 57.9551 36.36C57.5817 36.1733 57.2831 35.9167 57.0591 35.59C56.8444 35.254 56.7371 34.862 56.7371 34.414C56.7371 34.0313 56.8071 33.6953 56.9471 33.406C57.0871 33.1167 57.2924 32.8787 57.5631 32.692C57.8431 32.496 58.1884 32.3513 58.5991 32.258C59.0191 32.1553 59.5044 32.104 60.0551 32.104H62.3091L62.1831 33.518H60.1111C59.9151 33.518 59.7424 33.5367 59.5931 33.574C59.4437 33.602 59.3177 33.6533 59.2151 33.728C59.1124 33.7933 59.0331 33.8727 58.9771 33.966C58.9304 34.0593 58.9071 34.1713 58.9071 34.302C58.9071 34.442 58.9444 34.5633 59.0191 34.666C59.0937 34.7687 59.1917 34.848 59.3131 34.904C59.4437 34.96 59.5931 34.988 59.7611 34.988C60.0037 34.988 60.2324 34.9507 60.4471 34.876C60.6711 34.792 60.8671 34.6753 61.0351 34.526C61.2124 34.3767 61.3524 34.204 61.4551 34.008L61.8471 35.016C61.6511 35.3333 61.4131 35.6133 61.1331 35.856C60.8624 36.0987 60.5637 36.29 60.2371 36.43C59.9197 36.57 59.5837 36.64 59.2291 36.64ZM65.1288 36.5V29.066H67.2708L67.3688 31.488L66.9488 31.012C67.0701 30.62 67.2568 30.2653 67.5088 29.948C67.7608 29.6307 68.0594 29.3787 68.4048 29.192C68.7594 29.0053 69.1281 28.912 69.5108 28.912C69.6788 28.912 69.8328 28.926 69.9728 28.954C70.1221 28.9727 70.2528 29.0053 70.3648 29.052L69.7628 31.53C69.6601 31.474 69.5201 31.4273 69.3428 31.39C69.1748 31.3433 68.9974 31.32 68.8108 31.32C68.6054 31.32 68.4141 31.3573 68.2368 31.432C68.0688 31.4973 67.9194 31.5953 67.7888 31.726C67.6674 31.8567 67.5694 32.0107 67.4948 32.188C67.4294 32.3653 67.3968 32.566 67.3968 32.79V36.5H65.1288ZM78.4902 36.64C77.7809 36.64 77.1462 36.528 76.5862 36.304C76.0262 36.0707 75.5782 35.7533 75.2422 35.352L76.6142 34.176C76.9036 34.4653 77.2302 34.68 77.5942 34.82C77.9582 34.9507 78.3036 35.016 78.6302 35.016C78.7516 35.016 78.8589 35.002 78.9522 34.974C79.0456 34.946 79.1249 34.9087 79.1902 34.862C79.2649 34.806 79.3209 34.7453 79.3582 34.68C79.3956 34.6053 79.4142 34.5213 79.4142 34.428C79.4142 34.2413 79.3349 34.1013 79.1762 34.008C79.1016 33.9613 78.9662 33.9053 78.7702 33.84C78.5742 33.7653 78.3222 33.6907 78.0142 33.616C77.5756 33.504 77.1929 33.3687 76.8662 33.21C76.5489 33.0513 76.2876 32.8693 76.0822 32.664C75.8956 32.4773 75.7509 32.2627 75.6482 32.02C75.5549 31.7773 75.5082 31.5067 75.5082 31.208C75.5082 30.7507 75.6436 30.3493 75.9142 30.004C76.1942 29.6587 76.5582 29.3927 77.0062 29.206C77.4542 29.01 77.9396 28.912 78.4622 28.912C78.8729 28.912 79.2602 28.9587 79.6242 29.052C79.9976 29.1453 80.3429 29.276 80.6602 29.444C80.9869 29.612 81.2762 29.8127 81.5282 30.046L80.3382 31.376C80.1796 31.2173 79.9929 31.0773 79.7782 30.956C79.5636 30.8253 79.3489 30.7227 79.1342 30.648C78.9196 30.564 78.7189 30.522 78.5322 30.522C78.3922 30.522 78.2662 30.536 78.1542 30.564C78.0516 30.5827 77.9629 30.62 77.8882 30.676C77.8229 30.7227 77.7716 30.7833 77.7342 30.858C77.6969 30.9233 77.6782 30.998 77.6782 31.082C77.6782 31.1847 77.7016 31.278 77.7482 31.362C77.8042 31.4367 77.8789 31.5067 77.9722 31.572C78.0562 31.6187 78.2009 31.6793 78.4062 31.754C78.6209 31.8287 78.9009 31.9127 79.2462 32.006C79.6849 32.1273 80.0582 32.2673 80.3662 32.426C80.6836 32.5753 80.9356 32.7527 81.1222 32.958C81.2809 33.1167 81.3929 33.3033 81.4582 33.518C81.5329 33.7233 81.5702 33.9473 81.5702 34.19C81.5702 34.666 81.4349 35.0907 81.1642 35.464C80.9029 35.828 80.5389 36.1173 80.0722 36.332C79.6149 36.5373 79.0876 36.64 78.4902 36.64ZM86.4019 36.64C85.6365 36.64 84.9505 36.4767 84.3439 36.15C83.7372 35.814 83.2612 35.3567 82.9159 34.778C82.5705 34.19 82.3979 33.5273 82.3979 32.79C82.3979 32.034 82.5705 31.3667 82.9159 30.788C83.2612 30.2 83.7372 29.7427 84.3439 29.416C84.9505 29.08 85.6365 28.912 86.4019 28.912C87.1765 28.912 87.8625 29.08 88.4599 29.416C89.0665 29.7427 89.5425 30.2 89.8879 30.788C90.2332 31.3667 90.4059 32.034 90.4059 32.79C90.4059 33.5273 90.2332 34.19 89.8879 34.778C89.5425 35.3567 89.0665 35.814 88.4599 36.15C87.8625 36.4767 87.1765 36.64 86.4019 36.64ZM86.4019 34.708C86.7379 34.708 87.0319 34.624 87.2839 34.456C87.5452 34.288 87.7505 34.0593 87.8999 33.77C88.0492 33.4807 88.1192 33.154 88.1099 32.79C88.1192 32.4073 88.0492 32.0713 87.8999 31.782C87.7505 31.4833 87.5452 31.2547 87.2839 31.096C87.0319 30.928 86.7379 30.844 86.4019 30.844C86.0752 30.844 85.7812 30.928 85.5199 31.096C85.2585 31.264 85.0532 31.4927 84.9039 31.782C84.7545 32.0713 84.6799 32.4073 84.6799 32.79C84.6799 33.154 84.7545 33.4807 84.9039 33.77C85.0532 34.0593 85.2585 34.288 85.5199 34.456C85.7812 34.624 86.0752 34.708 86.4019 34.708ZM91.871 36.5V26.14H94.125V36.5H91.871ZM96.2489 36.5V29.066H98.5029V36.5H96.2489ZM97.3829 27.596C96.9536 27.596 96.6176 27.498 96.3749 27.302C96.1416 27.0967 96.0249 26.8073 96.0249 26.434C96.0249 26.0887 96.1462 25.8087 96.3889 25.594C96.6316 25.3793 96.9629 25.272 97.3829 25.272C97.7936 25.272 98.1156 25.3747 98.3489 25.58C98.5916 25.776 98.7129 26.0607 98.7129 26.434C98.7129 26.7793 98.5916 27.0593 98.3489 27.274C98.1156 27.4887 97.7936 27.596 97.3829 27.596ZM103.883 36.64C103.164 36.64 102.516 36.472 101.937 36.136C101.368 35.8 100.92 35.3427 100.593 34.764C100.266 34.176 100.103 33.518 100.103 32.79C100.103 32.0433 100.266 31.3807 100.593 30.802C100.92 30.214 101.368 29.752 101.937 29.416C102.516 29.08 103.164 28.912 103.883 28.912C104.546 28.912 105.152 29.0333 105.703 29.276C106.263 29.5093 106.702 29.8313 107.019 30.242L105.801 31.726C105.68 31.5673 105.53 31.4227 105.353 31.292C105.176 31.1613 104.98 31.0587 104.765 30.984C104.55 30.9093 104.326 30.872 104.093 30.872C103.738 30.872 103.426 30.956 103.155 31.124C102.884 31.2827 102.674 31.5067 102.525 31.796C102.376 32.0853 102.301 32.412 102.301 32.776C102.301 33.1307 102.376 33.4527 102.525 33.742C102.684 34.022 102.898 34.246 103.169 34.414C103.44 34.582 103.743 34.666 104.079 34.666C104.322 34.666 104.546 34.6333 104.751 34.568C104.956 34.5027 105.143 34.4093 105.311 34.288C105.488 34.1667 105.652 34.022 105.801 33.854L107.019 35.338C106.702 35.73 106.258 36.0473 105.689 36.29C105.12 36.5233 104.518 36.64 103.883 36.64ZM108.376 36.5V29.066H110.63V36.5H108.376ZM109.51 27.596C109.081 27.596 108.745 27.498 108.502 27.302C108.269 27.0967 108.152 26.8073 108.152 26.434C108.152 26.0887 108.273 25.8087 108.516 25.594C108.759 25.3793 109.09 25.272 109.51 25.272C109.921 25.272 110.243 25.3747 110.476 25.58C110.719 25.776 110.84 26.0607 110.84 26.434C110.84 26.7793 110.719 27.0593 110.476 27.274C110.243 27.4887 109.921 27.596 109.51 27.596ZM113.364 36.5V27.19H115.618V36.5H113.364ZM112.048 31.04V29.066H117.046V31.04H112.048ZM122.233 36.5V31.936C122.233 31.5533 122.126 31.2733 121.911 31.096C121.706 30.9093 121.417 30.816 121.043 30.816C120.679 30.816 120.353 30.886 120.063 31.026C119.783 31.1567 119.513 31.376 119.251 31.684L117.907 30.382C118.355 29.9247 118.869 29.5653 119.447 29.304C120.026 29.0427 120.656 28.912 121.337 28.912C121.963 28.912 122.504 29.0053 122.961 29.192C123.419 29.3787 123.773 29.6633 124.025 30.046C124.277 30.4287 124.403 30.914 124.403 31.502V36.5H122.233ZM120.301 36.64C119.835 36.64 119.41 36.5467 119.027 36.36C118.654 36.1733 118.355 35.9167 118.131 35.59C117.917 35.254 117.809 34.862 117.809 34.414C117.809 34.0313 117.879 33.6953 118.019 33.406C118.159 33.1167 118.365 32.8787 118.635 32.692C118.915 32.496 119.261 32.3513 119.671 32.258C120.091 32.1553 120.577 32.104 121.127 32.104H123.381L123.255 33.518H121.183C120.987 33.518 120.815 33.5367 120.665 33.574C120.516 33.602 120.39 33.6533 120.287 33.728C120.185 33.7933 120.105 33.8727 120.049 33.966C120.003 34.0593 119.979 34.1713 119.979 34.302C119.979 34.442 120.017 34.5633 120.091 34.666C120.166 34.7687 120.264 34.848 120.385 34.904C120.516 34.96 120.665 34.988 120.833 34.988C121.076 34.988 121.305 34.9507 121.519 34.876C121.743 34.792 121.939 34.6753 122.107 34.526C122.285 34.3767 122.425 34.204 122.527 34.008L122.919 35.016C122.723 35.3333 122.485 35.6133 122.205 35.856C121.935 36.0987 121.636 36.29 121.309 36.43C120.992 36.57 120.656 36.64 120.301 36.64ZM129.463 36.64C128.744 36.64 128.096 36.472 127.517 36.136C126.948 35.8 126.5 35.3427 126.173 34.764C125.846 34.176 125.683 33.518 125.683 32.79C125.683 32.0433 125.846 31.3807 126.173 30.802C126.5 30.214 126.948 29.752 127.517 29.416C128.096 29.08 128.744 28.912 129.463 28.912C130.126 28.912 130.732 29.0333 131.283 29.276C131.843 29.5093 132.282 29.8313 132.599 30.242L131.381 31.726C131.26 31.5673 131.11 31.4227 130.933 31.292C130.756 31.1613 130.56 31.0587 130.345 30.984C130.13 30.9093 129.906 30.872 129.673 30.872C129.318 30.872 129.006 30.956 128.735 31.124C128.464 31.2827 128.254 31.5067 128.105 31.796C127.956 32.0853 127.881 32.412 127.881 32.776C127.881 33.1307 127.956 33.4527 128.105 33.742C128.264 34.022 128.478 34.246 128.749 34.414C129.02 34.582 129.323 34.666 129.659 34.666C129.902 34.666 130.126 34.6333 130.331 34.568C130.536 34.5027 130.723 34.4093 130.891 34.288C131.068 34.1667 131.232 34.022 131.381 33.854L132.599 35.338C132.282 35.73 131.838 36.0473 131.269 36.29C130.7 36.5233 130.098 36.64 129.463 36.64ZM128.091 39.944L127.951 38.894C128.147 38.894 128.348 38.8707 128.553 38.824C128.768 38.7773 128.945 38.7073 129.085 38.614C129.234 38.53 129.309 38.4367 129.309 38.334C129.309 38.222 129.253 38.1333 129.141 38.068C129.038 38.0027 128.908 37.9513 128.749 37.914C128.59 37.886 128.441 37.872 128.301 37.872L128.063 37.69L129.043 36.15H130.191L129.561 37.088C130.046 37.1533 130.406 37.3073 130.639 37.55C130.872 37.7927 130.989 38.0913 130.989 38.446C130.989 38.726 130.9 38.964 130.723 39.16C130.546 39.356 130.312 39.5147 130.023 39.636C129.734 39.7573 129.416 39.8413 129.071 39.888C128.735 39.9347 128.408 39.9533 128.091 39.944ZM137.792 36.5V31.936C137.792 31.5533 137.685 31.2733 137.47 31.096C137.265 30.9093 136.975 30.816 136.602 30.816C136.238 30.816 135.911 30.886 135.622 31.026C135.342 31.1567 135.071 31.376 134.81 31.684L133.466 30.382C133.914 29.9247 134.427 29.5653 135.006 29.304C135.585 29.0427 136.215 28.912 136.896 28.912C137.521 28.912 138.063 29.0053 138.52 29.192C138.977 29.3787 139.332 29.6633 139.584 30.046C139.836 30.4287 139.962 30.914 139.962 31.502V36.5H137.792ZM135.86 36.64C135.393 36.64 134.969 36.5467 134.586 36.36C134.213 36.1733 133.914 35.9167 133.69 35.59C133.475 35.254 133.368 34.862 133.368 34.414C133.368 34.0313 133.438 33.6953 133.578 33.406C133.718 33.1167 133.923 32.8787 134.194 32.692C134.474 32.496 134.819 32.3513 135.23 32.258C135.65 32.1553 136.135 32.104 136.686 32.104H138.94L138.814 33.518H136.742C136.546 33.518 136.373 33.5367 136.224 33.574C136.075 33.602 135.949 33.6533 135.846 33.728C135.743 33.7933 135.664 33.8727 135.608 33.966C135.561 34.0593 135.538 34.1713 135.538 34.302C135.538 34.442 135.575 34.5633 135.65 34.666C135.725 34.7687 135.823 34.848 135.944 34.904C136.075 34.96 136.224 34.988 136.392 34.988C136.635 34.988 136.863 34.9507 137.078 34.876C137.302 34.792 137.498 34.6753 137.666 34.526C137.843 34.3767 137.983 34.204 138.086 34.008L138.478 35.016C138.282 35.3333 138.044 35.6133 137.764 35.856C137.493 36.0987 137.195 36.29 136.868 36.43C136.551 36.57 136.215 36.64 135.86 36.64ZM137.736 27.904C137.587 27.904 137.428 27.876 137.26 27.82C137.101 27.764 136.915 27.666 136.7 27.526C136.532 27.3953 136.397 27.302 136.294 27.246C136.201 27.19 136.121 27.162 136.056 27.162C135.916 27.162 135.799 27.218 135.706 27.33C135.613 27.4327 135.552 27.6007 135.524 27.834L134.264 27.68C134.264 27.148 134.409 26.6953 134.698 26.322C134.997 25.9393 135.393 25.748 135.888 25.748C136.047 25.748 136.201 25.776 136.35 25.832C136.509 25.8787 136.695 25.9767 136.91 26.126C137.041 26.2193 137.157 26.3033 137.26 26.378C137.372 26.4527 137.479 26.49 137.582 26.49C137.713 26.49 137.82 26.434 137.904 26.322C137.997 26.2007 138.063 26.0327 138.1 25.818L139.346 25.986C139.337 26.322 139.262 26.6393 139.122 26.938C138.991 27.2273 138.809 27.4607 138.576 27.638C138.343 27.8153 138.063 27.904 137.736 27.904ZM145.246 36.64C144.48 36.64 143.794 36.4767 143.188 36.15C142.581 35.814 142.105 35.3567 141.76 34.778C141.414 34.19 141.242 33.5273 141.242 32.79C141.242 32.034 141.414 31.3667 141.76 30.788C142.105 30.2 142.581 29.7427 143.188 29.416C143.794 29.08 144.48 28.912 145.246 28.912C146.02 28.912 146.706 29.08 147.304 29.416C147.91 29.7427 148.386 30.2 148.732 30.788C149.077 31.3667 149.25 32.034 149.25 32.79C149.25 33.5273 149.077 34.19 148.732 34.778C148.386 35.3567 147.91 35.814 147.304 36.15C146.706 36.4767 146.02 36.64 145.246 36.64ZM145.246 34.708C145.582 34.708 145.876 34.624 146.128 34.456C146.389 34.288 146.594 34.0593 146.744 33.77C146.893 33.4807 146.963 33.154 146.954 32.79C146.963 32.4073 146.893 32.0713 146.744 31.782C146.594 31.4833 146.389 31.2547 146.128 31.096C145.876 30.928 145.582 30.844 145.246 30.844C144.919 30.844 144.625 30.928 144.364 31.096C144.102 31.264 143.897 31.4927 143.748 31.782C143.598 32.0713 143.524 32.4073 143.524 32.79C143.524 33.154 143.598 33.4807 143.748 33.77C143.897 34.0593 144.102 34.288 144.364 34.456C144.625 34.624 144.919 34.708 145.246 34.708Z" fill="white"/>
<path d="M175.573 23.6683C175.886 23.8871 176.042 24.2623 175.98 24.6375L173.979 37.6436C173.947 37.9563 173.76 38.2064 173.479 38.3627C173.228 38.5191 172.884 38.5503 172.603 38.4253L168.883 36.862L166.725 39.1756C166.444 39.4883 166.006 39.5821 165.631 39.4257C165.256 39.3007 165.006 38.9255 165.006 38.4878V35.8928C165.006 35.7678 165.037 35.6427 165.131 35.5489L170.352 29.8274C170.54 29.6399 170.54 29.3272 170.352 29.1396C170.164 28.952 169.852 28.952 169.664 29.1396L163.317 34.7673L160.535 33.3916C160.222 33.2353 160.003 32.8914 160.003 32.5162C159.972 32.1723 160.16 31.8284 160.504 31.6408L174.51 23.637C174.823 23.4494 175.261 23.4494 175.573 23.6683Z" fill="white"/>
</svg>
