<svg width="113" height="70" viewBox="0 0 113 70" fill="none" xmlns="http://www.w3.org/2000/svg" aria-hidden="true" focusable="false">
  <path fill-rule="evenodd" clip-rule="evenodd" d="M53.5489 29.1273C53.5489 39.8505 49.4298 49.7001 41.1614 58.6763C36.8345 63.4066 31.9269 67.1813 26.4475 70.0005L14.2253 70.0005C18.3221 65.7779 20.7124 60.3691 21.4075 53.7966C7.12583 49.5797 2.5331e-06 41.0252 3.65488e-06 28.1935C4.34743e-06 20.2717 2.61582 13.5847 7.84743 8.1629C13.0791 2.71095 19.5133 4.28009e-05 27.0902 4.34633e-05C34.7873 4.41362e-05 41.1314 2.71095 46.0924 8.16291C51.0534 13.645 53.5489 20.603 53.5489 29.1273Z" fill="#FFEFF0"/>
  <path fill-rule="evenodd" clip-rule="evenodd" d="M112.098 29.1273C112.098 39.8505 107.979 49.7001 99.7103 58.6763C95.3834 63.4066 90.4759 67.1813 84.9964 70.0005L72.7743 70.0005C76.871 65.7779 79.2613 60.3691 79.9565 53.7966C65.6747 49.5797 58.5489 41.0252 58.5489 28.1936C58.5489 20.2717 61.1647 13.5847 66.3964 8.16291C71.628 2.71096 78.0623 5.04303e-05 85.6391 5.10927e-05C93.3362 5.17656e-05 99.6803 2.71097 104.641 8.16291C109.602 13.645 112.098 20.603 112.098 29.1273Z" fill="#FFEFF0"/>
</svg>
