<?xml version="1.0" encoding="utf-8" ?>
<svg xmlns="http://www.w3.org/2000/svg" xmlns:xlink="http://www.w3.org/1999/xlink" width="94" height="20">
	<rect fill-opacity="0" width="94" height="20"/>
	<rect fill="#1E1E1E" width="93.75" height="20"/>
	<rect fill="white" transform="translate(-505.653 -7164.5)" width="1920" height="8739"/>
	<clipPath id="cl_60">
		<rect x="-505.65253" y="-7164.5" width="1920" height="8739"/>
	</clipPath>
	<g clip-path="url(#cl_60)">
		<clipPath id="cl_63">
			<rect x="413.79144" y="-6345.5" width="80" height="80" rx="40" ry="40"/>
		</clipPath>
		<g clip-path="url(#cl_63)">
			<ellipse transform="translate(413.791 -6345.5)" cx="40" cy="40" rx="40" ry="40"/>
		</g>
	</g>
	<clipPath id="cl_64">
		<rect x="501.34747" y="-7748.5" width="0" height="0"/>
	</clipPath>
	<g clip-path="url(#cl_64)">
		<clipPath id="cl_1">
			<rect/>
		</clipPath>
		<g clip-path="url(#cl_1)">
			<ellipse transform="translate(413.791 -6345.5)" cx="40" cy="40" rx="40" ry="40"/>
		</g>
	</g>
	<clipPath id="cl_66">
		<rect x="-505.65253" y="-7164.5" width="1920" height="8739"/>
	</clipPath>
	<g clip-path="url(#cl_66)">
		<clipPath id="cl_67">
			<path d="M450.36737 -6297.5488L462.85934 -6304.6655C463.125 -6304.811 463.125 -6305.189 462.85934 -6305.3364L450.36737 -6312.4512C450.10947 -6312.5933 449.79144 -6312.4092 449.79144 -6312.1157L449.79144 -6297.8843C449.79144 -6297.5908 450.10947 -6297.4067 450.36737 -6297.5488Z" clip-rule="evenodd"/>
		</clipPath>
		<g clip-path="url(#cl_67)">
			<path transform="translate(449.791 -6312.5)" d="M0.57592595 14.951165L13.067896 7.8345499C13.333559 7.6888433 13.333559 7.3111563 13.067896 7.1635327L0.57592595 0.048835382C0.31801969 -0.093036786 0 0.09101361 0 0.38434389L0 14.615657C0 14.908987 0.31801969 15.093038 0.57592595 14.951165Z" fill-rule="evenodd"/>
		</g>
	</g>
	<clipPath id="cl_135">
		<rect x="-505.65253" y="-7164.5" width="1920" height="8739"/>
	</clipPath>
	<g clip-path="url(#cl_135)">
		<clipPath id="cl_138">
			<rect x="894.12506" y="-912.5" width="80" height="80" rx="40" ry="40"/>
		</clipPath>
		<g clip-path="url(#cl_138)">
			<ellipse transform="translate(894.125 -912.5)" cx="40" cy="40" rx="40" ry="40"/>
		</g>
	</g>
	<clipPath id="cl_139">
		<rect x="501.34747" y="-7748.5" width="0" height="0"/>
	</clipPath>
	<g clip-path="url(#cl_139)">
		<clipPath id="cl_1">
			<rect/>
		</clipPath>
		<g clip-path="url(#cl_1)">
			<ellipse transform="translate(894.125 -912.5)" cx="40" cy="40" rx="40" ry="40"/>
		</g>
	</g>
	<clipPath id="cl_13b">
		<rect x="-505.65253" y="-7164.5" width="1920" height="8739"/>
	</clipPath>
	<g clip-path="url(#cl_13b)">
		<clipPath id="cl_13c">
			<path d="M930.70099 -864.54883L943.19293 -871.66547C943.45862 -871.81116 943.45862 -872.18884 943.19293 -872.33649L930.70099 -879.45117C930.44305 -879.59302 930.12506 -879.409 930.12506 -879.11566L930.12506 -864.88434C930.12506 -864.591 930.44305 -864.40698 930.70099 -864.54883Z" clip-rule="evenodd"/>
		</clipPath>
		<g clip-path="url(#cl_13c)">
			<path transform="translate(930.125 -879.5)" d="M0.57592595 14.951165L13.067896 7.8345499C13.333559 7.6888433 13.333559 7.3111563 13.067896 7.1635327L0.57592595 0.048835382C0.31801969 -0.093036786 0 0.09101361 0 0.38434389L0 14.615657C0 14.908987 0.31801969 15.093038 0.57592595 14.951165Z" fill-rule="evenodd"/>
		</g>
	</g>
</svg>
