<svg width="94" height="20" viewBox="0 0 94 20" fill="none" xmlns="http://www.w3.org/2000/svg">
<path fill-rule="evenodd" clip-rule="evenodd" d="M83.0513 20C87.0806 20 91.7962 18.8062 93.5006 15.3467H87.0806C86.5762 16.3512 84.7519 16.9209 83.0513 16.9209C78.0188 16.9209 77.6438 14.464 77.4506 13.3996H93.75V12.7061C93.75 6.03636 87.27 4.71702 82.6144 4.71702C72.2306 4.71702 71.2237 10.3148 71.2237 12.0127C71.2237 17.9891 76.3838 20 83.0513 20ZM82.4888 7.85982C84.5006 7.85982 86.955 8.55322 87.3319 10.8808H77.6438C78.0188 8.9955 79.5919 7.85982 82.4888 7.85982ZM92.3662 0.0637181H72.8606V2.51687H92.3662V0.0637181ZM12.5231 10.5678L6.9225 11.1338C2.95875 11.4468 0 12.8954 0 15.7234C0 18.7425 3.65063 20 7.23375 20C11.4544 20 13.4662 18.8062 14.85 17.8636C15.0356 18.6807 15.1013 18.9318 15.4781 19.6214H22.1494V18.9936C21.3956 18.8681 20.8294 18.4933 20.8294 16.7316V8.86807C20.8294 5.35045 14.7244 4.71702 11.3287 4.71702C6.48375 4.71702 1.45125 5.34858 0.7575 9.75075H6.79688C6.9225 8.92991 7.49063 7.73426 10.5712 7.73426C12.2063 7.73426 14.7244 7.85982 14.7244 9.43403C14.7225 10.253 13.4681 10.5041 12.5231 10.5678ZM14.7225 14.4003C14.7225 16.1638 11.8931 17.232 9.12188 17.232C7.92563 17.232 6.22875 16.8553 6.22875 15.4741C6.22875 13.8999 8.17688 13.587 10.4456 13.334C13.0238 13.0847 14.0944 12.8298 14.7225 12.5169V14.4003ZM53.8594 11.2612C53.8594 9.05735 55.9988 7.92354 58.7663 7.92354C62.7281 7.92354 62.8556 9.75075 62.8556 10.7552V19.6196H69.0881V9.55772C69.0881 6.35307 65.4375 4.71702 60.8438 4.71702C57.4463 4.71702 54.8062 5.78523 53.9869 6.98088H53.8613V0H47.6325V19.6214H53.8613L53.8594 11.2612ZM34.2262 20C42.9112 20 44.8013 15.7871 44.9888 14.2785H38.6944C38.6944 14.97 37.6256 16.8572 34.4794 16.8572C29.76 16.8572 29.6381 13.7125 29.6381 12.1402C29.6381 10.3148 30.7069 7.92541 34.6087 7.92541C37.5019 7.80172 38.445 9.30847 38.76 10.2549H45.0525C44.4844 5.72339 38.3194 4.71889 34.6087 4.71889C26.6194 4.71889 23.2219 8.05285 23.2219 12.7699C23.2219 15.7871 25.2975 20 34.2262 20Z" fill="#666666"/>
</svg>
