<svg width="84" height="20" viewBox="0 0 84 20" fill="none" xmlns="http://www.w3.org/2000/svg">
<path fill-rule="evenodd" clip-rule="evenodd" d="M8.73207 0H14.0714L22.715 20H16.9244L15.8336 16.8893H6.9382L6.099 20H0L8.73207 0ZM11.4014 7.1624L12.7364 9.77009L14.0711 12.3774H8.73207L10.0667 9.77009L11.4014 7.1624ZM23.6929 0V20H29.0512V5.1256C31.2554 5.1256 32.9763 8.04748 29.9017 10.2246C32.3075 12.8938 34.2504 15.9836 35.1748 20H40.618C40.618 16.8893 37.7829 13.1432 36.3654 9.71456C38.6894 2.56712 33.2748 0 29.0509 0H23.6929ZM42.0445 0V20H47.1136V8.27257C50.513 11.9931 53.6119 15.9134 56.4633 20H61.4196V0H56.4633V10.2628C53.1963 7.02442 50.2541 2.75198 46.6631 0H42.0445ZM72.5947 0C78.3946 0 83.125 4.49221 83.125 9.99983C83.125 15.5075 78.3943 20 72.5947 20C66.7952 20 62.0648 15.5075 62.0648 9.99983C62.0645 4.49221 66.7952 0 72.5947 0ZM72.5947 5.09933C75.4368 5.09933 77.7554 7.30105 77.7554 9.99983C77.7554 12.6986 75.4371 14.9003 72.5947 14.9003C69.7524 14.9003 67.4344 12.6986 67.4344 9.99983C67.4344 7.30105 69.7527 5.09933 72.5947 5.09933Z" fill="#666666"/>
</svg>
