<svg viewBox="0 0 863 430" version="1.1" xmlns="http://www.w3.org/2000/svg" desc="Created with imagetracer.js version 1.2.6" ><path fill="rgb(0,0,0)" stroke="rgb(0,0,0)" stroke-width="1" opacity="1" d="M 430.5 0 L 434.5 1 L 446 11.5 Q 456 22.2 460 38 L 463.5 37 L 477.5 27 L 485.5 24 L 491 35.5 L 494.5 52 Q 508.3 42.5 527 39 Q 516.1 53.9 508 72.5 L 497.5 101 L 465.5 93 L 444.5 92 L 443.5 91 L 419.5 91 L 418.5 92 L 405.5 92 L 404.5 93 L 392.5 94 L 365 101 Q 355.6 64.9 336 39 Q 355 42.1 368.5 52 L 370 49.5 L 372 36.5 L 377 24 Q 392.3 28.3 402.5 39 Q 408.6 18.6 422.5 6 L 430.5 0 Z M 432 44 L 424 54 L 422 60 L 421 74 L 420 75 L 421 77 L 443 77 L 441 58 Q 438 49 432 44 Z M 389 52 L 385 58 Q 383 73 389 81 L 397 79 L 403 79 L 404 78 L 401 66 L 398 60 L 389 52 Z M 476 52 L 470 55 L 464 62 L 459 79 L 467 79 L 476 81 L 479 67 L 478 57 L 476 52 Z " /><path fill="rgb(0,0,0)" stroke="rgb(0,0,0)" stroke-width="1" opacity="1" d="M 158.5 65 L 180.5 66 L 181.5 67 L 188.5 67 L 210.5 71 L 225.5 75 L 279.5 95 L 301.5 100 L 319.5 101 L 335.5 97 L 349 88 L 355 106.5 L 357 124 L 339.5 127 L 311.5 127 L 310.5 126 L 301.5 126 L 294.5 124 L 288.5 124 L 264.5 118 L 203.5 94 L 178.5 86 L 155.5 81 L 132.5 80 L 115.5 84 L 103.5 90 L 77 114.5 Q 56.2 139.2 46 174.5 L 39 211.5 L 38 249.5 L 39 250.5 L 40 271.5 L 44 293.5 L 57 331.5 Q 75.3 371.2 106.5 398 L 123.5 411 L 137.5 417 L 148.5 418 L 149.5 419 L 172.5 419 L 195.5 415 L 214.5 409 Q 236.5 401 255.5 390 L 274.5 383 L 299.5 378 L 324.5 378 L 330 379 L 330 383.5 L 323 395.5 L 333 406.5 L 328.5 407 L 318.5 404 L 291.5 403 L 268.5 407 L 227.5 421 L 204.5 427 L 198.5 427 L 191.5 429 L 182.5 429 L 181.5 430 L 154.5 430 L 153.5 429 L 138.5 428 L 123.5 424 L 90.5 409 Q 66.9 395.1 49 375.5 Q 22.2 346.8 9 304.5 L 5 289.5 L 2 272.5 L 2 265.5 L 1 264.5 L 0 224.5 L 1 223.5 L 1 214.5 L 2 213.5 L 4 196.5 L 14 165.5 Q 28.9 132.4 54.5 110 Q 69.1 97.1 86.5 87 L 109.5 76 L 134.5 68 L 146.5 67 L 147.5 66 L 157.5 66 L 158.5 65 Z " /><path fill="rgb(0,0,0)" stroke="rgb(0,0,0)" stroke-width="1" opacity="1" d="M 696.5 65 L 715.5 66 L 716.5 67 L 728.5 68 L 758.5 78 Q 796.2 94.8 822 123.5 Q 842.7 146.8 854 179.5 L 861 209.5 L 862 231.5 L 863 232.5 L 863 252.5 L 862 253.5 L 862 264.5 L 861 265.5 L 861 272.5 L 858 289.5 L 848 321.5 L 833 350.5 L 810 380 L 777.5 406 L 747.5 421 L 718.5 429 L 709.5 429 L 708.5 430 L 680.5 430 L 679.5 429 L 664.5 428 L 642.5 423 L 591.5 406 L 580.5 404 L 572.5 404 L 571.5 403 L 554.5 403 L 531 407 L 532 403.5 L 540 394.5 Q 534.5 389.5 533 380.5 L 538.5 378 L 563.5 378 L 564.5 379 L 576.5 380 L 597.5 386 L 633.5 403 L 660.5 413 L 690.5 419 L 713.5 419 L 714.5 418 L 725.5 417 L 738.5 412 Q 758.2 398.2 774 380.5 Q 797.3 354.8 811 319.5 L 817 301.5 L 822 278.5 L 823 264.5 L 824 263.5 L 824 251.5 L 825 250.5 L 825 232.5 L 824 231.5 L 823 206.5 L 819 183.5 L 808 150.5 Q 793.6 118.4 768.5 97 Q 759.1 87.4 744.5 83 L 731.5 80 L 716.5 80 L 715.5 81 L 707.5 81 L 692.5 84 L 677.5 88 Q 643.8 98.8 613.5 113 L 583.5 122 L 568.5 125 L 553.5 126 L 552.5 127 L 523.5 127 L 506 124 L 509 102.5 L 512 93.5 L 515.5 88 Q 527 101.5 552.5 101 L 580.5 96 L 644.5 73 L 661.5 69 L 667.5 69 L 682.5 66 L 695.5 66 L 696.5 65 Z " /><path fill="rgb(0,0,0)" stroke="rgb(0,0,0)" stroke-width="1" opacity="1" d="M 413.5 95 L 449.5 95 L 450.5 96 L 459.5 96 L 482.5 100 L 497 105.5 L 495 120.5 L 493.5 122 L 484.5 120 L 458.5 119 L 457.5 118 L 405.5 118 L 404.5 119 L 378.5 120 L 369.5 122 L 368 120.5 L 368 112.5 L 366 105.5 L 367.5 104 L 385.5 99 L 402.5 97 L 403.5 96 L 412.5 96 L 413.5 95 Z M 429 99 L 425 105 L 427 112 L 430 113 L 436 112 L 438 108 L 437 102 Q 436 98 429 99 Z M 400 101 L 398 102 L 395 106 L 396 112 Q 397 115 403 114 L 406 110 L 405 105 Q 404 100 400 101 Z M 463 101 L 461 102 L 457 108 L 458 112 Q 459 115 465 114 Q 470 113 468 105 L 463 101 Z " /><path fill="rgb(0,0,0)" stroke="rgb(0,0,0)" stroke-width="1" opacity="1" d="M 153.5 159 Q 180.9 156.1 191.5 170 L 195.5 161 L 202 165.5 L 200 199 L 195.5 200 L 188 194.5 Q 185.7 184.8 179.5 179 Q 174.5 174 164.5 174 L 155.5 176 L 146 184.5 L 140 198.5 L 137 215.5 L 137 227.5 L 136 228.5 L 136 263.5 L 137 264.5 L 138 284.5 L 141 295.5 Q 144.6 303.9 151.5 309 L 157.5 312 L 165.5 313 L 174.5 311 L 185 303.5 L 192 291.5 L 195 278.5 L 196.5 277 L 205 284.5 L 202 298.5 Q 197.5 310 189.5 318 Q 177.2 331.7 148.5 329 L 134.5 325 Q 124.8 319.8 118 311.5 Q 108.3 298.7 104 280.5 L 104 275.5 L 102 268.5 L 102 258.5 L 101 257.5 L 101 238.5 L 102 237.5 L 102 228.5 L 104 217.5 L 109 200.5 Q 115.5 184.5 126.5 173 Q 136.2 162.2 153.5 159 Z " /><path fill="rgb(0,0,0)" stroke="rgb(0,0,0)" stroke-width="1" opacity="1" d="M 473.5 161 L 475 163.5 L 477 177.5 L 485 208.5 L 485 212.5 L 503 284.5 L 511 311.5 L 514.5 316 L 523 317 L 523 325.5 L 521.5 327 L 519.5 326 L 470.5 326 L 466 327 L 467 318.5 L 468.5 317 Q 474.5 318.5 476 315.5 L 465 264 L 434.5 264 L 434 267.5 L 425 300.5 L 424 315 L 430.5 316 L 432 317.5 L 432 326.5 L 429.5 327 L 428.5 326 L 408 326 Q 406.6 336.6 411.5 342 L 415.5 343 L 425 340 L 423 349.5 L 421.5 351 Q 413.9 354.4 401.5 353 Q 392.8 350.2 388 343.5 L 381 332.5 L 375 315.5 L 373 305.5 L 373 296.5 L 372 295.5 L 371 266.5 L 369 258.5 L 365.5 253 Q 357.9 247.3 344 249 L 344 300.5 L 345 301.5 L 345 314.5 L 346.5 316 L 353 317 L 353 327 L 346.5 327 L 345.5 326 L 311.5 326 L 305 327 L 305 317.5 L 307.5 317 L 311 316 L 312 313.5 L 312 285.5 L 313 284.5 L 313 197.5 L 312 196.5 L 312 175 L 305 175 L 305 165 L 371.5 165 L 384.5 168 Q 392.3 171.3 397 177.5 Q 405.7 188.3 404 209.5 Q 401 227.5 388.5 236 L 375 242.5 L 389.5 250 L 398 258.5 L 404 272.5 L 405 287.5 L 406 288.5 L 406 300.5 L 407.5 306 L 416 280.5 L 440 191.5 L 444 180.5 L 446 166 L 462.5 165 L 473.5 161 Z M 346 180 L 345 187 L 345 236 L 353 236 L 362 233 Q 369 228 371 217 L 371 196 L 367 187 Q 361 178 346 180 Z M 452 203 L 440 247 L 441 250 L 462 250 L 454 215 L 453 206 L 452 203 Z " /><path fill="rgb(0,0,0)" stroke="rgb(0,0,0)" stroke-width="1" opacity="1" d="M 509 162 L 522.5 165 L 591.5 165 L 602 162 L 600 200 L 591.5 200 L 591 197.5 L 586 182 L 583.5 181 L 571 181 L 571 307.5 Q 573.5 309 572 314.5 L 573.5 316 L 583 317 L 581 327 L 574.5 327 L 573.5 326 L 535.5 326 Q 534.3 328.3 529.5 327 L 528 325.5 L 527 317 L 536.5 316 L 538 314.5 Q 536.3 308.3 539 306.5 L 539 180 Q 527 178.3 521 183.5 L 515 200 L 506 200 L 506 193.5 L 507 192.5 L 507 181.5 L 508 180.5 L 508 168.5 L 509 162 Z " /><path fill="rgb(0,0,0)" stroke="rgb(0,0,0)" stroke-width="1" opacity="1" d="M 606 162 L 620.5 165 L 688.5 165 L 700 162 L 699 166.5 L 698 198.5 L 696.5 200 Q 689.8 201.8 688 198.5 L 688 195.5 L 682.5 182 L 680.5 181 L 668 181 L 668 296.5 L 669 297.5 L 669 313.5 L 671.5 316 L 680 317 L 679 327 L 672.5 327 L 671.5 326 L 633.5 326 Q 632.3 328.3 627.5 327 L 624 317.5 L 633.5 316 L 636 313.5 L 637 180 L 621.5 181 L 618 184.5 L 611.5 200 L 603.5 200 L 603 198.5 L 604 197.5 L 606 162 Z " /><path fill="rgb(0,0,0)" stroke="rgb(0,0,0)" stroke-width="1" opacity="1" d="M 294.5 163 L 297 163.5 L 297 170.5 L 298 171.5 L 298 193 L 290.5 193 L 289 191.5 Q 289.5 186.5 285.5 186 L 279.5 183 L 270.5 181 L 247 181 L 247 191.5 L 246 192.5 L 246 236 L 267.5 235 L 274 230.5 L 276 223 L 285 223 L 285 227.5 L 284 228.5 L 284 261 Q 281.9 262.6 276.5 262 L 274 261 Q 274.3 254.5 269.5 252 L 266.5 251 L 246 251 L 246 308.5 L 248.5 311 Q 253.3 309.7 254.5 312 L 272.5 312 L 279.5 310 L 285 304.5 L 289.5 297 L 298.5 297 L 300 298.5 L 299 299.5 L 297 319.5 L 295 327 L 285.5 327 L 284.5 326 L 206 326 Q 208 322.9 207 316 Q 211.6 317.3 213 314.5 Q 211.8 309.8 214 308.5 L 214 176.5 Q 211.3 173.3 206 174 Q 205.1 167.8 207 165 L 286.5 165 L 294.5 163 Z " /><path fill="rgb(0,0,0)" stroke="rgb(0,0,0)" stroke-width="1" opacity="1" d="M 703 164 L 706.5 165 L 748.5 165 L 749.5 164 L 756 164 L 757 174 L 747 175 L 746 177.5 L 746 311.5 L 748.5 316 L 757 317 L 756 326 L 730.5 326 L 727.5 325 L 726.5 326 L 704.5 326 Q 701.1 323 702 317 Q 709.8 318.2 713 313.5 L 713 297.5 L 714 296.5 L 714 185.5 L 713 184.5 L 713 176.5 L 711.5 175 L 702 174 L 703 164 Z " /><path fill="rgb(0,0,0)" stroke="rgb(0,0,0)" stroke-width="1" opacity="1" d="M 390.5 379 Q 395.9 378.4 398 380 Q 399.3 384.6 396.5 386 L 391 384 L 391 386.5 L 399 394.5 L 399 402.5 Q 397 408 387.5 406 Q 383.2 404.3 386 402.5 Q 384.3 397.7 388.5 399 Q 389.8 402 394 401 L 395 397.5 L 394 395 L 387 389.5 L 386 384.5 L 388.5 380 L 390.5 379 Z " /><path fill="rgb(0,0,0)" stroke="rgb(0,0,0)" stroke-width="1" opacity="1" d="M 471.5 379 Q 477.3 378.2 479 381.5 Q 482 385.5 481 393.5 L 478 402.5 L 474.5 406 Q 469.3 407.3 468 404.5 Q 467.3 400.8 469.5 400 L 472.5 401 L 475 397.5 Q 468.6 397.9 467 393.5 Q 465 382 471.5 379 Z M 474 384 L 471 387 Q 470 393 473 392 Q 474 395 476 391 Q 477 385 474 384 Z " /><path fill="rgb(0,0,0)" stroke="rgb(0,0,0)" stroke-width="1" opacity="1" d="M 487.5 379 Q 494.5 377.5 496 381.5 L 497 387.5 L 496 390.5 Q 499.4 393.1 498 400.5 L 494.5 405 L 489.5 406 L 484 402.5 Q 483.3 398.8 485.5 398 L 490.5 401 L 494 396.5 L 493 394 Q 488.4 395.3 487 392.5 L 488.5 389 L 492 387.5 Q 493.7 382.7 489.5 384 L 486.5 386 L 484 382.5 L 487.5 379 Z " /><path fill="rgb(0,0,0)" stroke="rgb(0,0,0)" stroke-width="1" opacity="1" d="M 508.5 379 Q 514.7 378.3 516 382.5 L 517 388.5 L 510 398.5 L 510 401 L 517 400 L 517 406 L 508.5 406 L 506.5 406 Q 502.8 406.8 502 404.5 L 503 399.5 L 510 391.5 L 512 385.5 L 509.5 384 L 506.5 389 L 503 387.5 L 504 382.5 L 506.5 380 L 508.5 379 Z " /><path fill="rgb(0,0,0)" stroke="rgb(0,0,0)" stroke-width="1" opacity="1" d="M 348 380 Q 358.7 378.1 363 383.5 L 366 390.5 L 366 395.5 L 364 401.5 L 361.5 404 Q 357.8 407.3 349.5 406 L 348 404.5 L 348 380 Z M 353 385 L 353 401 L 359 400 L 361 396 Q 362 389 359 386 L 353 385 Z " /><path fill="rgb(0,0,0)" stroke="rgb(0,0,0)" stroke-width="1" opacity="1" d="M 369 380 L 380.5 380 L 382 381.5 L 382 385 L 374 385 L 374 388 L 377.5 389 L 379.5 388 Q 382.3 389.4 381 394 L 375.5 393 Q 373 394 374 398.5 L 382 401.5 Q 382.8 405.3 380.5 406 L 370.5 406 L 369 404.5 L 369 380 Z " /><path fill="rgb(0,0,0)" stroke="rgb(0,0,0)" stroke-width="1" opacity="1" d="M 404 380 L 414.5 380 L 420 384.5 Q 423.5 388.5 422 397.5 L 416.5 405 Q 413 407.5 405.5 406 Q 403.3 405.3 404 401.5 L 404 399.5 Q 406.5 394 405 384.5 L 404 380 Z M 409 385 L 409 400 L 411 401 L 415 400 L 417 397 L 416 388 Q 414 384 409 385 Z " /><path fill="rgb(0,0,0)" stroke="rgb(0,0,0)" stroke-width="1" opacity="1" d="M 426 380 L 437.5 380 L 439 381.5 L 439 385 L 431 385 L 431 388 L 434.5 389 L 436.5 389 Q 439.5 388.1 438 392.5 L 435.5 394 L 431 393 L 431 400 L 437.5 400 Q 439.8 400.8 439 404.5 L 437.5 406 L 427.5 406 L 426 404.5 L 426 380 Z " /><path fill="rgb(0,0,0)" stroke="rgb(0,0,0)" stroke-width="1" opacity="1" d="M 457.5 380 L 461 380.5 L 461 406 Q 457.2 407 456 404.5 L 457 400.5 L 456 399.5 L 456 389 L 452 387.5 L 452 385.5 L 457.5 380 Z " /><path fill="rgb(255,255,255)" stroke="rgb(255,255,255)" stroke-width="1" opacity="1" d="M 0 0 L 430 0.5 L 419 9.5 Q 407.3 20.8 402.5 39 Q 392.3 28.3 377 24 L 372 36.5 L 370 49.5 L 368.5 52 Q 355 42.1 336 39 Q 355.6 64.9 365 101 L 382.5 96 L 405.5 92 L 443.5 91 L 444.5 92 L 457.5 92 L 458.5 93 L 471.5 94 L 497.5 101 L 508 72.5 Q 516.1 53.9 527 39 Q 508.3 42.5 494.5 52 L 491 35.5 L 485.5 24 L 477.5 27 L 463.5 37 L 460 38 Q 454.4 16.5 438.5 4 L 433 0.5 L 863 0 L 862.5 232 L 862 218.5 L 861 217.5 L 861 209.5 L 859 198.5 L 853 176.5 L 845 157.5 Q 830.3 129.2 807.5 109 Q 783.5 88 751.5 75 L 728.5 68 L 716.5 67 L 715.5 66 L 696.5 65 L 695.5 66 L 674.5 67 L 652.5 71 L 626.5 79 L 580.5 96 L 561.5 100 L 543.5 101 L 530.5 98 L 515.5 88 L 512 93.5 L 509 102.5 L 506 124 L 523.5 127 L 552.5 127 L 553.5 126 L 574.5 124 L 601.5 117 L 659.5 94 L 684.5 86 L 707.5 81 L 731.5 80 L 744.5 83 L 756.5 88 Q 772.7 98.8 785 113.5 Q 805.7 137.8 816 172.5 L 823 206.5 L 824 231.5 L 825 232.5 L 825 250.5 L 824 251.5 L 823 271.5 L 819 293.5 L 806 331.5 Q 787.7 370.2 757.5 397 L 738.5 412 L 725.5 417 L 714.5 418 L 713.5 419 L 690.5 419 L 689.5 418 L 671.5 416 L 645.5 408 L 605.5 389 L 588.5 383 L 563.5 378 L 538.5 378 L 533 380.5 L 534 385.5 L 540 395.5 L 532 403.5 L 531 407 L 544.5 404 L 571.5 403 L 572.5 404 L 580.5 404 L 591.5 406 L 626.5 417 L 632.5 420 L 654.5 426 L 680 429.5 L 182.5 430 L 182.5 429 L 191.5 429 L 198.5 427 L 204.5 427 L 220.5 423 L 272.5 406 L 290.5 404 L 291.5 403 L 308.5 403 L 309.5 404 L 318.5 404 L 332.5 407 L 332 405.5 L 323 395.5 L 330 383.5 L 330 379 L 324.5 378 L 299.5 378 L 298.5 379 L 286.5 380 L 268.5 385 L 227.5 404 L 195.5 415 L 172.5 419 L 149.5 419 L 148.5 418 L 137.5 417 L 123.5 411 Q 103.5 397.5 88 379.5 Q 59.7 347.8 46 301.5 L 39 263.5 L 38 223.5 L 39 222.5 L 39 211.5 L 40 210.5 L 40 203.5 L 43 186.5 Q 47.7 165.2 56 147.5 Q 70.3 117.3 94.5 97 Q 105.3 86.8 121.5 82 L 132.5 80 L 146.5 80 L 147.5 81 L 155.5 81 L 170.5 84 L 185.5 88 L 211.5 97 L 252.5 114 L 283.5 123 L 294.5 124 L 301.5 126 L 310.5 126 L 311.5 127 L 339.5 127 L 357 124 L 355 106.5 L 349 88 L 330.5 99 L 319.5 101 L 310.5 101 L 309.5 100 L 295.5 99 L 279.5 95 L 225.5 75 L 210.5 71 L 188.5 67 L 181.5 67 L 180.5 66 L 158.5 65 L 157.5 66 L 147.5 66 L 126.5 70 L 109.5 76 L 86.5 87 Q 59.8 102.3 40 124.5 Q 21.1 146.1 10 175.5 L 3 201.5 L 0.5 224 L 0 0 Z M 414 95 L 413 96 L 404 96 L 403 97 L 386 99 L 368 104 L 366 106 L 368 113 L 368 121 L 370 122 L 379 120 L 405 119 L 406 118 L 458 118 L 459 119 L 485 120 L 494 122 L 495 121 L 497 106 L 483 100 L 460 96 L 451 96 L 450 95 L 414 95 Z M 154 159 Q 136 162 127 173 Q 115 184 109 201 L 104 218 L 102 229 L 102 238 L 101 239 L 101 258 L 102 259 L 102 269 L 104 276 L 104 281 Q 108 299 118 312 Q 125 320 135 325 L 149 329 Q 177 332 190 318 Q 197 310 202 299 L 205 285 L 197 277 L 195 279 L 192 292 L 185 304 L 175 311 L 166 313 L 158 312 L 152 309 Q 145 304 141 296 L 138 285 L 137 265 L 136 264 L 136 229 L 137 228 L 137 216 L 140 199 L 146 185 L 156 176 L 165 174 Q 175 174 180 179 Q 186 185 188 195 L 196 200 L 200 199 L 202 166 L 196 161 L 192 170 Q 181 156 154 159 Z M 474 161 L 463 165 L 446 166 L 444 181 L 440 192 L 416 281 L 408 306 L 406 301 L 406 289 L 405 288 L 404 273 L 398 259 L 390 250 L 375 243 L 389 236 Q 401 228 404 210 Q 406 188 397 178 Q 392 171 385 168 L 372 165 L 305 165 L 305 175 L 312 175 L 312 197 L 313 198 L 313 285 L 312 286 L 312 314 L 311 316 L 308 317 L 305 318 L 305 327 L 312 326 L 346 326 L 347 327 L 353 327 L 353 317 L 347 316 L 345 315 L 345 302 L 344 301 L 344 249 Q 358 247 366 253 L 369 259 L 371 267 L 372 296 L 373 297 L 373 306 L 375 316 L 381 333 L 388 344 Q 393 350 402 353 Q 414 354 422 351 L 423 350 L 425 340 L 416 343 L 412 342 Q 407 337 408 326 L 429 326 L 430 327 L 432 327 L 432 318 L 431 316 L 424 315 L 425 301 L 434 268 L 435 264 L 465 264 L 476 316 Q 475 318 469 317 L 467 319 L 466 327 L 471 326 L 520 326 L 522 327 L 523 326 L 523 317 L 515 316 L 511 312 L 503 285 L 485 213 L 485 209 L 477 178 L 475 164 L 474 161 Z M 509 162 L 508 169 L 508 181 L 507 182 L 507 193 L 506 194 L 506 200 L 515 200 L 521 184 Q 527 178 539 180 L 539 307 Q 536 308 538 315 L 537 316 L 527 317 L 528 326 L 530 327 Q 534 328 536 326 L 574 326 L 575 327 L 581 327 L 583 317 L 574 316 L 572 315 Q 574 309 571 308 L 571 181 L 584 181 L 586 182 L 591 198 L 592 200 L 600 200 L 602 162 L 592 165 L 523 165 L 509 162 Z M 606 162 L 604 198 L 603 199 L 604 200 L 612 200 L 618 185 L 622 181 L 637 180 L 636 314 L 634 316 L 624 318 L 628 327 Q 632 328 634 326 L 672 326 L 673 327 L 679 327 L 680 317 L 672 316 L 669 314 L 669 298 L 668 297 L 668 181 L 681 181 L 683 182 L 688 196 L 688 199 Q 690 202 697 200 L 698 199 L 699 167 L 700 162 L 689 165 L 621 165 L 606 162 Z M 295 163 L 287 165 L 207 165 Q 205 168 206 174 Q 211 173 214 177 L 214 309 Q 212 310 213 315 Q 212 317 207 316 Q 208 323 206 326 L 285 326 L 286 327 L 295 327 L 297 320 L 299 300 L 300 299 L 299 297 L 290 297 L 285 305 L 280 310 L 273 312 L 255 312 Q 253 310 249 311 L 246 309 L 246 251 L 267 251 L 270 252 Q 274 255 274 261 L 277 262 Q 282 263 284 261 L 284 229 L 285 228 L 285 223 L 276 223 L 274 231 L 268 235 L 246 236 L 246 193 L 247 192 L 247 181 L 271 181 L 280 183 L 286 186 Q 290 186 289 192 L 291 193 L 298 193 L 298 172 L 297 171 L 297 164 L 295 163 Z M 703 164 L 702 174 L 712 175 L 713 177 L 713 185 L 714 186 L 714 297 L 713 298 L 713 314 Q 710 318 702 317 Q 701 323 705 326 L 727 326 L 728 325 L 731 326 L 756 326 L 757 317 L 749 316 L 746 312 L 746 178 L 747 175 L 757 174 L 756 164 L 750 164 L 749 165 L 707 165 L 703 164 Z M 391 379 L 389 380 L 386 385 L 387 390 L 394 395 L 395 398 L 394 401 Q 390 402 389 399 Q 384 398 386 403 Q 383 404 388 406 Q 397 408 399 403 L 399 395 L 391 387 L 391 384 L 397 386 Q 399 385 398 380 Q 396 378 391 379 Z M 472 379 Q 465 382 467 394 Q 469 398 475 398 L 473 401 L 470 400 Q 467 401 468 405 Q 469 407 475 406 L 478 403 L 481 394 Q 482 386 479 382 Q 477 378 472 379 Z M 488 379 L 484 383 L 487 386 L 490 384 Q 494 383 492 388 L 489 389 L 487 393 Q 488 395 493 394 L 494 397 L 491 401 L 486 398 Q 483 399 484 403 L 490 406 L 495 405 L 498 401 Q 499 393 496 391 L 497 388 L 496 382 Q 495 378 488 379 Z M 509 379 L 507 380 L 504 383 L 503 388 L 507 389 L 510 384 L 512 386 L 510 392 L 503 400 L 502 405 Q 503 407 507 406 L 509 406 L 517 406 L 517 400 L 510 401 L 510 399 L 517 389 L 516 383 Q 515 378 509 379 Z M 348 380 L 348 405 L 350 406 Q 358 407 362 404 L 364 402 L 366 396 L 366 391 L 363 384 Q 359 378 348 380 Z M 369 380 L 369 405 L 371 406 L 381 406 Q 383 405 382 402 L 374 399 Q 373 394 376 393 L 381 394 Q 382 389 380 388 L 378 389 L 374 388 L 374 385 L 382 385 L 382 382 L 381 380 L 369 380 Z M 404 380 L 405 385 Q 407 394 404 400 L 404 402 Q 403 405 406 406 Q 413 408 417 405 L 422 398 Q 424 389 420 385 L 415 380 L 404 380 Z M 426 380 L 426 405 L 428 406 L 438 406 L 439 405 Q 440 401 438 400 L 431 400 L 431 393 L 436 394 L 438 393 Q 439 388 437 389 L 435 389 L 431 388 L 431 385 L 439 385 L 439 382 L 438 380 L 426 380 Z M 458 380 L 452 386 L 452 388 L 456 389 L 456 400 L 457 401 L 456 405 Q 457 407 461 406 L 461 381 L 458 380 Z " /><path fill="rgb(255,255,255)" stroke="rgb(255,255,255)" stroke-width="1" opacity="1" d="M 431.5 44 Q 438.2 48.8 441 57.5 L 443 77 L 420.5 77 L 420 74.5 L 421 73.5 L 422 59.5 L 424 53.5 L 431.5 44 Z " /><path fill="rgb(255,255,255)" stroke="rgb(255,255,255)" stroke-width="1" opacity="1" d="M 388.5 52 L 398 59.5 L 401 65.5 L 404 77.5 L 402.5 79 L 396.5 79 L 388.5 81 Q 383.1 72.9 385 57.5 L 388.5 52 Z " /><path fill="rgb(255,255,255)" stroke="rgb(255,255,255)" stroke-width="1" opacity="1" d="M 475.5 52 L 478 56.5 L 479 66.5 L 476 81 L 466.5 79 L 459 79 L 464 61.5 L 469.5 55 L 475.5 52 Z " /><path fill="rgb(255,255,255)" stroke="rgb(255,255,255)" stroke-width="1" opacity="1" d="M 428.5 99 Q 435.5 97.5 437 101.5 L 438 107.5 L 436 112 L 429.5 113 L 427 112 L 425 104.5 L 428.5 99 Z " /><path fill="rgb(255,255,255)" stroke="rgb(255,255,255)" stroke-width="1" opacity="1" d="M 399.5 101 Q 404.5 100.5 405 104.5 L 406 109.5 L 402.5 114 Q 397 115 396 111.5 L 395 105.5 L 397.5 102 L 399.5 101 Z " /><path fill="rgb(255,255,255)" stroke="rgb(255,255,255)" stroke-width="1" opacity="1" d="M 462.5 101 L 468 104.5 Q 469.5 112.5 464.5 114 Q 459 115 458 111.5 L 457 107.5 L 460.5 102 L 462.5 101 Z " /><path fill="rgb(255,255,255)" stroke="rgb(255,255,255)" stroke-width="1" opacity="1" d="M 346 180 Q 361.2 177.9 367 186.5 L 371 195.5 L 371 216.5 Q 369.3 227.8 361.5 233 L 352.5 236 L 345 236 L 345 186.5 L 346 180 Z " /><path fill="rgb(255,255,255)" stroke="rgb(255,255,255)" stroke-width="1" opacity="1" d="M 451.5 203 L 453 205.5 L 454 214.5 L 462 250 L 440.5 250 L 440 246.5 L 451.5 203 Z " /><path fill="rgb(255,255,255)" stroke="rgb(255,255,255)" stroke-width="1" opacity="1" d="M 0.5 253 L 1 264.5 L 2 265.5 L 2 272.5 L 5 289.5 Q 10.2 311.8 19 330.5 Q 35.2 364.3 61.5 388 Q 82.5 407 110.5 419 L 138.5 428 L 154 429.5 L 0 430 L 0.5 253 Z " /><path fill="rgb(255,255,255)" stroke="rgb(255,255,255)" stroke-width="1" opacity="1" d="M 862.5 253 L 863 430 L 709 429.5 L 718.5 429 L 732.5 426 L 754.5 418 L 777.5 406 L 810 380 L 833 350.5 L 848 321.5 L 858 289.5 L 861 272.5 L 861 265.5 L 862 264.5 L 862.5 253 Z " /><path fill="rgb(255,255,255)" stroke="rgb(255,255,255)" stroke-width="1" opacity="1" d="M 473.5 384 Q 477 385 476 390.5 Q 474.2 394.8 472.5 392 Q 469.8 392.6 471 386.5 L 473.5 384 Z " /><path fill="rgb(255,255,255)" stroke="rgb(255,255,255)" stroke-width="1" opacity="1" d="M 353 385 L 359 386 Q 361.7 388.6 361 395.5 L 359 400 L 353 401 L 353 385 Z " /><path fill="rgb(255,255,255)" stroke="rgb(255,255,255)" stroke-width="1" opacity="1" d="M 409 385 Q 414 384.2 416 387.5 L 417 396.5 L 414.5 400 L 410.5 401 L 409 399.5 L 409 385 Z " /></svg>