<?xml version="1.0" encoding="utf-8" ?>
<svg xmlns="http://www.w3.org/2000/svg" xmlns:xlink="http://www.w3.org/1999/xlink" width="80" height="36">
	<rect fill-opacity="0" width="80" height="36"/>
	<rect fill="#1E1E1E" width="79.371277" height="35.024414"/>
	<rect fill="white" transform="translate(-183.156 -7156.99)" width="1920" height="8739"/>
	<clipPath id="cl_60">
		<rect x="-183.15625" y="-7156.9878" width="1920" height="8739"/>
	</clipPath>
	<g clip-path="url(#cl_60)">
		<clipPath id="cl_63">
			<rect x="736.28772" y="-6337.9878" width="80" height="80" rx="40" ry="40"/>
		</clipPath>
		<g clip-path="url(#cl_63)">
			<ellipse transform="translate(736.288 -6337.99)" cx="40" cy="40" rx="40" ry="40"/>
		</g>
	</g>
	<clipPath id="cl_64">
		<rect x="823.84375" y="-7740.9878" width="0" height="0"/>
	</clipPath>
	<g clip-path="url(#cl_64)">
		<clipPath id="cl_1">
			<rect/>
		</clipPath>
		<g clip-path="url(#cl_1)">
			<ellipse transform="translate(736.288 -6337.99)" cx="40" cy="40" rx="40" ry="40"/>
		</g>
	</g>
	<clipPath id="cl_66">
		<rect x="-183.15625" y="-7156.9878" width="1920" height="8739"/>
	</clipPath>
	<g clip-path="url(#cl_66)">
		<clipPath id="cl_67">
			<path d="M772.86365 -6290.0366L785.35559 -6297.1533C785.62128 -6297.2988 785.62128 -6297.6768 785.35559 -6297.8242L772.86365 -6304.939C772.60571 -6305.0811 772.28772 -6304.897 772.28772 -6304.6035L772.28772 -6290.3721C772.28772 -6290.0786 772.60571 -6289.8945 772.86365 -6290.0366Z" clip-rule="evenodd"/>
		</clipPath>
		<g clip-path="url(#cl_67)">
			<path transform="translate(772.288 -6304.99)" d="M0.57592595 14.951165L13.067896 7.8345499C13.333559 7.6888433 13.333559 7.3111563 13.067896 7.1635327L0.57592595 0.048835382C0.31801969 -0.093036786 0 0.09101361 0 0.38434389L0 14.615657C0 14.908987 0.31801969 15.093038 0.57592595 14.951165Z" fill-rule="evenodd"/>
		</g>
	</g>
	<clipPath id="cl_135">
		<rect x="-183.15625" y="-7156.9878" width="1920" height="8739"/>
	</clipPath>
	<g clip-path="url(#cl_135)">
		<clipPath id="cl_138">
			<rect x="1216.6213" y="-904.98779" width="80" height="80" rx="40" ry="40"/>
		</clipPath>
		<g clip-path="url(#cl_138)">
			<ellipse transform="translate(1216.62 -904.988)" cx="40" cy="40" rx="40" ry="40"/>
		</g>
	</g>
	<clipPath id="cl_139">
		<rect x="823.84375" y="-7740.9878" width="0" height="0"/>
	</clipPath>
	<g clip-path="url(#cl_139)">
		<clipPath id="cl_1">
			<rect/>
		</clipPath>
		<g clip-path="url(#cl_1)">
			<ellipse transform="translate(1216.62 -904.988)" cx="40" cy="40" rx="40" ry="40"/>
		</g>
	</g>
	<clipPath id="cl_13b">
		<rect x="-183.15625" y="-7156.9878" width="1920" height="8739"/>
	</clipPath>
	<g clip-path="url(#cl_13b)">
		<clipPath id="cl_13c">
			<path d="M1253.1973 -857.03662L1265.6892 -864.15326C1265.955 -864.29895 1265.955 -864.67664 1265.6892 -864.82428L1253.1973 -871.93896C1252.9393 -872.08081 1252.6213 -871.89679 1252.6213 -871.60345L1252.6213 -857.37213C1252.6213 -857.0788 1252.9393 -856.89478 1253.1973 -857.03662Z" clip-rule="evenodd"/>
		</clipPath>
		<g clip-path="url(#cl_13c)">
			<path transform="translate(1252.62 -871.988)" d="M0.57592595 14.951165L13.067896 7.8345499C13.333559 7.6888433 13.333559 7.3111563 13.067896 7.1635327L0.57592595 0.048835382C0.31801969 -0.093036786 0 0.09101361 0 0.38434389L0 14.615657C0 14.908987 0.31801969 15.093038 0.57592595 14.951165Z" fill-rule="evenodd"/>
		</g>
	</g>
</svg>
