<svg width="80" height="36" viewBox="0 0 80 36" fill="none" xmlns="http://www.w3.org/2000/svg">
<path fill-rule="evenodd" clip-rule="evenodd" d="M22.1191 11.2017C21.1329 12.7206 20.3829 14.3803 19.8946 16.1239H24.3436C23.8611 14.378 23.1108 12.7174 22.1191 11.2017Z" fill="#666666"/>
<path fill-rule="evenodd" clip-rule="evenodd" d="M10.0183 10.9649H8.94545H8.92975V19.0743C10.0595 19.2234 11.2085 19.0484 12.2428 18.5693C13.5285 17.9298 14.3368 16.613 14.3253 15.1774C14.429 14.0545 14.0372 12.9424 13.2525 12.1326C12.3589 11.3515 11.2046 10.9348 10.0183 10.9649Z" fill="#666666"/>
<path fill-rule="evenodd" clip-rule="evenodd" d="M41.8399 15.6971C42.027 17.7011 43.8034 19.174 45.8074 18.9869C47.8115 18.7998 49.2843 17.0234 49.0972 15.0194C49.2137 12.8982 47.5897 11.0836 45.4686 10.9648C43.3474 11.0836 41.7235 12.8982 41.8399 15.0194C41.819 15.2447 41.819 15.4717 41.8399 15.6971Z" fill="#666666"/>
<path fill-rule="evenodd" clip-rule="evenodd" d="M79.357 9.46612C79.5307 7.38358 78.0948 6.50013 76.2017 5.77433C63.4856 0.930879 49.5705 0.0157 36.2079 0C24.462 0.0856959 12.8158 2.16627 1.76694 6.15277C0.702285 6.53447 -0.00585107 7.54614 3.64343e-05 8.6772V24.596C0.0762469 25.6613 0.826576 26.5579 1.8618 26.8205C13.5387 31.9319 26.0997 34.7183 38.8425 35.0244C52.3975 34.8449 65.772 31.892 78.1423 26.3472C78.9148 25.9214 79.3839 25.0991 79.357 24.2173V9.46612ZM52.1581 8.94541H54.3669C56.4995 10.5867 58.3625 12.5508 59.8887 14.7672V8.94541H62.5391V21.0145H60.1095C59.0916 17.8388 57.2325 14.9984 54.7296 12.7949V20.9988H52.1581V8.94541ZM45.4686 8.58267C48.917 8.70271 51.6295 11.5699 51.5585 15.0197C51.7296 18.3785 49.1453 21.2405 45.7865 21.4115C42.4277 21.5826 39.5657 18.9983 39.3946 15.6395C39.3842 15.4331 39.3842 15.2261 39.3946 15.0197C39.3233 11.5758 42.0267 8.71089 45.4686 8.58267ZM28.4298 8.94541H30.6386C32.7712 10.5867 34.6343 12.5508 36.1604 14.7672V8.94541H38.7951V21.0145H36.4443C35.4265 17.8388 33.5673 14.9984 31.0645 12.7949V20.9988H28.4298V8.94541ZM23.4444 8.94541C25.9214 11.6906 27.4515 15.6977 27.9565 20.9988H25.1956C25.122 20.0731 25.0115 19.1897 24.8643 18.3484H19.3107C19.1554 19.2256 19.0448 20.1104 18.9794 20.9988H16.329C16.96 15.6032 18.459 11.5326 20.8886 8.94541H23.4444ZM14.5778 19.7526C13.0641 20.8738 11.2236 21.4671 9.33991 21.4407C8.28114 21.4531 7.224 21.3579 6.18453 21.1567C6.18453 21.1567 6.27906 20.2102 6.27906 18.4433C6.27906 16.3133 6.59469 10.3499 6.04225 8.86691C6.95743 8.73411 7.87915 8.64972 8.80316 8.6144C10.6898 8.43941 12.5872 8.80018 14.2776 9.65551C16.0016 10.7113 16.9937 12.6401 16.8491 14.6566C16.9453 16.6198 16.1017 18.5113 14.5778 19.7526ZM63.1543 24.596C48.7816 34.5986 33.4309 35.7977 16.5341 24.7537C15.5401 24.1067 15.3036 22.2767 17.6858 23.4126C32.7051 30.5911 47.4566 30.528 62.2395 23.3021C63.2963 22.7817 64.1009 23.9491 63.1543 24.596ZM74.1666 15.9028H65.7733C65.8164 17.6831 67.2903 19.0935 69.0706 19.0582C69.9943 19.0883 70.8879 18.7275 71.5319 18.0642L74.072 18.6794L74.0877 18.7268C72.8677 20.4712 70.8679 21.5035 68.7393 21.4878C67.3825 21.5584 66.0555 21.0743 65.0632 20.1467C63.7954 18.8747 63.12 17.1287 63.2014 15.3347C63.065 13.5462 63.6309 11.7747 64.7789 10.3967C65.856 9.23749 67.3776 8.59412 68.9597 8.62977C70.4659 8.48749 71.9493 9.07395 72.9511 10.2073C73.7557 11.2468 74.2235 12.5073 74.2922 13.8203C74.3308 14.5173 74.2886 15.2159 74.1666 15.9028Z" fill="#666666"/>
<path fill-rule="evenodd" clip-rule="evenodd" d="M69.0075 10.8545C67.3603 10.9248 66.0157 12.1959 65.8521 13.8362H71.8158C71.8178 13.7982 71.8188 13.76 71.8191 13.722C71.8348 12.154 70.5759 10.8702 69.0075 10.8545Z" fill="#666666"/>
</svg>
