<svg width="161" height="17" viewBox="0 0 161 17" fill="none" xmlns="http://www.w3.org/2000/svg">
<path d="M11.27 16.5572C8.75974 16.5572 6.24944 16.5619 3.73913 16.5549C2.25989 16.5526 0.908369 15.6051 0.39284 14.2257C0.244219 13.8309 0.169908 13.4222 0.169908 13.0019C0.167586 11.1442 0.160619 9.28639 0.17223 7.42863C0.181519 5.47565 1.76294 3.88495 3.71823 3.87798C7.79602 3.86637 11.8738 3.86869 15.9516 3.87798C17.7931 3.88262 19.349 5.44314 19.4419 7.28233C19.5487 9.36767 17.9673 10.7424 16.6227 11.0048C16.3232 11.0629 16.0236 11.0861 15.7194 11.0861C11.5998 11.0861 7.48253 11.0861 3.36294 11.0931C3.17716 11.0931 3.14233 11.0373 3.14697 10.8678C3.15858 10.4312 3.15858 9.99234 3.14697 9.55577C3.14233 9.3816 3.18181 9.33051 3.36526 9.33283C5.06047 9.3398 6.758 9.33748 8.45321 9.33748C10.9101 9.33748 13.3647 9.3398 15.8216 9.33516C16.8364 9.33283 17.6515 8.54329 17.684 7.54242C17.7188 6.50904 16.9014 5.65214 15.8564 5.63821C15.3594 5.63124 14.8602 5.63589 14.3609 5.63589C10.8474 5.63589 7.33623 5.63589 3.82273 5.63589C2.87992 5.63589 2.14843 6.21412 1.96497 7.10816C1.9371 7.24517 1.93014 7.38915 1.93014 7.52848C1.92782 9.3189 1.92549 11.1093 1.93014 12.8997C1.93246 13.8565 2.5223 14.5903 3.42099 14.7598C3.60445 14.7947 3.79487 14.79 3.98297 14.79C8.97106 14.7923 13.9568 14.7923 18.9426 14.7877C19.1307 14.7877 19.1957 14.8202 19.1888 15.0246C19.1725 15.4751 19.1748 15.9256 19.1888 16.3761C19.1934 16.534 19.1423 16.5595 18.9983 16.5595C16.4253 16.5549 13.8477 16.5572 11.27 16.5572Z" fill="white"/>
<path d="M53.4667 16.5571C50.9216 16.5571 48.3787 16.5547 45.8336 16.5617C45.6502 16.5617 45.613 16.5106 45.6176 16.3388C45.6293 15.8813 45.6269 15.4238 45.6176 14.9663C45.6153 14.8224 45.6618 14.7875 45.8011 14.7875C47.0667 14.7922 48.3323 14.7899 49.5979 14.7899C53.3343 14.7899 57.0684 14.7852 60.8025 14.7922C61.6339 14.7922 62.2493 14.4485 62.6046 13.7031C63.1549 12.5513 62.3213 11.1695 61.0487 11.0929C60.9279 11.0859 60.8072 11.0859 60.6841 11.0859C56.82 11.0859 52.9581 11.0836 49.094 11.0859C47.5613 11.0859 46.4234 10.3986 45.7361 9.04705C44.64 6.89436 46.0891 4.2099 48.4786 3.90337C48.7015 3.87318 48.9221 3.87086 49.1427 3.87086C54.1099 3.86853 59.0771 3.87086 64.0443 3.86621C64.2394 3.86621 64.2928 3.91266 64.2858 4.10772C64.2696 4.54429 64.2742 4.98087 64.2858 5.41977C64.2905 5.58696 64.2417 5.63341 64.0745 5.63341C62.4258 5.62644 60.777 5.62876 59.1282 5.62876C55.8237 5.62876 52.5192 5.63109 49.2147 5.62644C48.6644 5.62644 48.1605 5.72165 47.7425 6.11178C47.1805 6.63428 46.9901 7.43312 47.2571 8.14603C47.5288 8.86359 48.2023 9.33268 48.9895 9.335C51.0748 9.33964 53.1625 9.33732 55.2501 9.33732C57.1288 9.33732 59.0051 9.32803 60.8838 9.33964C62.3677 9.34661 63.4916 10.027 64.1372 11.3391C65.3842 13.8679 63.4615 16.5478 60.9767 16.5524C58.4734 16.5617 55.97 16.5571 53.4667 16.5571Z" fill="white"/>
<path d="M32.5462 5.63852C30.5746 5.63852 28.6031 5.66174 26.6315 5.62923C25.5331 5.61065 24.6577 6.46987 24.6716 7.57756C24.6971 9.36798 24.6739 11.1584 24.6809 12.9465C24.6832 13.8545 25.2823 14.5767 26.1601 14.7601C26.3459 14.7996 26.534 14.7926 26.7244 14.7926C30.5955 14.7926 34.4643 14.795 38.3331 14.788C38.5398 14.788 38.5932 14.8414 38.5839 15.0434C38.5677 15.487 38.5723 15.9305 38.5816 16.3764C38.5862 16.5297 38.5444 16.5645 38.3935 16.5645C36.6518 16.5598 34.9079 16.5622 33.1639 16.5622C30.9299 16.5622 28.696 16.5668 26.462 16.5598C24.9804 16.5529 23.6243 15.5775 23.125 14.1866C22.9717 13.7639 22.9183 13.325 22.916 12.8791C22.916 11.1096 22.909 9.34011 22.916 7.57059C22.923 5.82429 24.0121 4.39614 25.6353 3.98511C25.8907 3.92009 26.1485 3.88293 26.4132 3.88293C30.5119 3.88293 34.6106 3.87597 38.707 3.88758C40.5137 3.89222 42.0788 5.42255 42.1647 7.22923C42.1694 7.33605 42.1717 7.44287 42.1717 7.55201C42.1717 10.485 42.1694 13.4202 42.1764 16.3532C42.1764 16.5366 42.1253 16.5738 41.9534 16.5691C41.5099 16.5552 41.064 16.5575 40.6205 16.5691C40.4579 16.5738 40.4231 16.5227 40.4231 16.3694C40.4277 13.4481 40.4254 10.5291 40.4277 7.60775C40.4277 7.22226 40.3743 6.85535 40.1584 6.53024C39.7752 5.95202 39.2411 5.64316 38.5351 5.64548C36.5427 5.64084 34.5433 5.63852 32.5462 5.63852Z" fill="white"/>
<path d="M75.8782 16.5579C73.3331 16.5579 70.7903 16.5556 68.2452 16.5626C68.0826 16.5626 68.0269 16.5347 68.0315 16.3582C68.0454 15.9077 68.0478 15.4549 68.0315 15.0044C68.0245 14.8163 68.0872 14.7884 68.2568 14.7884C70.8623 14.7931 73.4655 14.7931 76.071 14.7931C78.4675 14.7931 80.864 14.7908 83.2605 14.7931C84.0779 14.7931 84.6538 14.4146 85.0138 13.6923C85.1113 13.4996 85.1624 13.2883 85.1624 13.07C85.167 12.4569 85.1624 11.8462 85.167 11.2331C85.1694 11.117 85.1299 11.0868 85.0184 11.0868C84.5888 11.0915 84.1569 11.0892 83.7273 11.0892C79.6077 11.0892 75.4881 11.0892 71.3685 11.0892C69.7662 11.0892 68.6306 10.3414 67.9386 8.91093C67.7273 8.47436 67.6576 8.00063 67.6553 7.51993C67.6553 6.36115 67.6576 5.20469 67.6507 4.04591C67.6483 3.90194 67.6925 3.8671 67.8295 3.86943C68.3009 3.87872 68.7723 3.87872 69.2437 3.86943C69.3946 3.8671 69.4155 3.92052 69.4132 4.05288C69.4086 5.17683 69.4109 6.30077 69.4109 7.42472C69.4109 8.5417 70.2004 9.33589 71.3128 9.33589C75.8643 9.33589 80.4135 9.33589 84.9627 9.34054C85.1369 9.34054 85.1694 9.29177 85.167 9.12922C85.1624 7.44562 85.1647 5.76435 85.1601 4.08075C85.1601 3.91587 85.1949 3.86478 85.3668 3.86943C85.8242 3.88336 86.2817 3.87872 86.7392 3.87175C86.8599 3.86943 86.9133 3.89033 86.9133 4.03198C86.9087 7.02066 86.9226 10.0093 86.9041 12.998C86.8924 14.742 85.6872 16.1585 83.9874 16.4976C83.7296 16.5487 83.4672 16.5579 83.2048 16.5579C80.7641 16.5579 78.3212 16.5579 75.8782 16.5579Z" fill="white"/>
<path d="M146.311 16.5573C143.766 16.5573 141.223 16.5596 138.678 16.5573C137.113 16.555 135.696 15.5123 135.232 14.0168C135.122 13.6685 135.074 13.3062 135.074 12.9439C135.069 11.1257 135.067 9.30969 135.074 7.49141C135.081 5.74047 136.293 4.27284 138.007 3.93147C138.183 3.89664 138.367 3.87806 138.548 3.87806C143.745 3.87574 148.94 3.87574 154.137 3.87109C154.297 3.87109 154.343 3.91289 154.341 4.07313C154.329 4.52363 154.327 4.97414 154.341 5.42465C154.346 5.61042 154.283 5.64526 154.113 5.64526C150.043 5.64061 145.97 5.64061 141.896 5.64061C140.84 5.64061 139.781 5.66616 138.727 5.63365C137.719 5.60114 136.827 6.46732 136.839 7.5216C136.86 9.29808 136.869 11.0769 136.836 12.8511C136.818 13.8937 137.656 14.7994 138.775 14.7947C143.863 14.7715 148.954 14.7854 154.041 14.7854C154.374 14.7854 154.334 14.7483 154.336 15.0711C154.339 15.4891 154.327 15.9071 154.341 16.3228C154.346 16.5062 154.297 16.5573 154.109 16.5573C151.508 16.555 148.909 16.5573 146.311 16.5573Z" fill="white"/>
<path d="M109.225 7.63771C109.225 7.42871 109.214 7.22203 109.193 7.01304C109.005 5.28299 107.463 3.88038 105.723 3.87574C103.153 3.87109 100.58 3.87574 98.0089 3.87574V3.87342C95.3964 3.87342 92.7863 3.87574 90.1738 3.87109C90.0136 3.87109 89.9578 3.9036 89.9578 4.07777C89.9625 8.16949 89.9625 12.2612 89.9578 16.3553C89.9578 16.5062 89.9857 16.5619 90.1552 16.5619C95.3384 16.5573 100.522 16.5596 105.702 16.555C106.183 16.555 106.657 16.4667 107.089 16.2484C108.443 15.568 109.202 14.4836 109.218 12.9486C109.241 11.1791 109.225 9.40955 109.225 7.63771ZM105.986 14.7599C105.856 14.7878 105.719 14.7878 105.584 14.7878C101.035 14.7901 96.4879 14.7878 91.9387 14.7924C91.7645 14.7924 91.7297 14.7367 91.7297 14.5741C91.7343 11.6667 91.7343 8.75933 91.7297 5.85426C91.7297 5.68241 91.7784 5.64061 91.9456 5.64061C94.2539 5.64526 96.5622 5.64293 98.8681 5.64293C101.123 5.64293 103.376 5.64061 105.63 5.64526C106.51 5.64526 107.237 6.22116 107.428 7.06412C107.465 7.22668 107.481 7.3962 107.481 7.5634C107.486 9.33292 107.486 11.1024 107.481 12.872C107.481 13.8241 106.889 14.5718 105.986 14.7599Z" fill="white"/>
<path d="M131.679 7.34454C131.679 7.20289 131.66 7.06356 131.644 6.92422C131.437 5.26153 129.895 3.88446 128.221 3.87982C126.175 3.87285 124.129 3.87749 122.083 3.87749C120.03 3.87749 117.978 3.87749 115.925 3.87749C115.72 3.87749 115.521 3.89839 115.326 3.94019C113.593 4.31407 112.428 5.74455 112.421 7.51871C112.414 9.3161 112.416 11.1112 112.421 12.9085C112.421 13.1222 112.432 13.3405 112.474 13.5495C112.818 15.3561 114.271 16.5544 116.108 16.5544C120.03 16.5544 123.955 16.5544 127.877 16.5544C128.119 16.5544 128.36 16.5451 128.602 16.5196C130.206 16.3477 131.66 14.7895 131.672 13.1779C131.69 11.2342 131.679 9.28823 131.679 7.34454ZM129.939 12.9039C129.939 13.9837 129.154 14.7849 128.075 14.7849C124.064 14.7895 120.051 14.7895 116.041 14.7849C114.963 14.7849 114.19 13.9953 114.19 12.9155C114.19 11.1112 114.204 9.30681 114.185 7.50478C114.174 6.45746 115.073 5.62147 116.05 5.6354C118.057 5.66095 120.061 5.64237 122.067 5.64237C124.046 5.64237 126.024 5.67256 128.003 5.63076C129.048 5.60986 129.974 6.48301 129.953 7.59302C129.914 9.36254 129.942 11.1321 129.939 12.9039Z" fill="white"/>
<path d="M160.04 1.98316C160.04 3.0955 159.146 3.97793 158.008 3.97793C156.87 3.97793 155.964 3.0955 155.964 1.98316C155.964 0.870826 156.872 0 158.019 0C159.143 0 160.04 0.870826 160.04 1.98316ZM156.47 1.98316C156.47 2.8656 157.135 3.5669 158.019 3.5669C158.879 3.57852 159.531 2.8656 159.531 1.99477C159.531 1.11234 158.879 0.397097 157.996 0.397097C157.137 0.399419 156.47 1.11234 156.47 1.98316ZM157.692 3.0119H157.232V1.02874C157.413 1.00551 157.669 0.968359 157.994 0.968359C158.368 0.968359 158.537 1.02874 158.672 1.12627C158.793 1.20987 158.879 1.35617 158.879 1.54891C158.879 1.79042 158.697 1.94833 158.468 2.02032V2.04354C158.66 2.10392 158.758 2.26183 158.818 2.52656C158.879 2.82844 158.927 2.93759 158.965 3.00958H158.482C158.421 2.93759 158.384 2.76807 158.324 2.52656C158.286 2.31988 158.166 2.22467 157.913 2.22467H157.694L157.692 3.0119ZM157.704 1.89956H157.922C158.175 1.89956 158.382 1.81596 158.382 1.60929C158.382 1.42816 158.249 1.3074 157.959 1.3074C157.838 1.3074 157.752 1.31901 157.706 1.33062L157.704 1.89956Z" fill="white"/>
</svg>
