<?xml version="1.0" encoding="utf-8" ?>
<svg xmlns="http://www.w3.org/2000/svg" xmlns:xlink="http://www.w3.org/1999/xlink" width="193" height="21">
	<rect fill-opacity="0" width="193" height="21"/>
	<rect fill="#1E1E1E" width="192.97607" height="20.000427"/>
	<clipPath id="cl_5c">
		<rect x="2060" y="-60" width="1920" height="8739"/>
	</clipPath>
	<g clip-path="url(#cl_5c)">
		<clipPath id="cl_5e">
			<rect x="2979.4438" y="759" width="80" height="80" rx="40" ry="40"/>
		</clipPath>
		<g clip-path="url(#cl_5e)">
			<ellipse transform="translate(2979.44 759)" cx="40" cy="40" rx="40" ry="40"/>
		</g>
	</g>
	<clipPath id="cl_5f">
		<rect x="3067" y="-644" width="0" height="0"/>
	</clipPath>
	<g clip-path="url(#cl_5f)">
		<clipPath id="cl_1">
			<rect/>
		</clipPath>
		<g clip-path="url(#cl_1)">
			<ellipse transform="translate(2979.44 759)" cx="40" cy="40" rx="40" ry="40"/>
		</g>
	</g>
	<clipPath id="cl_61">
		<rect x="2060" y="-60" width="1920" height="8739"/>
	</clipPath>
	<g clip-path="url(#cl_61)">
		<clipPath id="cl_62">
			<path d="M3016.0198 806.95117L3028.5117 799.83453C3028.7773 799.68884 3028.7773 799.31116 3028.5117 799.16351L3016.0198 792.04883C3015.762 791.90698 3015.4438 792.091 3015.4438 792.38434L3015.4438 806.61566C3015.4438 806.909 3015.762 807.09302 3016.0198 806.95117Z" clip-rule="evenodd"/>
		</clipPath>
		<g clip-path="url(#cl_62)">
			<path transform="translate(3015.44 792)" d="M0.57592595 14.951165L13.067896 7.8345499C13.333559 7.6888433 13.333559 7.3111563 13.067896 7.1635327L0.57592595 0.048835382C0.31801969 -0.093036786 0 0.09101361 0 0.38434389L0 14.615657C0 14.908987 0.31801969 15.093038 0.57592595 14.951165Z" fill-rule="evenodd"/>
		</g>
	</g>
	<clipPath id="cl_12c">
		<rect x="2060" y="-60" width="1920" height="8739"/>
	</clipPath>
	<g clip-path="url(#cl_12c)">
		<clipPath id="cl_12e">
			<rect x="3459.7776" y="6192" width="80" height="80" rx="40" ry="40"/>
		</clipPath>
		<g clip-path="url(#cl_12e)">
			<ellipse transform="translate(3459.78 6192)" cx="40" cy="40" rx="40" ry="40"/>
		</g>
	</g>
	<clipPath id="cl_12f">
		<rect x="3067" y="-644" width="0" height="0"/>
	</clipPath>
	<g clip-path="url(#cl_12f)">
		<clipPath id="cl_1">
			<rect/>
		</clipPath>
		<g clip-path="url(#cl_1)">
			<ellipse transform="translate(3459.78 6192)" cx="40" cy="40" rx="40" ry="40"/>
		</g>
	</g>
	<clipPath id="cl_131">
		<rect x="2060" y="-60" width="1920" height="8739"/>
	</clipPath>
	<g clip-path="url(#cl_131)">
		<clipPath id="cl_132">
			<path d="M3496.3535 6239.9512L3508.8455 6232.8345C3509.1111 6232.689 3509.1111 6232.311 3508.8455 6232.1636L3496.3535 6225.0488C3496.0957 6224.9067 3495.7776 6225.0908 3495.7776 6225.3843L3495.7776 6239.6157C3495.7776 6239.9092 3496.0957 6240.0933 3496.3535 6239.9512Z" clip-rule="evenodd"/>
		</clipPath>
		<g clip-path="url(#cl_132)">
			<path transform="translate(3495.78 6225)" d="M0.57592595 14.951165L13.067896 7.8345499C13.333559 7.6888433 13.333559 7.3111563 13.067896 7.1635327L0.57592595 0.048835382C0.31801969 -0.093036786 0 0.09101361 0 0.38434389L0 14.615657C0 14.908987 0.31801969 15.093038 0.57592595 14.951165Z" fill-rule="evenodd"/>
		</g>
	</g>
	<rect fill="white" transform="translate(-60 -60)" width="1920" height="438"/>
	<clipPath id="cl_1e8">
		<rect x="-60" y="-60" width="1920" height="438"/>
	</clipPath>
	<g clip-path="url(#cl_1e8)">
		<path fill="#9747FF" transform="translate(-20 -20)" d="M0 5L0 55Q0 55.122742 0.0060227183 55.245338Q0.012045437 55.367931 0.024076365 55.490082Q0.036107291 55.612236 0.054117441 55.733646Q0.072127596 55.855061 0.096073583 55.975445Q0.12001957 56.095829 0.14984371 56.214897Q0.17966786 56.333961 0.2152983 56.451416Q0.25092873 56.568871 0.29227963 56.684441Q0.3336305 56.800011 0.38060227 56.91341Q0.42757404 57.02681 0.48005345 57.137772Q0.53253293 57.24873 0.5903936 57.356979Q0.64825428 57.465225 0.71135688 57.570507Q0.77445936 57.675789 0.84265178 57.777847Q0.91084421 57.879906 0.98396218 57.978493Q1.0570803 58.07708 1.1349477 58.171963Q1.212815 58.266846 1.2952442 58.357788Q1.3776735 58.448738 1.464466 58.53553Q1.5512584 58.622322 1.642205 58.70475Q1.7331518 58.787178 1.8280336 58.865047Q1.9229152 58.942913 2.0215034 59.016029Q2.1200914 59.089146 2.2221487 59.157337Q2.3242059 59.225533 2.4294863 59.288635Q2.5347667 59.351738 2.6430163 59.409599Q2.751266 59.467461 2.8622241 59.519939Q2.9731827 59.572418 3.0865824 59.619389Q3.1999822 59.666359 3.3155503 59.707714Q3.4311185 59.749062 3.5485766 59.784695Q3.6660345 59.820328 3.785099 59.850151Q3.9041638 59.879974 4.0245485 59.903919Q4.1449327 59.927864 4.2663474 59.945877Q4.3877621 59.96389 4.5099144 59.975922Q4.6320662 59.987953 4.7546616 59.993973Q4.8772569 60 5 60L441 60Q441.12274 60 441.24533 59.993973Q441.36792 59.987953 441.49008 59.975922Q441.61224 59.96389 441.73361 59.945877Q441.85504 59.927864 441.9754 59.903919Q442.09576 59.879974 442.21484 59.850151Q442.33392 59.820328 442.45142 59.784695Q442.56885 59.749062 442.68442 59.707714Q442.79999 59.666359 442.91339 59.619389Q443.02679 59.572418 443.13776 59.519939Q443.24872 59.467461 443.35699 59.409599Q443.46521 59.351738 443.5705 59.288635Q443.67575 59.225533 443.7778 59.157341Q443.87985 59.089149 443.97842 59.016029Q444.07703 58.942913 444.17194 58.865047Q444.26685 58.787178 444.35779 58.70475Q444.44873 58.622322 444.53552 58.53553Q444.62231 58.448738 444.70471 58.357792Q444.78717 58.266846 444.86505 58.171967Q444.9429 58.07708 445.01599 57.978493Q445.08911 57.879902 445.15732 57.777843Q445.22552 57.675785 445.2886 57.570503Q445.35175 57.465225 445.40961 57.356976Q445.46747 57.248726 445.51993 57.137768Q445.57239 57.02681 445.61938 56.91341Q445.66635 56.800011 445.7077 56.684441Q445.74908 56.568874 445.7847 56.45142Q445.82031 56.333961 445.85016 56.214897Q445.87994 56.095833 445.9039 55.975449Q445.92786 55.855064 445.94586 55.73365Q445.96387 55.612236 445.97595 55.490089Q445.98795 55.367935 445.99396 55.245338Q446 55.122742 446 55L446 5Q446 4.8772569 445.99396 4.7546616Q445.98792 4.6320662 445.97592 4.5099144Q445.96387 4.3877621 445.94586 4.2663474Q445.92786 4.1449327 445.9039 4.0245481Q445.87994 3.9041634 445.85013 3.7850986Q445.82031 3.6660342 445.78467 3.5485766Q445.74902 3.4311185 445.7077 3.3155506Q445.66632 3.1999824 445.61935 3.0865827Q445.57239 2.9731827 445.5199 2.8622246Q445.46744 2.751266 445.40958 2.6430163Q445.35172 2.5347667 445.2886 2.4294863Q445.22552 2.3242059 445.15732 2.2221487Q445.08911 2.1200914 445.01599 2.0215032Q444.9429 1.9229152 444.86505 1.8280334Q444.78717 1.7331517 444.70477 1.642205Q444.62231 1.5512584 444.53552 1.464466Q444.44873 1.3776735 444.35779 1.2952442Q444.26685 1.212815 444.17197 1.1349477Q444.07706 1.0570803 443.97845 0.98396218Q443.87985 0.91084421 443.7778 0.84265178Q443.67575 0.77445936 443.57047 0.71135676Q443.46521 0.64825428 443.35696 0.5903936Q443.24872 0.53253293 443.13773 0.48005345Q443.02676 0.42757404 442.91336 0.38060227Q442.79996 0.3336305 442.68439 0.2922796Q442.56885 0.25092873 442.45139 0.2152983Q442.33392 0.17966786 442.21484 0.14984372Q442.09576 0.12001957 441.9754 0.096073583Q441.85504 0.072127596 441.73361 0.054117441Q441.61224 0.036107291 441.49008 0.024076365Q441.36792 0.012045437 441.24533 0.0060227183Q441.12274 0 441 0L5 0Q4.8772569 0 4.7546616 0.0060227183Q4.6320662 0.012045437 4.5099144 0.024076365Q4.3877621 0.036107291 4.2663474 0.054117441Q4.1449327 0.072127596 4.0245481 0.096073583Q3.9041634 0.12001957 3.7850986 0.14984371Q3.6660342 0.17966786 3.5485766 0.2152983Q3.4311185 0.25092873 3.3155506 0.29227963Q3.1999824 0.3336305 3.0865827 0.38060227Q2.9731827 0.42757404 2.8622246 0.48005345Q2.751266 0.53253293 2.6430163 0.5903936Q2.5347667 0.64825428 2.4294863 0.71135688Q2.3242059 0.77445936 2.2221487 0.84265178Q2.1200914 0.91084421 2.0215032 0.98396218Q1.9229152 1.0570803 1.8280334 1.1349477Q1.7331517 1.212815 1.642205 1.2952442Q1.5512584 1.3776735 1.464466 1.464466Q1.3776735 1.5512584 1.2952442 1.642205Q1.212815 1.7331518 1.1349477 1.8280336Q1.0570803 1.9229152 0.98396218 2.0215034Q0.91084421 2.1200914 0.84265178 2.2221487Q0.77445936 2.3242059 0.71135676 2.4294863Q0.64825428 2.5347667 0.5903936 2.6430163Q0.53253293 2.751266 0.48005345 2.8622241Q0.42757404 2.9731827 0.38060227 3.0865824Q0.3336305 3.1999822 0.2922796 3.3155503Q0.25092873 3.4311185 0.2152983 3.5485766Q0.17966786 3.6660345 0.14984372 3.785099Q0.12001957 3.9041638 0.096073583 4.0245485Q0.072127596 4.1449327 0.054117441 4.2663474Q0.036107291 4.3877621 0.024076365 4.5099144Q0.012045437 4.6320662 0.0060227183 4.7546616Q0 4.8772569 0 5ZM5 59Q1 59 1 55L1 5Q1 1 5 1L441 1Q445 1 445 5L445 55Q445 59 441 59L5 59Z" fill-rule="evenodd"/>
	</g>
	<clipPath id="cl_1f3">
		<path d="M-20 -15L-20 35Q-20 35.122742 -19.993979 35.245338Q-19.987957 35.367935 -19.975925 35.490086Q-19.963894 35.612236 -19.945885 35.73365Q-19.927872 35.855064 -19.903927 35.975452Q-19.87998 36.095833 -19.850157 36.214897Q-19.820332 36.333961 -19.784702 36.451424Q-19.749071 36.568878 -19.70772 36.684444Q-19.666368 36.800011 -19.619396 36.913414Q-19.572426 37.026814 -19.519947 37.137775Q-19.467468 37.248734 -19.409607 37.356987Q-19.351746 37.465233 -19.288643 37.570515Q-19.22554 37.675797 -19.157347 37.777851Q-19.089155 37.87991 -19.016037 37.9785Q-18.942919 38.077087 -18.865051 38.17197Q-18.787184 38.26685 -18.704754 38.357796Q-18.622326 38.448738 -18.535534 38.535534Q-18.44874 38.622326 -18.357794 38.704754Q-18.266846 38.787186 -18.171967 38.865051Q-18.077084 38.942917 -17.978497 39.016033Q-17.879906 39.089153 -17.777849 39.157345Q-17.675793 39.22554 -17.570513 39.288639Q-17.465233 39.351746 -17.356985 39.409607Q-17.248734 39.467468 -17.137775 39.519943Q-17.026817 39.572426 -16.913416 39.619396Q-16.800018 39.66637 -16.684448 39.707722Q-16.568882 39.749073 -16.451424 39.784702Q-16.333965 39.820332 -16.214901 39.850155Q-16.095835 39.879978 -15.975451 39.903923Q-15.855066 39.927872 -15.733652 39.945885Q-15.612238 39.963894 -15.490086 39.975925Q-15.367933 39.987953 -15.245338 39.993977Q-15.122743 40 -15 40L421 40Q421.12274 40 421.24536 39.993977Q421.36795 39.987957 421.49011 39.975929Q421.61224 39.963898 421.73364 39.945885Q421.85504 39.927872 421.9754 39.903927Q422.09576 39.879982 422.21484 39.850159Q422.33392 39.820335 422.45142 39.784706Q422.56885 39.749077 422.68442 39.707726Q422.79999 39.66637 422.91339 39.619396Q423.02679 39.572426 423.13776 39.519947Q423.24872 39.467468 423.35699 39.409607Q423.46521 39.351746 423.5705 39.288639Q423.67578 39.22554 423.77783 39.157345Q423.87988 39.089153 423.97849 39.016037Q424.07709 38.942917 424.17197 38.865051Q424.26685 38.787186 424.35779 38.704758Q424.44873 38.622326 424.53552 38.535534Q424.62231 38.448738 424.70474 38.357796Q424.78717 38.26685 424.86505 38.17197Q424.9429 38.077087 425.01599 37.978497Q425.08911 37.87991 425.15732 37.777851Q425.22552 37.675797 425.28864 37.570511Q425.35175 37.465233 425.40961 37.356983Q425.46747 37.248734 425.51993 37.137772Q425.57239 37.026814 425.61935 36.913414Q425.66632 36.800011 425.70767 36.684444Q425.74902 36.568878 425.78467 36.451424Q425.82031 36.333961 425.85013 36.214897Q425.87994 36.095833 425.9039 35.975452Q425.92786 35.855064 425.94586 35.73365Q425.96387 35.612236 425.97595 35.490086Q425.98798 35.367935 425.99399 35.245338Q426 35.122742 426 35L426 -15Q426 -15.122743 425.99399 -15.245338Q425.98798 -15.367933 425.97595 -15.490086Q425.9639 -15.612238 425.94586 -15.733652Q425.92786 -15.855066 425.90393 -15.975451Q425.87997 -16.095835 425.85016 -16.214901Q425.82031 -16.333965 425.7847 -16.451424Q425.74908 -16.568882 425.7077 -16.68445Q425.66635 -16.800018 425.61938 -16.913416Q425.57239 -17.026817 425.51996 -17.137775Q425.46747 -17.248734 425.40961 -17.356983Q425.35175 -17.465233 425.28864 -17.570515Q425.22552 -17.675795 425.15735 -17.777851Q425.08914 -17.87991 425.01602 -17.978497Q424.94293 -18.077084 424.86508 -18.171967Q424.78717 -18.266846 424.70474 -18.357792Q424.62231 -18.44874 424.53552 -18.535534Q424.44873 -18.622326 424.35779 -18.704754Q424.26685 -18.787184 424.17197 -18.865051Q424.07709 -18.942919 423.97849 -19.016037Q423.87988 -19.089155 423.77783 -19.157347Q423.67578 -19.22554 423.5705 -19.288643Q423.46521 -19.351746 423.35696 -19.409607Q423.24872 -19.467468 423.13776 -19.519947Q423.02679 -19.572426 422.91339 -19.619396Q422.79999 -19.666368 422.68445 -19.70772Q422.56885 -19.749071 422.45142 -19.784702Q422.33392 -19.820332 422.21484 -19.850155Q422.09576 -19.87998 421.9754 -19.903927Q421.85504 -19.927872 421.73364 -19.945883Q421.61224 -19.963894 421.49011 -19.975925Q421.36795 -19.987955 421.24533 -19.993979Q421.12274 -20 421 -20L-15 -20Q-15.122743 -20 -15.245338 -19.993977Q-15.367933 -19.987955 -15.490086 -19.975925Q-15.612238 -19.963894 -15.733652 -19.945885Q-15.855066 -19.927872 -15.975451 -19.903927Q-16.095835 -19.87998 -16.214901 -19.850157Q-16.333965 -19.820332 -16.451424 -19.784702Q-16.568882 -19.749071 -16.68445 -19.70772Q-16.800018 -19.666368 -16.913416 -19.619396Q-17.026817 -19.572426 -17.137775 -19.519947Q-17.248734 -19.467468 -17.356983 -19.409607Q-17.465233 -19.351746 -17.570515 -19.288643Q-17.675795 -19.22554 -17.777851 -19.157347Q-17.87991 -19.089155 -17.978497 -19.016037Q-18.077084 -18.942919 -18.171967 -18.865051Q-18.266846 -18.787184 -18.357792 -18.704754Q-18.44874 -18.622326 -18.535534 -18.535534Q-18.622326 -18.44874 -18.704754 -18.357794Q-18.787184 -18.266846 -18.865051 -18.171967Q-18.942919 -18.077084 -19.016037 -17.978497Q-19.089155 -17.879906 -19.157347 -17.777849Q-19.22554 -17.675793 -19.288643 -17.570513Q-19.351746 -17.465233 -19.409607 -17.356985Q-19.467468 -17.248734 -19.519947 -17.137775Q-19.572426 -17.026817 -19.619396 -16.913416Q-19.666368 -16.800018 -19.70772 -16.684448Q-19.749071 -16.568882 -19.784702 -16.451424Q-19.820332 -16.333965 -19.850155 -16.214901Q-19.87998 -16.095835 -19.903927 -15.975451Q-19.927872 -15.855066 -19.945883 -15.733652Q-19.963894 -15.612238 -19.975925 -15.490086Q-19.987957 -15.367933 -19.993979 -15.245338Q-20 -15.122743 -20 -15Z" clip-rule="evenodd"/>
	</clipPath>
	<g clip-path="url(#cl_1f3)">
		<path fill="#D10010" transform="translate(0 4.67188)" d="M13.403502 15.31398C10.373438 15.31398 7.3433733 15.319587 4.3133087 15.311177C2.5277851 15.308374 0.89642727 14.164742 0.27415684 12.499747C0.094763562 12.023233 0.0050669187 11.529903 0.0050669187 11.022556C0.0022638987 8.7801399 -0.0061451616 6.5377226 0.0078699384 4.2953067C0.019082017 1.9379668 1.9279385 0.017898273 4.2880812 0.0094892131C9.2101841 -0.0045258878 14.132289 -0.0017228676 19.054392 0.0094892131C21.277187 0.015095253 23.155209 1.8987248 23.26733 4.1187167C23.396269 6.635829 21.487411 8.2952166 19.864464 8.6119576C19.502874 8.6820326 19.141285 8.7100639 18.77409 8.7100639C13.801533 8.7100639 8.8317766 8.710063 3.8592193 8.7184725C3.6349778 8.7184725 3.5929325 8.6512003 3.5985384 8.4465799C3.6125536 7.9196119 3.6125536 7.3898411 3.5985384 6.8628736C3.5929325 6.652647 3.6405835 6.5909801 3.8620222 6.5937829C5.908227 6.6021919 7.9572344 6.5993891 10.003439 6.5993891C12.969034 6.5993891 15.931826 6.6021929 18.897421 6.5965867C20.122341 6.5937839 21.106203 5.6407566 21.145445 4.4326549C21.18749 3.1853108 20.200825 2.1509964 18.939466 2.1341784C18.339621 2.1257694 17.736971 2.1313753 17.134321 2.1313753C12.893353 2.1313753 8.6551857 2.1313753 4.414217 2.1313753C3.2761908 2.1313753 2.39324 2.8293276 2.1718013 3.9084902C2.138165 4.0738683 2.129756 4.2476549 2.129756 4.4158363C2.1269529 6.5769649 2.12415 8.7380943 2.129756 10.899222C2.1325591 12.054067 2.8445263 12.939822 3.9292948 13.144443C4.1507335 13.186488 4.3805814 13.180881 4.607626 13.180881C10.628512 13.183683 16.646597 13.183684 22.66468 13.178079C22.891726 13.178079 22.970209 13.217319 22.9618 13.463985C22.942179 14.007771 22.944981 14.551558 22.9618 15.095344C22.967405 15.285949 22.905741 15.316782 22.731953 15.316782C19.626207 15.311176 16.514854 15.31398 13.403502 15.31398Z"/>
	</g>
	<clipPath id="cl_1f4">
		<path d="M-20 -15L-20 35Q-20 35.122742 -19.993979 35.245338Q-19.987957 35.367935 -19.975925 35.490086Q-19.963894 35.612236 -19.945885 35.73365Q-19.927872 35.855064 -19.903927 35.975452Q-19.87998 36.095833 -19.850157 36.214897Q-19.820332 36.333961 -19.784702 36.451424Q-19.749071 36.568878 -19.70772 36.684444Q-19.666368 36.800011 -19.619396 36.913414Q-19.572426 37.026814 -19.519947 37.137775Q-19.467468 37.248734 -19.409607 37.356987Q-19.351746 37.465233 -19.288643 37.570515Q-19.22554 37.675797 -19.157347 37.777851Q-19.089155 37.87991 -19.016037 37.9785Q-18.942919 38.077087 -18.865051 38.17197Q-18.787184 38.26685 -18.704754 38.357796Q-18.622326 38.448738 -18.535534 38.535534Q-18.44874 38.622326 -18.357794 38.704754Q-18.266846 38.787186 -18.171967 38.865051Q-18.077084 38.942917 -17.978497 39.016033Q-17.879906 39.089153 -17.777849 39.157345Q-17.675793 39.22554 -17.570513 39.288639Q-17.465233 39.351746 -17.356985 39.409607Q-17.248734 39.467468 -17.137775 39.519943Q-17.026817 39.572426 -16.913416 39.619396Q-16.800018 39.66637 -16.684448 39.707722Q-16.568882 39.749073 -16.451424 39.784702Q-16.333965 39.820332 -16.214901 39.850155Q-16.095835 39.879978 -15.975451 39.903923Q-15.855066 39.927872 -15.733652 39.945885Q-15.612238 39.963894 -15.490086 39.975925Q-15.367933 39.987953 -15.245338 39.993977Q-15.122743 40 -15 40L421 40Q421.12274 40 421.24536 39.993977Q421.36795 39.987957 421.49011 39.975929Q421.61224 39.963898 421.73364 39.945885Q421.85504 39.927872 421.9754 39.903927Q422.09576 39.879982 422.21484 39.850159Q422.33392 39.820335 422.45142 39.784706Q422.56885 39.749077 422.68442 39.707726Q422.79999 39.66637 422.91339 39.619396Q423.02679 39.572426 423.13776 39.519947Q423.24872 39.467468 423.35699 39.409607Q423.46521 39.351746 423.5705 39.288639Q423.67578 39.22554 423.77783 39.157345Q423.87988 39.089153 423.97849 39.016037Q424.07709 38.942917 424.17197 38.865051Q424.26685 38.787186 424.35779 38.704758Q424.44873 38.622326 424.53552 38.535534Q424.62231 38.448738 424.70474 38.357796Q424.78717 38.26685 424.86505 38.17197Q424.9429 38.077087 425.01599 37.978497Q425.08911 37.87991 425.15732 37.777851Q425.22552 37.675797 425.28864 37.570511Q425.35175 37.465233 425.40961 37.356983Q425.46747 37.248734 425.51993 37.137772Q425.57239 37.026814 425.61935 36.913414Q425.66632 36.800011 425.70767 36.684444Q425.74902 36.568878 425.78467 36.451424Q425.82031 36.333961 425.85013 36.214897Q425.87994 36.095833 425.9039 35.975452Q425.92786 35.855064 425.94586 35.73365Q425.96387 35.612236 425.97595 35.490086Q425.98798 35.367935 425.99399 35.245338Q426 35.122742 426 35L426 -15Q426 -15.122743 425.99399 -15.245338Q425.98798 -15.367933 425.97595 -15.490086Q425.9639 -15.612238 425.94586 -15.733652Q425.92786 -15.855066 425.90393 -15.975451Q425.87997 -16.095835 425.85016 -16.214901Q425.82031 -16.333965 425.7847 -16.451424Q425.74908 -16.568882 425.7077 -16.68445Q425.66635 -16.800018 425.61938 -16.913416Q425.57239 -17.026817 425.51996 -17.137775Q425.46747 -17.248734 425.40961 -17.356983Q425.35175 -17.465233 425.28864 -17.570515Q425.22552 -17.675795 425.15735 -17.777851Q425.08914 -17.87991 425.01602 -17.978497Q424.94293 -18.077084 424.86508 -18.171967Q424.78717 -18.266846 424.70474 -18.357792Q424.62231 -18.44874 424.53552 -18.535534Q424.44873 -18.622326 424.35779 -18.704754Q424.26685 -18.787184 424.17197 -18.865051Q424.07709 -18.942919 423.97849 -19.016037Q423.87988 -19.089155 423.77783 -19.157347Q423.67578 -19.22554 423.5705 -19.288643Q423.46521 -19.351746 423.35696 -19.409607Q423.24872 -19.467468 423.13776 -19.519947Q423.02679 -19.572426 422.91339 -19.619396Q422.79999 -19.666368 422.68445 -19.70772Q422.56885 -19.749071 422.45142 -19.784702Q422.33392 -19.820332 422.21484 -19.850155Q422.09576 -19.87998 421.9754 -19.903927Q421.85504 -19.927872 421.73364 -19.945883Q421.61224 -19.963894 421.49011 -19.975925Q421.36795 -19.987955 421.24533 -19.993979Q421.12274 -20 421 -20L-15 -20Q-15.122743 -20 -15.245338 -19.993977Q-15.367933 -19.987955 -15.490086 -19.975925Q-15.612238 -19.963894 -15.733652 -19.945885Q-15.855066 -19.927872 -15.975451 -19.903927Q-16.095835 -19.87998 -16.214901 -19.850157Q-16.333965 -19.820332 -16.451424 -19.784702Q-16.568882 -19.749071 -16.68445 -19.70772Q-16.800018 -19.666368 -16.913416 -19.619396Q-17.026817 -19.572426 -17.137775 -19.519947Q-17.248734 -19.467468 -17.356983 -19.409607Q-17.465233 -19.351746 -17.570515 -19.288643Q-17.675795 -19.22554 -17.777851 -19.157347Q-17.87991 -19.089155 -17.978497 -19.016037Q-18.077084 -18.942919 -18.171967 -18.865051Q-18.266846 -18.787184 -18.357792 -18.704754Q-18.44874 -18.622326 -18.535534 -18.535534Q-18.622326 -18.44874 -18.704754 -18.357794Q-18.787184 -18.266846 -18.865051 -18.171967Q-18.942919 -18.077084 -19.016037 -17.978497Q-19.089155 -17.879906 -19.157347 -17.777849Q-19.22554 -17.675793 -19.288643 -17.570513Q-19.351746 -17.465233 -19.409607 -17.356985Q-19.467468 -17.248734 -19.519947 -17.137775Q-19.572426 -17.026817 -19.619396 -16.913416Q-19.666368 -16.800018 -19.70772 -16.684448Q-19.749071 -16.568882 -19.784702 -16.451424Q-19.820332 -16.333965 -19.850155 -16.214901Q-19.87998 -16.095835 -19.903927 -15.975451Q-19.927872 -15.855066 -19.945883 -15.733652Q-19.963894 -15.612238 -19.975925 -15.490086Q-19.987957 -15.367933 -19.993979 -15.245338Q-20 -15.122743 -20 -15Z" clip-rule="evenodd"/>
	</clipPath>
	<g clip-path="url(#cl_1f4)">
		<path fill="#D10010" transform="translate(54.5569 4.66699)" d="M9.7802057 15.318506C6.7080956 15.318506 3.6387901 15.315701 0.56667966 15.324111C0.34524104 15.324111 0.30039048 15.262444 0.30599651 15.055021C0.32001162 14.502827 0.31720859 13.95063 0.30599651 13.398436C0.30319348 13.224648 0.35925627 13.182604 0.52743751 13.182604C2.0550835 13.18821 3.582727 13.185408 5.110373 13.185408C9.6204329 13.185408 14.12769 13.179801 18.634947 13.18821C19.638428 13.18821 20.381231 12.773363 20.810093 11.873593C21.474409 10.483295 20.468121 8.8154993 18.932066 8.7229996C18.786308 8.7145901 18.640549 8.7145901 18.491989 8.7145901C13.827764 8.7145901 9.1663437 8.7117872 4.5021181 8.7145901C2.6521249 8.7145901 1.2786473 7.8848958 0.44895327 6.2535381C-0.87407231 3.6551383 0.87501168 0.41484699 3.7593195 0.044848282C4.0284095 0.0084090196 4.2946968 0.0056061689 4.5609837 0.0056061689C10.556644 0.0028031487 16.552299 0.0056060404 22.54796 0C22.783415 0 22.847887 0.056060672 22.839478 0.29151437C22.819857 0.81848216 22.825462 1.3454499 22.839478 1.8752207C22.845083 2.077038 22.786217 2.1330986 22.5844 2.1330986C20.594255 2.1246896 18.604116 2.1274924 16.613972 2.1274924C12.625274 2.1274924 8.6365747 2.1302953 4.6478767 2.1246893C3.983561 2.1246893 3.3753066 2.2396131 2.8707628 2.7105205C2.1924319 3.3412001 1.9625809 4.3054399 2.2849283 5.165967C2.6128817 6.0321002 3.4257593 6.59831 4.3759832 6.6011128C6.8930955 6.606719 9.4130125 6.6039157 11.932928 6.6039157C14.200571 6.6039157 16.46541 6.5927038 18.733053 6.606719C20.524183 6.615128 21.880848 7.4364123 22.660088 9.0201187C24.16531 12.072608 21.844404 15.307293 18.845173 15.312899C15.823517 15.324111 12.801862 15.318506 9.7802057 15.318506Z"/>
	</g>
	<clipPath id="cl_1f5">
		<path d="M-20 -15L-20 35Q-20 35.122742 -19.993979 35.245338Q-19.987957 35.367935 -19.975925 35.490086Q-19.963894 35.612236 -19.945885 35.73365Q-19.927872 35.855064 -19.903927 35.975452Q-19.87998 36.095833 -19.850157 36.214897Q-19.820332 36.333961 -19.784702 36.451424Q-19.749071 36.568878 -19.70772 36.684444Q-19.666368 36.800011 -19.619396 36.913414Q-19.572426 37.026814 -19.519947 37.137775Q-19.467468 37.248734 -19.409607 37.356987Q-19.351746 37.465233 -19.288643 37.570515Q-19.22554 37.675797 -19.157347 37.777851Q-19.089155 37.87991 -19.016037 37.9785Q-18.942919 38.077087 -18.865051 38.17197Q-18.787184 38.26685 -18.704754 38.357796Q-18.622326 38.448738 -18.535534 38.535534Q-18.44874 38.622326 -18.357794 38.704754Q-18.266846 38.787186 -18.171967 38.865051Q-18.077084 38.942917 -17.978497 39.016033Q-17.879906 39.089153 -17.777849 39.157345Q-17.675793 39.22554 -17.570513 39.288639Q-17.465233 39.351746 -17.356985 39.409607Q-17.248734 39.467468 -17.137775 39.519943Q-17.026817 39.572426 -16.913416 39.619396Q-16.800018 39.66637 -16.684448 39.707722Q-16.568882 39.749073 -16.451424 39.784702Q-16.333965 39.820332 -16.214901 39.850155Q-16.095835 39.879978 -15.975451 39.903923Q-15.855066 39.927872 -15.733652 39.945885Q-15.612238 39.963894 -15.490086 39.975925Q-15.367933 39.987953 -15.245338 39.993977Q-15.122743 40 -15 40L421 40Q421.12274 40 421.24536 39.993977Q421.36795 39.987957 421.49011 39.975929Q421.61224 39.963898 421.73364 39.945885Q421.85504 39.927872 421.9754 39.903927Q422.09576 39.879982 422.21484 39.850159Q422.33392 39.820335 422.45142 39.784706Q422.56885 39.749077 422.68442 39.707726Q422.79999 39.66637 422.91339 39.619396Q423.02679 39.572426 423.13776 39.519947Q423.24872 39.467468 423.35699 39.409607Q423.46521 39.351746 423.5705 39.288639Q423.67578 39.22554 423.77783 39.157345Q423.87988 39.089153 423.97849 39.016037Q424.07709 38.942917 424.17197 38.865051Q424.26685 38.787186 424.35779 38.704758Q424.44873 38.622326 424.53552 38.535534Q424.62231 38.448738 424.70474 38.357796Q424.78717 38.26685 424.86505 38.17197Q424.9429 38.077087 425.01599 37.978497Q425.08911 37.87991 425.15732 37.777851Q425.22552 37.675797 425.28864 37.570511Q425.35175 37.465233 425.40961 37.356983Q425.46747 37.248734 425.51993 37.137772Q425.57239 37.026814 425.61935 36.913414Q425.66632 36.800011 425.70767 36.684444Q425.74902 36.568878 425.78467 36.451424Q425.82031 36.333961 425.85013 36.214897Q425.87994 36.095833 425.9039 35.975452Q425.92786 35.855064 425.94586 35.73365Q425.96387 35.612236 425.97595 35.490086Q425.98798 35.367935 425.99399 35.245338Q426 35.122742 426 35L426 -15Q426 -15.122743 425.99399 -15.245338Q425.98798 -15.367933 425.97595 -15.490086Q425.9639 -15.612238 425.94586 -15.733652Q425.92786 -15.855066 425.90393 -15.975451Q425.87997 -16.095835 425.85016 -16.214901Q425.82031 -16.333965 425.7847 -16.451424Q425.74908 -16.568882 425.7077 -16.68445Q425.66635 -16.800018 425.61938 -16.913416Q425.57239 -17.026817 425.51996 -17.137775Q425.46747 -17.248734 425.40961 -17.356983Q425.35175 -17.465233 425.28864 -17.570515Q425.22552 -17.675795 425.15735 -17.777851Q425.08914 -17.87991 425.01602 -17.978497Q424.94293 -18.077084 424.86508 -18.171967Q424.78717 -18.266846 424.70474 -18.357792Q424.62231 -18.44874 424.53552 -18.535534Q424.44873 -18.622326 424.35779 -18.704754Q424.26685 -18.787184 424.17197 -18.865051Q424.07709 -18.942919 423.97849 -19.016037Q423.87988 -19.089155 423.77783 -19.157347Q423.67578 -19.22554 423.5705 -19.288643Q423.46521 -19.351746 423.35696 -19.409607Q423.24872 -19.467468 423.13776 -19.519947Q423.02679 -19.572426 422.91339 -19.619396Q422.79999 -19.666368 422.68445 -19.70772Q422.56885 -19.749071 422.45142 -19.784702Q422.33392 -19.820332 422.21484 -19.850155Q422.09576 -19.87998 421.9754 -19.903927Q421.85504 -19.927872 421.73364 -19.945883Q421.61224 -19.963894 421.49011 -19.975925Q421.36795 -19.987955 421.24533 -19.993979Q421.12274 -20 421 -20L-15 -20Q-15.122743 -20 -15.245338 -19.993977Q-15.367933 -19.987955 -15.490086 -19.975925Q-15.612238 -19.963894 -15.733652 -19.945885Q-15.855066 -19.927872 -15.975451 -19.903927Q-16.095835 -19.87998 -16.214901 -19.850157Q-16.333965 -19.820332 -16.451424 -19.784702Q-16.568882 -19.749071 -16.68445 -19.70772Q-16.800018 -19.666368 -16.913416 -19.619396Q-17.026817 -19.572426 -17.137775 -19.519947Q-17.248734 -19.467468 -17.356983 -19.409607Q-17.465233 -19.351746 -17.570515 -19.288643Q-17.675795 -19.22554 -17.777851 -19.157347Q-17.87991 -19.089155 -17.978497 -19.016037Q-18.077084 -18.942919 -18.171967 -18.865051Q-18.266846 -18.787184 -18.357792 -18.704754Q-18.44874 -18.622326 -18.535534 -18.535534Q-18.622326 -18.44874 -18.704754 -18.357794Q-18.787184 -18.266846 -18.865051 -18.171967Q-18.942919 -18.077084 -19.016037 -17.978497Q-19.089155 -17.879906 -19.157347 -17.777849Q-19.22554 -17.675793 -19.288643 -17.570513Q-19.351746 -17.465233 -19.409607 -17.356985Q-19.467468 -17.248734 -19.519947 -17.137775Q-19.572426 -17.026817 -19.619396 -16.913416Q-19.666368 -16.800018 -19.70772 -16.684448Q-19.749071 -16.568882 -19.784702 -16.451424Q-19.820332 -16.333965 -19.850155 -16.214901Q-19.87998 -16.095835 -19.903927 -15.975451Q-19.927872 -15.855066 -19.945883 -15.733652Q-19.963894 -15.612238 -19.975925 -15.490086Q-19.987957 -15.367933 -19.993979 -15.245338Q-20 -15.122743 -20 -15Z" clip-rule="evenodd"/>
	</clipPath>
	<g clip-path="url(#cl_1f5)">
		<path fill="#D10010" transform="translate(27.457 4.68457)" d="M11.627863 2.1215856C9.2480984 2.1215856 6.8683343 2.1496155 4.4885702 2.1103733C3.1627417 2.087949 2.1060021 3.125067 2.1228201 4.4621077C2.1536534 6.6232367 2.1256235 8.7843647 2.1340325 10.94269C2.1368356 12.038671 2.8600154 12.910411 3.9195571 13.131849C4.1437988 13.179501 4.3708439 13.171091 4.6006913 13.171091C9.2733269 13.171091 13.943157 13.173895 18.612989 13.165485C18.862457 13.165485 18.926928 13.229954 18.915716 13.473817C18.896095 14.009193 18.901699 14.544571 18.91291 15.08275C18.918516 15.26775 18.868063 15.309796 18.685867 15.309796C16.583603 15.304191 14.478536 15.306993 12.373467 15.306993C9.6769619 15.306993 6.980454 15.312598 4.2839484 15.304189C2.4956214 15.295779 0.85865903 14.118512 0.25600961 12.439503C0.071010262 11.929353 0.0065403804 11.399582 0.0037373602 10.861403C0.0037373602 8.7255011 -0.0046717003 6.5895991 0.0037373602 4.4536977C0.012146421 2.3458264 1.3267628 0.6219694 3.2860739 0.12583484C3.5944061 0.047350265 3.9055409 0.0025017965 4.2250853 0.0025017965C9.1724167 0.0025017965 14.119748 -0.005907136 19.064276 0.0081079658C21.245026 0.013714006 23.134262 1.8609042 23.237974 4.0416541C23.24358 4.1705933 23.246382 4.2995324 23.246382 4.4312744C23.246382 7.971489 23.24358 11.514505 23.251989 15.05472C23.251989 15.276158 23.190321 15.321007 22.982897 15.315401C22.447519 15.298583 21.909344 15.301386 21.373966 15.315401C21.177755 15.321007 21.135708 15.259341 21.135708 15.074342C21.141314 11.548142 21.138512 8.024745 21.141315 4.4985456C21.141315 4.0332441 21.076845 3.5903683 20.816164 3.1979454C20.353666 2.4999933 19.708969 2.1271913 18.856852 2.1299944C16.45186 2.1243885 14.038461 2.1215856 11.627863 2.1215856Z"/>
	</g>
	<clipPath id="cl_1f6">
		<path d="M-20 -15L-20 35Q-20 35.122742 -19.993979 35.245338Q-19.987957 35.367935 -19.975925 35.490086Q-19.963894 35.612236 -19.945885 35.73365Q-19.927872 35.855064 -19.903927 35.975452Q-19.87998 36.095833 -19.850157 36.214897Q-19.820332 36.333961 -19.784702 36.451424Q-19.749071 36.568878 -19.70772 36.684444Q-19.666368 36.800011 -19.619396 36.913414Q-19.572426 37.026814 -19.519947 37.137775Q-19.467468 37.248734 -19.409607 37.356987Q-19.351746 37.465233 -19.288643 37.570515Q-19.22554 37.675797 -19.157347 37.777851Q-19.089155 37.87991 -19.016037 37.9785Q-18.942919 38.077087 -18.865051 38.17197Q-18.787184 38.26685 -18.704754 38.357796Q-18.622326 38.448738 -18.535534 38.535534Q-18.44874 38.622326 -18.357794 38.704754Q-18.266846 38.787186 -18.171967 38.865051Q-18.077084 38.942917 -17.978497 39.016033Q-17.879906 39.089153 -17.777849 39.157345Q-17.675793 39.22554 -17.570513 39.288639Q-17.465233 39.351746 -17.356985 39.409607Q-17.248734 39.467468 -17.137775 39.519943Q-17.026817 39.572426 -16.913416 39.619396Q-16.800018 39.66637 -16.684448 39.707722Q-16.568882 39.749073 -16.451424 39.784702Q-16.333965 39.820332 -16.214901 39.850155Q-16.095835 39.879978 -15.975451 39.903923Q-15.855066 39.927872 -15.733652 39.945885Q-15.612238 39.963894 -15.490086 39.975925Q-15.367933 39.987953 -15.245338 39.993977Q-15.122743 40 -15 40L421 40Q421.12274 40 421.24536 39.993977Q421.36795 39.987957 421.49011 39.975929Q421.61224 39.963898 421.73364 39.945885Q421.85504 39.927872 421.9754 39.903927Q422.09576 39.879982 422.21484 39.850159Q422.33392 39.820335 422.45142 39.784706Q422.56885 39.749077 422.68442 39.707726Q422.79999 39.66637 422.91339 39.619396Q423.02679 39.572426 423.13776 39.519947Q423.24872 39.467468 423.35699 39.409607Q423.46521 39.351746 423.5705 39.288639Q423.67578 39.22554 423.77783 39.157345Q423.87988 39.089153 423.97849 39.016037Q424.07709 38.942917 424.17197 38.865051Q424.26685 38.787186 424.35779 38.704758Q424.44873 38.622326 424.53552 38.535534Q424.62231 38.448738 424.70474 38.357796Q424.78717 38.26685 424.86505 38.17197Q424.9429 38.077087 425.01599 37.978497Q425.08911 37.87991 425.15732 37.777851Q425.22552 37.675797 425.28864 37.570511Q425.35175 37.465233 425.40961 37.356983Q425.46747 37.248734 425.51993 37.137772Q425.57239 37.026814 425.61935 36.913414Q425.66632 36.800011 425.70767 36.684444Q425.74902 36.568878 425.78467 36.451424Q425.82031 36.333961 425.85013 36.214897Q425.87994 36.095833 425.9039 35.975452Q425.92786 35.855064 425.94586 35.73365Q425.96387 35.612236 425.97595 35.490086Q425.98798 35.367935 425.99399 35.245338Q426 35.122742 426 35L426 -15Q426 -15.122743 425.99399 -15.245338Q425.98798 -15.367933 425.97595 -15.490086Q425.9639 -15.612238 425.94586 -15.733652Q425.92786 -15.855066 425.90393 -15.975451Q425.87997 -16.095835 425.85016 -16.214901Q425.82031 -16.333965 425.7847 -16.451424Q425.74908 -16.568882 425.7077 -16.68445Q425.66635 -16.800018 425.61938 -16.913416Q425.57239 -17.026817 425.51996 -17.137775Q425.46747 -17.248734 425.40961 -17.356983Q425.35175 -17.465233 425.28864 -17.570515Q425.22552 -17.675795 425.15735 -17.777851Q425.08914 -17.87991 425.01602 -17.978497Q424.94293 -18.077084 424.86508 -18.171967Q424.78717 -18.266846 424.70474 -18.357792Q424.62231 -18.44874 424.53552 -18.535534Q424.44873 -18.622326 424.35779 -18.704754Q424.26685 -18.787184 424.17197 -18.865051Q424.07709 -18.942919 423.97849 -19.016037Q423.87988 -19.089155 423.77783 -19.157347Q423.67578 -19.22554 423.5705 -19.288643Q423.46521 -19.351746 423.35696 -19.409607Q423.24872 -19.467468 423.13776 -19.519947Q423.02679 -19.572426 422.91339 -19.619396Q422.79999 -19.666368 422.68445 -19.70772Q422.56885 -19.749071 422.45142 -19.784702Q422.33392 -19.820332 422.21484 -19.850155Q422.09576 -19.87998 421.9754 -19.903927Q421.85504 -19.927872 421.73364 -19.945883Q421.61224 -19.963894 421.49011 -19.975925Q421.36795 -19.987955 421.24533 -19.993979Q421.12274 -20 421 -20L-15 -20Q-15.122743 -20 -15.245338 -19.993977Q-15.367933 -19.987955 -15.490086 -19.975925Q-15.612238 -19.963894 -15.733652 -19.945885Q-15.855066 -19.927872 -15.975451 -19.903927Q-16.095835 -19.87998 -16.214901 -19.850157Q-16.333965 -19.820332 -16.451424 -19.784702Q-16.568882 -19.749071 -16.68445 -19.70772Q-16.800018 -19.666368 -16.913416 -19.619396Q-17.026817 -19.572426 -17.137775 -19.519947Q-17.248734 -19.467468 -17.356983 -19.409607Q-17.465233 -19.351746 -17.570515 -19.288643Q-17.675795 -19.22554 -17.777851 -19.157347Q-17.87991 -19.089155 -17.978497 -19.016037Q-18.077084 -18.942919 -18.171967 -18.865051Q-18.266846 -18.787184 -18.357792 -18.704754Q-18.44874 -18.622326 -18.535534 -18.535534Q-18.622326 -18.44874 -18.704754 -18.357794Q-18.787184 -18.266846 -18.865051 -18.171967Q-18.942919 -18.077084 -19.016037 -17.978497Q-19.089155 -17.879906 -19.157347 -17.777849Q-19.22554 -17.675793 -19.288643 -17.570513Q-19.351746 -17.465233 -19.409607 -17.356985Q-19.467468 -17.248734 -19.519947 -17.137775Q-19.572426 -17.026817 -19.619396 -16.913416Q-19.666368 -16.800018 -19.70772 -16.684448Q-19.749071 -16.568882 -19.784702 -16.451424Q-19.820332 -16.333965 -19.850155 -16.214901Q-19.87998 -16.095835 -19.903927 -15.975451Q-19.927872 -15.855066 -19.945883 -15.733652Q-19.963894 -15.612238 -19.975925 -15.490086Q-19.987957 -15.367933 -19.993979 -15.245338Q-20 -15.122743 -20 -15Z" clip-rule="evenodd"/>
	</clipPath>
	<g clip-path="url(#cl_1f6)">
		<path fill="#D10010" transform="translate(81.4578 4.66992)" d="M9.9312115 15.316051C6.8591013 15.316051 3.7897959 15.313246 0.71768534 15.321655C0.52147388 15.321655 0.45419767 15.28802 0.45980373 15.07499C0.47662187 14.531204 0.47942486 13.984614 0.45980373 13.440828C0.45139468 13.213783 0.52707654 13.180148 0.73169702 13.180148C3.8766861 13.185754 7.0188694 13.185754 10.163858 13.185754C13.056576 13.185754 15.949291 13.182951 18.842009 13.185754C19.828672 13.185754 20.523827 12.728861 20.958294 11.857121C21.076021 11.624471 21.137684 11.369396 21.137684 11.105912C21.14329 10.365914 21.13769 9.6287212 21.143295 8.8887234C21.146099 8.7485723 21.098442 8.7121334 20.963898 8.7121334C20.445339 8.7177391 19.923977 8.7149363 19.405418 8.7149363C14.432859 8.7149363 9.4603014 8.7149363 4.4877429 8.7149363C2.5536587 8.7149363 1.1829847 7.8123631 0.34768462 6.0857024C0.092609763 5.5587344 0.0085187797 4.9869194 0.0057157595 4.4066939C0.0057157595 3.0079868 0.0085133053 1.6120822 0.00010424348 0.21337509C-0.002698777 0.039587826 0.050564095 -0.0024575535 0.21594229 0.0003454668C0.7849555 0.011557548 1.3539677 0.011557548 1.9229808 0.0003454668C2.1051772 -0.0024575535 2.1304073 0.062012181 2.1276042 0.22178435C2.1219983 1.5784463 2.1247985 2.9351077 2.1247985 4.2917695C2.1247985 5.6400223 3.0778263 6.5986557 4.4204731 6.5986557C9.9143934 6.5986557 15.40551 6.5986557 20.896627 6.6042619C21.106853 6.6042619 21.146099 6.5453987 21.143295 6.3491874C21.13769 4.3169975 21.140491 2.2876101 21.134886 0.2554203C21.134886 0.056405842 21.176926 -0.0052605742 21.38435 0.0003454668C21.936544 0.01716359 22.488743 0.011557613 23.040937 0.0031485516C23.186695 0.00034553115 23.251163 0.025572866 23.251163 0.19655712C23.245558 3.8040445 23.262373 7.4115314 23.239948 11.019019C23.225933 13.124087 21.771168 14.83393 19.719357 15.243171C19.408222 15.304837 19.09148 15.316051 18.774738 15.316051C15.828764 15.316051 12.87999 15.316051 9.9312115 15.316051Z"/>
	</g>
	<clipPath id="cl_1f7">
		<path d="M-20 -15L-20 35Q-20 35.122742 -19.993979 35.245338Q-19.987957 35.367935 -19.975925 35.490086Q-19.963894 35.612236 -19.945885 35.73365Q-19.927872 35.855064 -19.903927 35.975452Q-19.87998 36.095833 -19.850157 36.214897Q-19.820332 36.333961 -19.784702 36.451424Q-19.749071 36.568878 -19.70772 36.684444Q-19.666368 36.800011 -19.619396 36.913414Q-19.572426 37.026814 -19.519947 37.137775Q-19.467468 37.248734 -19.409607 37.356987Q-19.351746 37.465233 -19.288643 37.570515Q-19.22554 37.675797 -19.157347 37.777851Q-19.089155 37.87991 -19.016037 37.9785Q-18.942919 38.077087 -18.865051 38.17197Q-18.787184 38.26685 -18.704754 38.357796Q-18.622326 38.448738 -18.535534 38.535534Q-18.44874 38.622326 -18.357794 38.704754Q-18.266846 38.787186 -18.171967 38.865051Q-18.077084 38.942917 -17.978497 39.016033Q-17.879906 39.089153 -17.777849 39.157345Q-17.675793 39.22554 -17.570513 39.288639Q-17.465233 39.351746 -17.356985 39.409607Q-17.248734 39.467468 -17.137775 39.519943Q-17.026817 39.572426 -16.913416 39.619396Q-16.800018 39.66637 -16.684448 39.707722Q-16.568882 39.749073 -16.451424 39.784702Q-16.333965 39.820332 -16.214901 39.850155Q-16.095835 39.879978 -15.975451 39.903923Q-15.855066 39.927872 -15.733652 39.945885Q-15.612238 39.963894 -15.490086 39.975925Q-15.367933 39.987953 -15.245338 39.993977Q-15.122743 40 -15 40L421 40Q421.12274 40 421.24536 39.993977Q421.36795 39.987957 421.49011 39.975929Q421.61224 39.963898 421.73364 39.945885Q421.85504 39.927872 421.9754 39.903927Q422.09576 39.879982 422.21484 39.850159Q422.33392 39.820335 422.45142 39.784706Q422.56885 39.749077 422.68442 39.707726Q422.79999 39.66637 422.91339 39.619396Q423.02679 39.572426 423.13776 39.519947Q423.24872 39.467468 423.35699 39.409607Q423.46521 39.351746 423.5705 39.288639Q423.67578 39.22554 423.77783 39.157345Q423.87988 39.089153 423.97849 39.016037Q424.07709 38.942917 424.17197 38.865051Q424.26685 38.787186 424.35779 38.704758Q424.44873 38.622326 424.53552 38.535534Q424.62231 38.448738 424.70474 38.357796Q424.78717 38.26685 424.86505 38.17197Q424.9429 38.077087 425.01599 37.978497Q425.08911 37.87991 425.15732 37.777851Q425.22552 37.675797 425.28864 37.570511Q425.35175 37.465233 425.40961 37.356983Q425.46747 37.248734 425.51993 37.137772Q425.57239 37.026814 425.61935 36.913414Q425.66632 36.800011 425.70767 36.684444Q425.74902 36.568878 425.78467 36.451424Q425.82031 36.333961 425.85013 36.214897Q425.87994 36.095833 425.9039 35.975452Q425.92786 35.855064 425.94586 35.73365Q425.96387 35.612236 425.97595 35.490086Q425.98798 35.367935 425.99399 35.245338Q426 35.122742 426 35L426 -15Q426 -15.122743 425.99399 -15.245338Q425.98798 -15.367933 425.97595 -15.490086Q425.9639 -15.612238 425.94586 -15.733652Q425.92786 -15.855066 425.90393 -15.975451Q425.87997 -16.095835 425.85016 -16.214901Q425.82031 -16.333965 425.7847 -16.451424Q425.74908 -16.568882 425.7077 -16.68445Q425.66635 -16.800018 425.61938 -16.913416Q425.57239 -17.026817 425.51996 -17.137775Q425.46747 -17.248734 425.40961 -17.356983Q425.35175 -17.465233 425.28864 -17.570515Q425.22552 -17.675795 425.15735 -17.777851Q425.08914 -17.87991 425.01602 -17.978497Q424.94293 -18.077084 424.86508 -18.171967Q424.78717 -18.266846 424.70474 -18.357792Q424.62231 -18.44874 424.53552 -18.535534Q424.44873 -18.622326 424.35779 -18.704754Q424.26685 -18.787184 424.17197 -18.865051Q424.07709 -18.942919 423.97849 -19.016037Q423.87988 -19.089155 423.77783 -19.157347Q423.67578 -19.22554 423.5705 -19.288643Q423.46521 -19.351746 423.35696 -19.409607Q423.24872 -19.467468 423.13776 -19.519947Q423.02679 -19.572426 422.91339 -19.619396Q422.79999 -19.666368 422.68445 -19.70772Q422.56885 -19.749071 422.45142 -19.784702Q422.33392 -19.820332 422.21484 -19.850155Q422.09576 -19.87998 421.9754 -19.903927Q421.85504 -19.927872 421.73364 -19.945883Q421.61224 -19.963894 421.49011 -19.975925Q421.36795 -19.987955 421.24533 -19.993979Q421.12274 -20 421 -20L-15 -20Q-15.122743 -20 -15.245338 -19.993977Q-15.367933 -19.987955 -15.490086 -19.975925Q-15.612238 -19.963894 -15.733652 -19.945885Q-15.855066 -19.927872 -15.975451 -19.903927Q-16.095835 -19.87998 -16.214901 -19.850157Q-16.333965 -19.820332 -16.451424 -19.784702Q-16.568882 -19.749071 -16.68445 -19.70772Q-16.800018 -19.666368 -16.913416 -19.619396Q-17.026817 -19.572426 -17.137775 -19.519947Q-17.248734 -19.467468 -17.356983 -19.409607Q-17.465233 -19.351746 -17.570515 -19.288643Q-17.675795 -19.22554 -17.777851 -19.157347Q-17.87991 -19.089155 -17.978497 -19.016037Q-18.077084 -18.942919 -18.171967 -18.865051Q-18.266846 -18.787184 -18.357792 -18.704754Q-18.44874 -18.622326 -18.535534 -18.535534Q-18.622326 -18.44874 -18.704754 -18.357794Q-18.787184 -18.266846 -18.865051 -18.171967Q-18.942919 -18.077084 -19.016037 -17.978497Q-19.089155 -17.879906 -19.157347 -17.777849Q-19.22554 -17.675793 -19.288643 -17.570513Q-19.351746 -17.465233 -19.409607 -17.356985Q-19.467468 -17.248734 -19.519947 -17.137775Q-19.572426 -17.026817 -19.619396 -16.913416Q-19.666368 -16.800018 -19.70772 -16.684448Q-19.749071 -16.568882 -19.784702 -16.451424Q-19.820332 -16.333965 -19.850155 -16.214901Q-19.87998 -16.095835 -19.903927 -15.975451Q-19.927872 -15.855066 -19.945883 -15.733652Q-19.963894 -15.612238 -19.975925 -15.490086Q-19.987957 -15.367933 -19.993979 -15.245338Q-20 -15.122743 -20 -15Z" clip-rule="evenodd"/>
	</clipPath>
	<g clip-path="url(#cl_1f7)">
		<path fill="#666" transform="translate(162.836 4.67285)" d="M13.569126 15.312902C10.497016 15.312902 7.4276934 15.315705 4.3555832 15.312902C2.4663477 15.3101 0.75651455 14.051542 0.19591053 12.246397C0.064168572 11.825944 0.0053072129 11.388672 0.0053072129 10.951401C-0.00029882742 8.7566357 -0.0031018476 6.5646734 0.0053072129 4.3699083C0.013716273 2.2564309 1.4768941 0.48492262 3.5455232 0.072878599C3.7585528 0.030833289 3.979979 0.0084092543 4.1986146 0.0084092543C10.471773 0.0056062341 16.742132 0.0056060408 23.015291 0C23.2087 0 23.264763 0.050454602 23.261959 0.24386302C23.247944 0.78764904 23.24514 1.331435 23.261959 1.8752209C23.267565 2.0994625 23.191889 2.1415074 22.987268 2.1415074C18.073574 2.1359015 13.15708 2.1359019 8.2405825 2.1359019C6.9652081 2.1359019 5.6870236 2.1667349 4.4144526 2.1274927C3.1979418 2.0882504 2.1215806 3.1337769 2.1355958 4.4063482C2.1608229 6.5506592 2.1720321 8.697773 2.1327899 10.83928C2.1103656 12.097836 3.1222665 13.191014 4.4733224 13.185409C10.61474 13.157378 16.758957 13.174196 22.900375 13.174196C23.301207 13.174196 23.253561 13.129349 23.256365 13.518969C23.259169 14.023512 23.24514 14.528056 23.261959 15.029797C23.267565 15.251235 23.208702 15.312902 22.981657 15.312902C19.842274 15.3101 16.705706 15.312902 13.569126 15.312902Z"/>
	</g>
	<clipPath id="cl_1f8">
		<path d="M-20 -15L-20 35Q-20 35.122742 -19.993979 35.245338Q-19.987957 35.367935 -19.975925 35.490086Q-19.963894 35.612236 -19.945885 35.73365Q-19.927872 35.855064 -19.903927 35.975452Q-19.87998 36.095833 -19.850157 36.214897Q-19.820332 36.333961 -19.784702 36.451424Q-19.749071 36.568878 -19.70772 36.684444Q-19.666368 36.800011 -19.619396 36.913414Q-19.572426 37.026814 -19.519947 37.137775Q-19.467468 37.248734 -19.409607 37.356987Q-19.351746 37.465233 -19.288643 37.570515Q-19.22554 37.675797 -19.157347 37.777851Q-19.089155 37.87991 -19.016037 37.9785Q-18.942919 38.077087 -18.865051 38.17197Q-18.787184 38.26685 -18.704754 38.357796Q-18.622326 38.448738 -18.535534 38.535534Q-18.44874 38.622326 -18.357794 38.704754Q-18.266846 38.787186 -18.171967 38.865051Q-18.077084 38.942917 -17.978497 39.016033Q-17.879906 39.089153 -17.777849 39.157345Q-17.675793 39.22554 -17.570513 39.288639Q-17.465233 39.351746 -17.356985 39.409607Q-17.248734 39.467468 -17.137775 39.519943Q-17.026817 39.572426 -16.913416 39.619396Q-16.800018 39.66637 -16.684448 39.707722Q-16.568882 39.749073 -16.451424 39.784702Q-16.333965 39.820332 -16.214901 39.850155Q-16.095835 39.879978 -15.975451 39.903923Q-15.855066 39.927872 -15.733652 39.945885Q-15.612238 39.963894 -15.490086 39.975925Q-15.367933 39.987953 -15.245338 39.993977Q-15.122743 40 -15 40L421 40Q421.12274 40 421.24536 39.993977Q421.36795 39.987957 421.49011 39.975929Q421.61224 39.963898 421.73364 39.945885Q421.85504 39.927872 421.9754 39.903927Q422.09576 39.879982 422.21484 39.850159Q422.33392 39.820335 422.45142 39.784706Q422.56885 39.749077 422.68442 39.707726Q422.79999 39.66637 422.91339 39.619396Q423.02679 39.572426 423.13776 39.519947Q423.24872 39.467468 423.35699 39.409607Q423.46521 39.351746 423.5705 39.288639Q423.67578 39.22554 423.77783 39.157345Q423.87988 39.089153 423.97849 39.016037Q424.07709 38.942917 424.17197 38.865051Q424.26685 38.787186 424.35779 38.704758Q424.44873 38.622326 424.53552 38.535534Q424.62231 38.448738 424.70474 38.357796Q424.78717 38.26685 424.86505 38.17197Q424.9429 38.077087 425.01599 37.978497Q425.08911 37.87991 425.15732 37.777851Q425.22552 37.675797 425.28864 37.570511Q425.35175 37.465233 425.40961 37.356983Q425.46747 37.248734 425.51993 37.137772Q425.57239 37.026814 425.61935 36.913414Q425.66632 36.800011 425.70767 36.684444Q425.74902 36.568878 425.78467 36.451424Q425.82031 36.333961 425.85013 36.214897Q425.87994 36.095833 425.9039 35.975452Q425.92786 35.855064 425.94586 35.73365Q425.96387 35.612236 425.97595 35.490086Q425.98798 35.367935 425.99399 35.245338Q426 35.122742 426 35L426 -15Q426 -15.122743 425.99399 -15.245338Q425.98798 -15.367933 425.97595 -15.490086Q425.9639 -15.612238 425.94586 -15.733652Q425.92786 -15.855066 425.90393 -15.975451Q425.87997 -16.095835 425.85016 -16.214901Q425.82031 -16.333965 425.7847 -16.451424Q425.74908 -16.568882 425.7077 -16.68445Q425.66635 -16.800018 425.61938 -16.913416Q425.57239 -17.026817 425.51996 -17.137775Q425.46747 -17.248734 425.40961 -17.356983Q425.35175 -17.465233 425.28864 -17.570515Q425.22552 -17.675795 425.15735 -17.777851Q425.08914 -17.87991 425.01602 -17.978497Q424.94293 -18.077084 424.86508 -18.171967Q424.78717 -18.266846 424.70474 -18.357792Q424.62231 -18.44874 424.53552 -18.535534Q424.44873 -18.622326 424.35779 -18.704754Q424.26685 -18.787184 424.17197 -18.865051Q424.07709 -18.942919 423.97849 -19.016037Q423.87988 -19.089155 423.77783 -19.157347Q423.67578 -19.22554 423.5705 -19.288643Q423.46521 -19.351746 423.35696 -19.409607Q423.24872 -19.467468 423.13776 -19.519947Q423.02679 -19.572426 422.91339 -19.619396Q422.79999 -19.666368 422.68445 -19.70772Q422.56885 -19.749071 422.45142 -19.784702Q422.33392 -19.820332 422.21484 -19.850155Q422.09576 -19.87998 421.9754 -19.903927Q421.85504 -19.927872 421.73364 -19.945883Q421.61224 -19.963894 421.49011 -19.975925Q421.36795 -19.987955 421.24533 -19.993979Q421.12274 -20 421 -20L-15 -20Q-15.122743 -20 -15.245338 -19.993977Q-15.367933 -19.987955 -15.490086 -19.975925Q-15.612238 -19.963894 -15.733652 -19.945885Q-15.855066 -19.927872 -15.975451 -19.903927Q-16.095835 -19.87998 -16.214901 -19.850157Q-16.333965 -19.820332 -16.451424 -19.784702Q-16.568882 -19.749071 -16.68445 -19.70772Q-16.800018 -19.666368 -16.913416 -19.619396Q-17.026817 -19.572426 -17.137775 -19.519947Q-17.248734 -19.467468 -17.356983 -19.409607Q-17.465233 -19.351746 -17.570515 -19.288643Q-17.675795 -19.22554 -17.777851 -19.157347Q-17.87991 -19.089155 -17.978497 -19.016037Q-18.077084 -18.942919 -18.171967 -18.865051Q-18.266846 -18.787184 -18.357792 -18.704754Q-18.44874 -18.622326 -18.535534 -18.535534Q-18.622326 -18.44874 -18.704754 -18.357794Q-18.787184 -18.266846 -18.865051 -18.171967Q-18.942919 -18.077084 -19.016037 -17.978497Q-19.089155 -17.879906 -19.157347 -17.777849Q-19.22554 -17.675793 -19.288643 -17.570513Q-19.351746 -17.465233 -19.409607 -17.356985Q-19.467468 -17.248734 -19.519947 -17.137775Q-19.572426 -17.026817 -19.619396 -16.913416Q-19.666368 -16.800018 -19.70772 -16.684448Q-19.749071 -16.568882 -19.784702 -16.451424Q-19.820332 -16.333965 -19.850155 -16.214901Q-19.87998 -16.095835 -19.903927 -15.975451Q-19.927872 -15.855066 -19.945883 -15.733652Q-19.963894 -15.612238 -19.975925 -15.490086Q-19.987957 -15.367933 -19.993979 -15.245338Q-20 -15.122743 -20 -15Z" clip-rule="evenodd"/>
	</clipPath>
	<g clip-path="url(#cl_1f8)">
		<path fill="#666" transform="translate(108.384 4.67285)" d="M23.25666 4.5464988C23.25666 4.2942271 23.24264 4.0447588 23.217413 3.7924869C22.990368 1.7042367 21.129164 0.01121221 19.029701 0.0056061693C15.926758 1.2852252e-07 12.821011 0.0056061693 9.7180672 0.0056061693L9.7180672 0.0028030847C6.5646696 0.0028030847 3.4140766 0.0056060408 0.26067883 0C0.067270428 0 0 0.039242119 0 0.24946865C0.0056060404 5.1883912 0.0056060404 10.127314 0 15.069038C0 15.251235 0.033629388 15.318507 0.23824988 15.318507C6.4945912 15.312901 12.750937 15.315704 19.004475 15.310099C19.5847 15.310099 20.156515 15.203584 20.677877 14.9401C22.312038 14.118814 23.228622 12.809802 23.248243 10.957006C23.276274 8.821104 23.25666 6.6852036 23.25666 4.5464988ZM19.346443 13.143363C19.189474 13.176999 19.024092 13.177 18.861517 13.177C13.370399 13.179803 7.882093 13.176999 2.390976 13.182605C2.1807494 13.182605 2.1386974 13.115332 2.1386974 12.91912C2.1443033 9.4097385 2.1443033 5.9003582 2.1386974 2.3937793C2.1386974 2.1863558 2.1975672 2.1359019 2.3993847 2.1359019C5.1855869 2.1415079 7.9717884 2.1387043 10.755188 2.1387043C13.476921 2.1387043 16.195848 2.1359015 18.917582 2.1415074C19.979927 2.1415074 20.857269 2.8366566 21.087116 3.8541532C21.131964 4.0503645 21.151588 4.2549849 21.151588 4.4568024C21.157194 6.5927038 21.157194 8.7286062 21.151588 10.864508C21.151588 12.013746 20.436817 12.916318 19.346443 13.143363Z"/>
	</g>
	<clipPath id="cl_1f9">
		<path d="M-20 -15L-20 35Q-20 35.122742 -19.993979 35.245338Q-19.987957 35.367935 -19.975925 35.490086Q-19.963894 35.612236 -19.945885 35.73365Q-19.927872 35.855064 -19.903927 35.975452Q-19.87998 36.095833 -19.850157 36.214897Q-19.820332 36.333961 -19.784702 36.451424Q-19.749071 36.568878 -19.70772 36.684444Q-19.666368 36.800011 -19.619396 36.913414Q-19.572426 37.026814 -19.519947 37.137775Q-19.467468 37.248734 -19.409607 37.356987Q-19.351746 37.465233 -19.288643 37.570515Q-19.22554 37.675797 -19.157347 37.777851Q-19.089155 37.87991 -19.016037 37.9785Q-18.942919 38.077087 -18.865051 38.17197Q-18.787184 38.26685 -18.704754 38.357796Q-18.622326 38.448738 -18.535534 38.535534Q-18.44874 38.622326 -18.357794 38.704754Q-18.266846 38.787186 -18.171967 38.865051Q-18.077084 38.942917 -17.978497 39.016033Q-17.879906 39.089153 -17.777849 39.157345Q-17.675793 39.22554 -17.570513 39.288639Q-17.465233 39.351746 -17.356985 39.409607Q-17.248734 39.467468 -17.137775 39.519943Q-17.026817 39.572426 -16.913416 39.619396Q-16.800018 39.66637 -16.684448 39.707722Q-16.568882 39.749073 -16.451424 39.784702Q-16.333965 39.820332 -16.214901 39.850155Q-16.095835 39.879978 -15.975451 39.903923Q-15.855066 39.927872 -15.733652 39.945885Q-15.612238 39.963894 -15.490086 39.975925Q-15.367933 39.987953 -15.245338 39.993977Q-15.122743 40 -15 40L421 40Q421.12274 40 421.24536 39.993977Q421.36795 39.987957 421.49011 39.975929Q421.61224 39.963898 421.73364 39.945885Q421.85504 39.927872 421.9754 39.903927Q422.09576 39.879982 422.21484 39.850159Q422.33392 39.820335 422.45142 39.784706Q422.56885 39.749077 422.68442 39.707726Q422.79999 39.66637 422.91339 39.619396Q423.02679 39.572426 423.13776 39.519947Q423.24872 39.467468 423.35699 39.409607Q423.46521 39.351746 423.5705 39.288639Q423.67578 39.22554 423.77783 39.157345Q423.87988 39.089153 423.97849 39.016037Q424.07709 38.942917 424.17197 38.865051Q424.26685 38.787186 424.35779 38.704758Q424.44873 38.622326 424.53552 38.535534Q424.62231 38.448738 424.70474 38.357796Q424.78717 38.26685 424.86505 38.17197Q424.9429 38.077087 425.01599 37.978497Q425.08911 37.87991 425.15732 37.777851Q425.22552 37.675797 425.28864 37.570511Q425.35175 37.465233 425.40961 37.356983Q425.46747 37.248734 425.51993 37.137772Q425.57239 37.026814 425.61935 36.913414Q425.66632 36.800011 425.70767 36.684444Q425.74902 36.568878 425.78467 36.451424Q425.82031 36.333961 425.85013 36.214897Q425.87994 36.095833 425.9039 35.975452Q425.92786 35.855064 425.94586 35.73365Q425.96387 35.612236 425.97595 35.490086Q425.98798 35.367935 425.99399 35.245338Q426 35.122742 426 35L426 -15Q426 -15.122743 425.99399 -15.245338Q425.98798 -15.367933 425.97595 -15.490086Q425.9639 -15.612238 425.94586 -15.733652Q425.92786 -15.855066 425.90393 -15.975451Q425.87997 -16.095835 425.85016 -16.214901Q425.82031 -16.333965 425.7847 -16.451424Q425.74908 -16.568882 425.7077 -16.68445Q425.66635 -16.800018 425.61938 -16.913416Q425.57239 -17.026817 425.51996 -17.137775Q425.46747 -17.248734 425.40961 -17.356983Q425.35175 -17.465233 425.28864 -17.570515Q425.22552 -17.675795 425.15735 -17.777851Q425.08914 -17.87991 425.01602 -17.978497Q424.94293 -18.077084 424.86508 -18.171967Q424.78717 -18.266846 424.70474 -18.357792Q424.62231 -18.44874 424.53552 -18.535534Q424.44873 -18.622326 424.35779 -18.704754Q424.26685 -18.787184 424.17197 -18.865051Q424.07709 -18.942919 423.97849 -19.016037Q423.87988 -19.089155 423.77783 -19.157347Q423.67578 -19.22554 423.5705 -19.288643Q423.46521 -19.351746 423.35696 -19.409607Q423.24872 -19.467468 423.13776 -19.519947Q423.02679 -19.572426 422.91339 -19.619396Q422.79999 -19.666368 422.68445 -19.70772Q422.56885 -19.749071 422.45142 -19.784702Q422.33392 -19.820332 422.21484 -19.850155Q422.09576 -19.87998 421.9754 -19.903927Q421.85504 -19.927872 421.73364 -19.945883Q421.61224 -19.963894 421.49011 -19.975925Q421.36795 -19.987955 421.24533 -19.993979Q421.12274 -20 421 -20L-15 -20Q-15.122743 -20 -15.245338 -19.993977Q-15.367933 -19.987955 -15.490086 -19.975925Q-15.612238 -19.963894 -15.733652 -19.945885Q-15.855066 -19.927872 -15.975451 -19.903927Q-16.095835 -19.87998 -16.214901 -19.850157Q-16.333965 -19.820332 -16.451424 -19.784702Q-16.568882 -19.749071 -16.68445 -19.70772Q-16.800018 -19.666368 -16.913416 -19.619396Q-17.026817 -19.572426 -17.137775 -19.519947Q-17.248734 -19.467468 -17.356983 -19.409607Q-17.465233 -19.351746 -17.570515 -19.288643Q-17.675795 -19.22554 -17.777851 -19.157347Q-17.87991 -19.089155 -17.978497 -19.016037Q-18.077084 -18.942919 -18.171967 -18.865051Q-18.266846 -18.787184 -18.357792 -18.704754Q-18.44874 -18.622326 -18.535534 -18.535534Q-18.622326 -18.44874 -18.704754 -18.357794Q-18.787184 -18.266846 -18.865051 -18.171967Q-18.942919 -18.077084 -19.016037 -17.978497Q-19.089155 -17.879906 -19.157347 -17.777849Q-19.22554 -17.675793 -19.288643 -17.570513Q-19.351746 -17.465233 -19.409607 -17.356985Q-19.467468 -17.248734 -19.519947 -17.137775Q-19.572426 -17.026817 -19.619396 -16.913416Q-19.666368 -16.800018 -19.70772 -16.684448Q-19.749071 -16.568882 -19.784702 -16.451424Q-19.820332 -16.333965 -19.850155 -16.214901Q-19.87998 -16.095835 -19.903927 -15.975451Q-19.927872 -15.855066 -19.945883 -15.733652Q-19.963894 -15.612238 -19.975925 -15.490086Q-19.987957 -15.367933 -19.993979 -15.245338Q-20 -15.122743 -20 -15Z" clip-rule="evenodd"/>
	</clipPath>
	<g clip-path="url(#cl_1f9)">
		<path fill="#666" transform="translate(135.492 4.67871)" d="M23.250759 4.1867409C23.250759 4.0157566 23.228329 3.8475752 23.208708 3.679394C22.95924 1.672431 21.098036 0.010239422 19.077059 0.0046333801C16.607597 -0.0037756823 14.138138 0.0018308295 11.668677 0.0018308295C9.1908073 0.0018308295 6.7129335 0.0018308295 4.2350636 0.0018308295C3.9883978 0.0018308295 3.7473416 0.02705761 3.511888 0.077511989C1.420835 0.52879834 0.013716272 2.2554598 0.0053072125 4.3969679C-0.0031018471 6.5665064 -0.00029882742 8.7332401 0.0053072125 10.902779C0.0053072125 11.160657 0.01932539 11.424141 0.069779754 11.676413C0.48462671 13.857162 2.2393155 15.303522 4.4565043 15.303522C9.1908054 15.303522 13.927916 15.303522 18.662216 15.303522C18.95373 15.303522 19.245245 15.29231 19.536758 15.261477C21.473644 15.054053 23.228327 13.173225 23.242342 11.227929C23.264767 8.8818007 23.250759 6.5328693 23.250759 4.1867409ZM21.1513 10.897173C21.1513 12.200578 20.203871 13.16762 18.900467 13.16762C14.059651 13.173225 9.2160301 13.173225 4.3752146 13.16762C3.0746133 13.16762 2.141207 12.214593 2.141207 10.911188C2.141207 8.7332411 2.1580284 6.555294 2.1356041 4.3801494C2.1215889 3.1159868 3.2063575 2.1068995 4.3864288 2.1237175C6.808238 2.1545508 9.2272453 2.1321263 11.649055 2.1321263C14.037228 2.1321263 16.4254 2.1685658 18.813574 2.1181114C20.074932 2.0928841 21.193344 3.1468201 21.168118 4.4866643C21.120466 6.6225662 21.154104 8.7584677 21.1513 10.897173Z"/>
	</g>
	<clipPath id="cl_1fa">
		<path d="M-20 -15L-20 35Q-20 35.122742 -19.993979 35.245338Q-19.987957 35.367935 -19.975925 35.490086Q-19.963894 35.612236 -19.945885 35.73365Q-19.927872 35.855064 -19.903927 35.975452Q-19.87998 36.095833 -19.850157 36.214897Q-19.820332 36.333961 -19.784702 36.451424Q-19.749071 36.568878 -19.70772 36.684444Q-19.666368 36.800011 -19.619396 36.913414Q-19.572426 37.026814 -19.519947 37.137775Q-19.467468 37.248734 -19.409607 37.356987Q-19.351746 37.465233 -19.288643 37.570515Q-19.22554 37.675797 -19.157347 37.777851Q-19.089155 37.87991 -19.016037 37.9785Q-18.942919 38.077087 -18.865051 38.17197Q-18.787184 38.26685 -18.704754 38.357796Q-18.622326 38.448738 -18.535534 38.535534Q-18.44874 38.622326 -18.357794 38.704754Q-18.266846 38.787186 -18.171967 38.865051Q-18.077084 38.942917 -17.978497 39.016033Q-17.879906 39.089153 -17.777849 39.157345Q-17.675793 39.22554 -17.570513 39.288639Q-17.465233 39.351746 -17.356985 39.409607Q-17.248734 39.467468 -17.137775 39.519943Q-17.026817 39.572426 -16.913416 39.619396Q-16.800018 39.66637 -16.684448 39.707722Q-16.568882 39.749073 -16.451424 39.784702Q-16.333965 39.820332 -16.214901 39.850155Q-16.095835 39.879978 -15.975451 39.903923Q-15.855066 39.927872 -15.733652 39.945885Q-15.612238 39.963894 -15.490086 39.975925Q-15.367933 39.987953 -15.245338 39.993977Q-15.122743 40 -15 40L421 40Q421.12274 40 421.24536 39.993977Q421.36795 39.987957 421.49011 39.975929Q421.61224 39.963898 421.73364 39.945885Q421.85504 39.927872 421.9754 39.903927Q422.09576 39.879982 422.21484 39.850159Q422.33392 39.820335 422.45142 39.784706Q422.56885 39.749077 422.68442 39.707726Q422.79999 39.66637 422.91339 39.619396Q423.02679 39.572426 423.13776 39.519947Q423.24872 39.467468 423.35699 39.409607Q423.46521 39.351746 423.5705 39.288639Q423.67578 39.22554 423.77783 39.157345Q423.87988 39.089153 423.97849 39.016037Q424.07709 38.942917 424.17197 38.865051Q424.26685 38.787186 424.35779 38.704758Q424.44873 38.622326 424.53552 38.535534Q424.62231 38.448738 424.70474 38.357796Q424.78717 38.26685 424.86505 38.17197Q424.9429 38.077087 425.01599 37.978497Q425.08911 37.87991 425.15732 37.777851Q425.22552 37.675797 425.28864 37.570511Q425.35175 37.465233 425.40961 37.356983Q425.46747 37.248734 425.51993 37.137772Q425.57239 37.026814 425.61935 36.913414Q425.66632 36.800011 425.70767 36.684444Q425.74902 36.568878 425.78467 36.451424Q425.82031 36.333961 425.85013 36.214897Q425.87994 36.095833 425.9039 35.975452Q425.92786 35.855064 425.94586 35.73365Q425.96387 35.612236 425.97595 35.490086Q425.98798 35.367935 425.99399 35.245338Q426 35.122742 426 35L426 -15Q426 -15.122743 425.99399 -15.245338Q425.98798 -15.367933 425.97595 -15.490086Q425.9639 -15.612238 425.94586 -15.733652Q425.92786 -15.855066 425.90393 -15.975451Q425.87997 -16.095835 425.85016 -16.214901Q425.82031 -16.333965 425.7847 -16.451424Q425.74908 -16.568882 425.7077 -16.68445Q425.66635 -16.800018 425.61938 -16.913416Q425.57239 -17.026817 425.51996 -17.137775Q425.46747 -17.248734 425.40961 -17.356983Q425.35175 -17.465233 425.28864 -17.570515Q425.22552 -17.675795 425.15735 -17.777851Q425.08914 -17.87991 425.01602 -17.978497Q424.94293 -18.077084 424.86508 -18.171967Q424.78717 -18.266846 424.70474 -18.357792Q424.62231 -18.44874 424.53552 -18.535534Q424.44873 -18.622326 424.35779 -18.704754Q424.26685 -18.787184 424.17197 -18.865051Q424.07709 -18.942919 423.97849 -19.016037Q423.87988 -19.089155 423.77783 -19.157347Q423.67578 -19.22554 423.5705 -19.288643Q423.46521 -19.351746 423.35696 -19.409607Q423.24872 -19.467468 423.13776 -19.519947Q423.02679 -19.572426 422.91339 -19.619396Q422.79999 -19.666368 422.68445 -19.70772Q422.56885 -19.749071 422.45142 -19.784702Q422.33392 -19.820332 422.21484 -19.850155Q422.09576 -19.87998 421.9754 -19.903927Q421.85504 -19.927872 421.73364 -19.945883Q421.61224 -19.963894 421.49011 -19.975925Q421.36795 -19.987955 421.24533 -19.993979Q421.12274 -20 421 -20L-15 -20Q-15.122743 -20 -15.245338 -19.993977Q-15.367933 -19.987955 -15.490086 -19.975925Q-15.612238 -19.963894 -15.733652 -19.945885Q-15.855066 -19.927872 -15.975451 -19.903927Q-16.095835 -19.87998 -16.214901 -19.850157Q-16.333965 -19.820332 -16.451424 -19.784702Q-16.568882 -19.749071 -16.68445 -19.70772Q-16.800018 -19.666368 -16.913416 -19.619396Q-17.026817 -19.572426 -17.137775 -19.519947Q-17.248734 -19.467468 -17.356983 -19.409607Q-17.465233 -19.351746 -17.570515 -19.288643Q-17.675795 -19.22554 -17.777851 -19.157347Q-17.87991 -19.089155 -17.978497 -19.016037Q-18.077084 -18.942919 -18.171967 -18.865051Q-18.266846 -18.787184 -18.357792 -18.704754Q-18.44874 -18.622326 -18.535534 -18.535534Q-18.622326 -18.44874 -18.704754 -18.357794Q-18.787184 -18.266846 -18.865051 -18.171967Q-18.942919 -18.077084 -19.016037 -17.978497Q-19.089155 -17.879906 -19.157347 -17.777849Q-19.22554 -17.675793 -19.288643 -17.570513Q-19.351746 -17.465233 -19.409607 -17.356985Q-19.467468 -17.248734 -19.519947 -17.137775Q-19.572426 -17.026817 -19.619396 -16.913416Q-19.666368 -16.800018 -19.70772 -16.684448Q-19.749071 -16.568882 -19.784702 -16.451424Q-19.820332 -16.333965 -19.850155 -16.214901Q-19.87998 -16.095835 -19.903927 -15.975451Q-19.927872 -15.855066 -19.945883 -15.733652Q-19.963894 -15.612238 -19.975925 -15.490086Q-19.987957 -15.367933 -19.993979 -15.245338Q-20 -15.122743 -20 -15Z" clip-rule="evenodd"/>
	</clipPath>
	<g clip-path="url(#cl_1fa)">
		<path fill="#666" transform="translate(188.057 0)" d="M4.9193144 2.3937795C4.9193144 3.7364264 3.8401518 4.8015738 2.4666717 4.8015738C1.0931917 4.8015738 0 3.7364264 0 2.3937795C0 1.0511328 1.0959913 0 2.4806833 0C3.8373451 0 4.9193144 1.0511328 4.9193144 2.3937795ZM0.61107349 2.3937795C0.61107349 3.4589272 1.4127326 4.3054395 2.4806833 4.3054395C3.5178008 4.3194547 4.3054523 3.4589272 4.3054523 2.4077945C4.3054523 1.3426467 3.5177903 0.4793165 2.4526427 0.4793165C1.4155252 0.48211953 0.61107349 1.3426468 0.61107349 2.3937795ZM2.0854478 3.6355176L1.5304552 3.6355176L1.5304552 1.241738C1.7490908 1.2137078 2.0574312 1.1688595 2.4498541 1.1688595C2.9011405 1.1688595 3.105756 1.2417381 3.2683313 1.3594649C3.4140882 1.4603736 3.5178041 1.6369638 3.5178041 1.8696146C3.5178041 2.1611288 3.2991631 2.3517342 3.0216641 2.4386277L3.0216641 2.4666581C3.2543149 2.5395367 3.3720443 2.7301419 3.4449229 3.0496862C3.5178015 3.4140787 3.5766664 3.545821 3.6215146 3.6327145L3.0384815 3.6327145C2.9656029 3.545821 2.9207568 3.3412004 2.8478782 3.0496862C2.80303 2.8002174 2.6572676 2.6852934 2.3517382 2.6852934L2.0882535 2.6852934L2.0854478 3.6355176ZM2.0994766 2.2928708L2.3629613 2.2928708C2.6684904 2.2928708 2.9179537 2.191962 2.9179537 1.9424931C2.9179537 1.7238575 2.7581797 1.5781006 2.4078021 1.5781006C2.2620451 1.5781006 2.1583257 1.5921156 2.1022654 1.6061307L2.0994766 2.2928708Z"/>
	</g>
</svg>
