<?xml version="1.0" encoding="utf-8" ?>
<svg xmlns="http://www.w3.org/2000/svg" xmlns:xlink="http://www.w3.org/1999/xlink" width="193" height="21">
	<rect fill-opacity="0" width="193" height="21"/>
	<rect fill="#1E1E1E" width="192.97607" height="20.000427"/>
	<clipPath id="cl_5c">
		<rect x="1847.0238" y="-60" width="1920.0001" height="8739"/>
	</clipPath>
	<g clip-path="url(#cl_5c)">
		<clipPath id="cl_5e">
			<rect x="2766.4678" y="759" width="80" height="80" rx="40" ry="40"/>
		</clipPath>
		<g clip-path="url(#cl_5e)">
			<ellipse transform="translate(2766.47 759)" cx="40" cy="40" rx="40" ry="40"/>
		</g>
	</g>
	<clipPath id="cl_5f">
		<rect x="2854.0239" y="-644" width="0" height="0"/>
	</clipPath>
	<g clip-path="url(#cl_5f)">
		<clipPath id="cl_1">
			<rect/>
		</clipPath>
		<g clip-path="url(#cl_1)">
			<ellipse transform="translate(2766.47 759)" cx="40" cy="40" rx="40" ry="40"/>
		</g>
	</g>
	<clipPath id="cl_61">
		<rect x="1847.0238" y="-60" width="1920.0001" height="8739"/>
	</clipPath>
	<g clip-path="url(#cl_61)">
		<clipPath id="cl_62">
			<path d="M2803.0437 806.95117L2815.5356 799.83453C2815.8013 799.68884 2815.8013 799.31116 2815.5356 799.16351L2803.0437 792.04883C2802.7859 791.90698 2802.4678 792.091 2802.4678 792.38434L2802.4678 806.61566C2802.4678 806.909 2802.7859 807.09302 2803.0437 806.95117Z" clip-rule="evenodd"/>
		</clipPath>
		<g clip-path="url(#cl_62)">
			<path transform="translate(2802.47 792)" d="M0.57592595 14.951165L13.067896 7.8345499C13.333559 7.6888433 13.333559 7.3111563 13.067896 7.1635327L0.57592595 0.048835382C0.31801969 -0.093036786 0 0.09101361 0 0.38434389L0 14.615657C0 14.908987 0.31801969 15.093038 0.57592595 14.951165Z" fill-rule="evenodd"/>
		</g>
	</g>
	<clipPath id="cl_12c">
		<rect x="1847.0239" y="-60" width="1920" height="8739"/>
	</clipPath>
	<g clip-path="url(#cl_12c)">
		<clipPath id="cl_12e">
			<rect x="3246.8015" y="6192" width="80" height="80" rx="40" ry="40"/>
		</clipPath>
		<g clip-path="url(#cl_12e)">
			<ellipse transform="translate(3246.8 6192)" cx="40" cy="40" rx="40" ry="40"/>
		</g>
	</g>
	<clipPath id="cl_12f">
		<rect x="2854.0239" y="-644" width="0" height="0"/>
	</clipPath>
	<g clip-path="url(#cl_12f)">
		<clipPath id="cl_1">
			<rect/>
		</clipPath>
		<g clip-path="url(#cl_1)">
			<ellipse transform="translate(3246.8 6192)" cx="40" cy="40" rx="40" ry="40"/>
		</g>
	</g>
	<clipPath id="cl_131">
		<rect x="1847.0239" y="-60" width="1920" height="8739"/>
	</clipPath>
	<g clip-path="url(#cl_131)">
		<clipPath id="cl_132">
			<path d="M3283.3774 6239.9512L3295.8694 6232.8345C3296.135 6232.689 3296.135 6232.311 3295.8694 6232.1636L3283.3774 6225.0488C3283.1196 6224.9067 3282.8015 6225.0908 3282.8015 6225.3843L3282.8015 6239.6157C3282.8015 6239.9092 3283.1196 6240.0933 3283.3774 6239.9512Z" clip-rule="evenodd"/>
		</clipPath>
		<g clip-path="url(#cl_132)">
			<path transform="translate(3282.8 6225)" d="M0.57592595 14.951165L13.067896 7.8345499C13.333559 7.6888433 13.333559 7.3111563 13.067896 7.1635327L0.57592595 0.048835382C0.31801969 -0.093036786 0 0.09101361 0 0.38434389L0 14.615657C0 14.908987 0.31801969 15.093038 0.57592595 14.951165Z" fill-rule="evenodd"/>
		</g>
	</g>
	<rect fill="white" transform="translate(-272.976 -60)" width="1920" height="438"/>
	<clipPath id="cl_1e8">
		<rect x="-272.97607" y="-60" width="1920" height="438"/>
	</clipPath>
	<g clip-path="url(#cl_1e8)">
		<path fill="#9747FF" transform="translate(-232.976 -20)" d="M0 5L0 55Q0 55.122742 0.0060227183 55.245338Q0.012045437 55.367931 0.024076365 55.490082Q0.036107291 55.612236 0.054117441 55.733646Q0.072127596 55.855061 0.096073583 55.975445Q0.12001957 56.095829 0.14984371 56.214897Q0.17966786 56.333961 0.2152983 56.451416Q0.25092873 56.568871 0.29227963 56.684441Q0.3336305 56.800011 0.38060227 56.91341Q0.42757404 57.02681 0.48005345 57.137772Q0.53253293 57.24873 0.5903936 57.356979Q0.64825428 57.465225 0.71135688 57.570507Q0.77445936 57.675789 0.84265178 57.777847Q0.91084421 57.879906 0.98396218 57.978493Q1.0570803 58.07708 1.1349477 58.171963Q1.212815 58.266846 1.2952442 58.357788Q1.3776735 58.448738 1.464466 58.53553Q1.5512584 58.622322 1.642205 58.70475Q1.7331518 58.787178 1.8280336 58.865047Q1.9229152 58.942913 2.0215034 59.016029Q2.1200914 59.089146 2.2221487 59.157337Q2.3242059 59.225533 2.4294863 59.288635Q2.5347667 59.351738 2.6430163 59.409599Q2.751266 59.467461 2.8622241 59.519939Q2.9731827 59.572418 3.0865824 59.619389Q3.1999822 59.666359 3.3155503 59.707714Q3.4311185 59.749062 3.5485766 59.784695Q3.6660345 59.820328 3.785099 59.850151Q3.9041638 59.879974 4.0245485 59.903919Q4.1449327 59.927864 4.2663474 59.945877Q4.3877621 59.96389 4.5099144 59.975922Q4.6320662 59.987953 4.7546616 59.993973Q4.8772569 60 5 60L441 60Q441.12274 60 441.24533 59.993973Q441.36792 59.987953 441.49008 59.975922Q441.61224 59.96389 441.73361 59.945877Q441.85504 59.927864 441.9754 59.903919Q442.09576 59.879974 442.21484 59.850151Q442.33392 59.820328 442.45142 59.784695Q442.56885 59.749062 442.68442 59.707714Q442.79999 59.666359 442.91339 59.619389Q443.02679 59.572418 443.13776 59.519939Q443.24872 59.467461 443.35699 59.409599Q443.46521 59.351738 443.5705 59.288635Q443.67575 59.225533 443.7778 59.157341Q443.87985 59.089149 443.97842 59.016029Q444.07703 58.942913 444.17194 58.865047Q444.26685 58.787178 444.35779 58.70475Q444.44873 58.622322 444.53552 58.53553Q444.62231 58.448738 444.70471 58.357792Q444.78717 58.266846 444.86505 58.171967Q444.9429 58.07708 445.01599 57.978493Q445.08911 57.879902 445.15732 57.777843Q445.22552 57.675785 445.2886 57.570503Q445.35175 57.465225 445.40961 57.356976Q445.46747 57.248726 445.51993 57.137768Q445.57239 57.02681 445.61938 56.91341Q445.66635 56.800011 445.7077 56.684441Q445.74908 56.568874 445.7847 56.45142Q445.82031 56.333961 445.85016 56.214897Q445.87994 56.095833 445.9039 55.975449Q445.92786 55.855064 445.94586 55.73365Q445.96387 55.612236 445.97595 55.490089Q445.98795 55.367935 445.99396 55.245338Q446 55.122742 446 55L446 5Q446 4.8772569 445.99396 4.7546616Q445.98792 4.6320662 445.97592 4.5099144Q445.96387 4.3877621 445.94586 4.2663474Q445.92786 4.1449327 445.9039 4.0245481Q445.87994 3.9041634 445.85013 3.7850986Q445.82031 3.6660342 445.78467 3.5485766Q445.74902 3.4311185 445.7077 3.3155506Q445.66632 3.1999824 445.61935 3.0865827Q445.57239 2.9731827 445.5199 2.8622246Q445.46744 2.751266 445.40958 2.6430163Q445.35172 2.5347667 445.2886 2.4294863Q445.22552 2.3242059 445.15732 2.2221487Q445.08911 2.1200914 445.01599 2.0215032Q444.9429 1.9229152 444.86505 1.8280334Q444.78717 1.7331517 444.70477 1.642205Q444.62231 1.5512584 444.53552 1.464466Q444.44873 1.3776735 444.35779 1.2952442Q444.26685 1.212815 444.17197 1.1349477Q444.07706 1.0570803 443.97845 0.98396218Q443.87985 0.91084421 443.7778 0.84265178Q443.67575 0.77445936 443.57047 0.71135676Q443.46521 0.64825428 443.35696 0.5903936Q443.24872 0.53253293 443.13773 0.48005345Q443.02676 0.42757404 442.91336 0.38060227Q442.79996 0.3336305 442.68439 0.2922796Q442.56885 0.25092873 442.45139 0.2152983Q442.33392 0.17966786 442.21484 0.14984372Q442.09576 0.12001957 441.9754 0.096073583Q441.85504 0.072127596 441.73361 0.054117441Q441.61224 0.036107291 441.49008 0.024076365Q441.36792 0.012045437 441.24533 0.0060227183Q441.12274 0 441 0L5 0Q4.8772569 0 4.7546616 0.0060227183Q4.6320662 0.012045437 4.5099144 0.024076365Q4.3877621 0.036107291 4.2663474 0.054117441Q4.1449327 0.072127596 4.0245481 0.096073583Q3.9041634 0.12001957 3.7850986 0.14984371Q3.6660342 0.17966786 3.5485766 0.2152983Q3.4311185 0.25092873 3.3155506 0.29227963Q3.1999824 0.3336305 3.0865827 0.38060227Q2.9731827 0.42757404 2.8622246 0.48005345Q2.751266 0.53253293 2.6430163 0.5903936Q2.5347667 0.64825428 2.4294863 0.71135688Q2.3242059 0.77445936 2.2221487 0.84265178Q2.1200914 0.91084421 2.0215032 0.98396218Q1.9229152 1.0570803 1.8280334 1.1349477Q1.7331517 1.212815 1.642205 1.2952442Q1.5512584 1.3776735 1.464466 1.464466Q1.3776735 1.5512584 1.2952442 1.642205Q1.212815 1.7331518 1.1349477 1.8280336Q1.0570803 1.9229152 0.98396218 2.0215034Q0.91084421 2.1200914 0.84265178 2.2221487Q0.77445936 2.3242059 0.71135676 2.4294863Q0.64825428 2.5347667 0.5903936 2.6430163Q0.53253293 2.751266 0.48005345 2.8622241Q0.42757404 2.9731827 0.38060227 3.0865824Q0.3336305 3.1999822 0.2922796 3.3155503Q0.25092873 3.4311185 0.2152983 3.5485766Q0.17966786 3.6660345 0.14984372 3.785099Q0.12001957 3.9041638 0.096073583 4.0245485Q0.072127596 4.1449327 0.054117441 4.2663474Q0.036107291 4.3877621 0.024076365 4.5099144Q0.012045437 4.6320662 0.0060227183 4.7546616Q0 4.8772569 0 5ZM5 59Q1 59 1 55L1 5Q1 1 5 1L441 1Q445 1 445 5L445 55Q445 59 441 59L5 59Z" fill-rule="evenodd"/>
	</g>
	<clipPath id="cl_1ea">
		<path d="M-232.97607 -15L-232.97607 35Q-232.97607 35.122742 -232.97003 35.245338Q-232.96402 35.367935 -232.952 35.490086Q-232.93996 35.612236 -232.92195 35.73365Q-232.90393 35.855064 -232.87997 35.975452Q-232.85602 36.095833 -232.8262 36.214897Q-232.79639 36.333961 -232.76077 36.451424Q-232.72513 36.568878 -232.68378 36.684444Q-232.64243 36.800011 -232.59546 36.913414Q-232.54849 37.026814 -232.496 37.137775Q-232.44353 37.248734 -232.38568 37.356987Q-232.32782 37.465233 -232.26471 37.570515Q-232.2016 37.675797 -232.13341 37.777851Q-232.06522 37.87991 -231.9921 37.9785Q-231.91898 38.077087 -231.84113 38.17197Q-231.76324 38.26685 -231.68082 38.357796Q-231.59839 38.448738 -231.5116 38.535534Q-231.4248 38.622326 -231.33386 38.704754Q-231.24292 38.787186 -231.14804 38.865051Q-231.05316 38.942917 -230.95456 39.016033Q-230.85596 39.089153 -230.75391 39.157345Q-230.65186 39.22554 -230.54657 39.288639Q-230.44128 39.351746 -230.33304 39.409607Q-230.22479 39.467468 -230.11383 39.519943Q-230.00287 39.572426 -229.88947 39.619396Q-229.77606 39.66637 -229.66052 39.707722Q-229.54495 39.749073 -229.42751 39.784702Q-229.31004 39.820332 -229.19098 39.850155Q-229.0719 39.879978 -228.95151 39.903923Q-228.83112 39.927872 -228.70972 39.945885Q-228.58832 39.963894 -228.46617 39.975925Q-228.34401 39.987953 -228.22142 39.993977Q-228.09882 40 -227.97607 40L208.02393 40Q208.14667 40 208.26926 39.993977Q208.39185 39.987957 208.51401 39.975929Q208.63615 39.963898 208.75757 39.945885Q208.87897 39.927872 208.99936 39.903927Q209.11975 39.879982 209.23883 39.850159Q209.35789 39.820335 209.47536 39.784706Q209.5928 39.749077 209.70837 39.707726Q209.82393 39.66637 209.93733 39.619396Q210.05072 39.572426 210.16168 39.519947Q210.27264 39.467468 210.38091 39.409607Q210.48914 39.351746 210.59442 39.288639Q210.69971 39.22554 210.80176 39.157345Q210.90381 39.089153 211.00241 39.016037Q211.10101 38.942917 211.19591 38.865051Q211.29079 38.787186 211.38173 38.704758Q211.47267 38.622326 211.55946 38.535534Q211.64626 38.448738 211.72868 38.357796Q211.81113 38.26685 211.88899 38.17197Q211.96686 38.077087 212.03996 37.978497Q212.11307 37.87991 212.18126 37.777851Q212.24945 37.675797 212.31256 37.570511Q212.37567 37.465233 212.43353 37.356983Q212.49138 37.248734 212.54385 37.137772Q212.59634 37.026814 212.64331 36.913414Q212.69028 36.800011 212.73163 36.684444Q212.77298 36.568878 212.80862 36.451424Q212.84424 36.333961 212.87407 36.214897Q212.9039 36.095833 212.92784 35.975452Q212.95178 35.855064 212.96979 35.73365Q212.98781 35.612236 212.99985 35.490086Q213.01187 35.367935 213.0179 35.245338Q213.02393 35.122742 213.02393 35L213.02393 -15Q213.02393 -15.122743 213.01788 -15.245338Q213.01187 -15.367933 212.99985 -15.490086Q212.98781 -15.612238 212.96979 -15.733652Q212.95178 -15.855066 212.92784 -15.975451Q212.9039 -16.095835 212.87408 -16.214901Q212.84424 -16.333965 212.80862 -16.451424Q212.77298 -16.568882 212.73163 -16.68445Q212.69028 -16.800018 212.64331 -16.913416Q212.59634 -17.026817 212.54385 -17.137775Q212.49138 -17.248734 212.43353 -17.356983Q212.37566 -17.465233 212.31256 -17.570515Q212.24945 -17.675795 212.18126 -17.777851Q212.11307 -17.87991 212.03995 -17.978497Q211.96683 -18.077084 211.88898 -18.171967Q211.8111 -18.266846 211.72868 -18.357792Q211.64624 -18.44874 211.55945 -18.535534Q211.47266 -18.622326 211.38171 -18.704754Q211.29077 -18.787184 211.19589 -18.865051Q211.101 -18.942919 211.0024 -19.016037Q210.90381 -19.089155 210.80174 -19.157347Q210.69968 -19.22554 210.59442 -19.288643Q210.48914 -19.351746 210.38089 -19.409607Q210.27263 -19.467468 210.16168 -19.519947Q210.05072 -19.572426 209.93732 -19.619396Q209.82391 -19.666368 209.70834 -19.70772Q209.59279 -19.749071 209.47534 -19.784702Q209.35788 -19.820332 209.23882 -19.850155Q209.11975 -19.87998 208.99936 -19.903927Q208.87897 -19.927872 208.75757 -19.945883Q208.63615 -19.963894 208.51401 -19.975925Q208.39185 -19.987955 208.26926 -19.993979Q208.14667 -20 208.02393 -20L-227.97607 -20Q-228.09882 -20 -228.22141 -19.993977Q-228.34399 -19.987955 -228.46616 -19.975925Q-228.5883 -19.963894 -228.70972 -19.945885Q-228.83112 -19.927872 -228.95151 -19.903927Q-229.0719 -19.87998 -229.19096 -19.850157Q-229.31003 -19.820332 -229.42749 -19.784702Q-229.54495 -19.749071 -229.66051 -19.70772Q-229.77606 -19.666368 -229.88947 -19.619396Q-230.00287 -19.572426 -230.11383 -19.519947Q-230.22479 -19.467468 -230.33305 -19.409607Q-230.44128 -19.351746 -230.54657 -19.288643Q-230.65186 -19.22554 -230.75391 -19.157347Q-230.85596 -19.089155 -230.95456 -19.016037Q-231.05316 -18.942919 -231.14804 -18.865051Q-231.24292 -18.787184 -231.33386 -18.704754Q-231.4248 -18.622326 -231.5116 -18.535534Q-231.59839 -18.44874 -231.68082 -18.357794Q-231.76324 -18.266846 -231.84113 -18.171967Q-231.91898 -18.077084 -231.9921 -17.978497Q-232.06522 -17.879906 -232.13341 -17.777849Q-232.2016 -17.675793 -232.26469 -17.570513Q-232.32779 -17.465233 -232.38567 -17.356985Q-232.44351 -17.248734 -232.496 -17.137775Q-232.54848 -17.026817 -232.59544 -16.913416Q-232.64243 -16.800018 -232.68376 -16.684448Q-232.72513 -16.568882 -232.76076 -16.451424Q-232.79639 -16.333965 -232.8262 -16.214901Q-232.85602 -16.095835 -232.87997 -15.975451Q-232.90393 -15.855066 -232.92194 -15.733652Q-232.93996 -15.612238 -232.952 -15.490086Q-232.96402 -15.367933 -232.97003 -15.245338Q-232.97607 -15.122743 -232.97607 -15Z" clip-rule="evenodd"/>
	</clipPath>
	<g clip-path="url(#cl_1ea)">
		<path fill="#666" transform="translate(0 4.67188)" d="M13.403502 15.31398C10.373438 15.31398 7.3433733 15.319587 4.3133087 15.311177C2.5277851 15.308374 0.89642727 14.164742 0.27415684 12.499747C0.094763562 12.023233 0.0050669187 11.529903 0.0050669187 11.022556C0.0022638987 8.7801399 -0.0061451616 6.5377226 0.0078699384 4.2953067C0.019082017 1.9379668 1.9279385 0.017898273 4.2880812 0.0094892131C9.2101841 -0.0045258878 14.132289 -0.0017228676 19.054392 0.0094892131C21.277187 0.015095253 23.155209 1.8987248 23.26733 4.1187167C23.396269 6.635829 21.487411 8.2952166 19.864464 8.6119576C19.502874 8.6820326 19.141285 8.7100639 18.77409 8.7100639C13.801533 8.7100639 8.8317766 8.710063 3.8592193 8.7184725C3.6349778 8.7184725 3.5929325 8.6512003 3.5985384 8.4465799C3.6125536 7.9196119 3.6125536 7.3898411 3.5985384 6.8628736C3.5929325 6.652647 3.6405835 6.5909801 3.8620222 6.5937829C5.908227 6.6021919 7.9572344 6.5993891 10.003439 6.5993891C12.969034 6.5993891 15.931826 6.6021929 18.897421 6.5965867C20.122341 6.5937839 21.106203 5.6407566 21.145445 4.4326549C21.18749 3.1853108 20.200825 2.1509964 18.939466 2.1341784C18.339621 2.1257694 17.736971 2.1313753 17.134321 2.1313753C12.893353 2.1313753 8.6551857 2.1313753 4.414217 2.1313753C3.2761908 2.1313753 2.39324 2.8293276 2.1718013 3.9084902C2.138165 4.0738683 2.129756 4.2476549 2.129756 4.4158363C2.1269529 6.5769649 2.12415 8.7380943 2.129756 10.899222C2.1325591 12.054067 2.8445263 12.939822 3.9292948 13.144443C4.1507335 13.186488 4.3805814 13.180881 4.607626 13.180881C10.628512 13.183683 16.646597 13.183684 22.66468 13.178079C22.891726 13.178079 22.970209 13.217319 22.9618 13.463985C22.942179 14.007771 22.944981 14.551558 22.9618 15.095344C22.967405 15.285949 22.905741 15.316782 22.731953 15.316782C19.626207 15.311176 16.514854 15.31398 13.403502 15.31398Z"/>
	</g>
	<clipPath id="cl_1eb">
		<path d="M-232.97607 -15L-232.97607 35Q-232.97607 35.122742 -232.97003 35.245338Q-232.96402 35.367935 -232.952 35.490086Q-232.93996 35.612236 -232.92195 35.73365Q-232.90393 35.855064 -232.87997 35.975452Q-232.85602 36.095833 -232.8262 36.214897Q-232.79639 36.333961 -232.76077 36.451424Q-232.72513 36.568878 -232.68378 36.684444Q-232.64243 36.800011 -232.59546 36.913414Q-232.54849 37.026814 -232.496 37.137775Q-232.44353 37.248734 -232.38568 37.356987Q-232.32782 37.465233 -232.26471 37.570515Q-232.2016 37.675797 -232.13341 37.777851Q-232.06522 37.87991 -231.9921 37.9785Q-231.91898 38.077087 -231.84113 38.17197Q-231.76324 38.26685 -231.68082 38.357796Q-231.59839 38.448738 -231.5116 38.535534Q-231.4248 38.622326 -231.33386 38.704754Q-231.24292 38.787186 -231.14804 38.865051Q-231.05316 38.942917 -230.95456 39.016033Q-230.85596 39.089153 -230.75391 39.157345Q-230.65186 39.22554 -230.54657 39.288639Q-230.44128 39.351746 -230.33304 39.409607Q-230.22479 39.467468 -230.11383 39.519943Q-230.00287 39.572426 -229.88947 39.619396Q-229.77606 39.66637 -229.66052 39.707722Q-229.54495 39.749073 -229.42751 39.784702Q-229.31004 39.820332 -229.19098 39.850155Q-229.0719 39.879978 -228.95151 39.903923Q-228.83112 39.927872 -228.70972 39.945885Q-228.58832 39.963894 -228.46617 39.975925Q-228.34401 39.987953 -228.22142 39.993977Q-228.09882 40 -227.97607 40L208.02393 40Q208.14667 40 208.26926 39.993977Q208.39185 39.987957 208.51401 39.975929Q208.63615 39.963898 208.75757 39.945885Q208.87897 39.927872 208.99936 39.903927Q209.11975 39.879982 209.23883 39.850159Q209.35789 39.820335 209.47536 39.784706Q209.5928 39.749077 209.70837 39.707726Q209.82393 39.66637 209.93733 39.619396Q210.05072 39.572426 210.16168 39.519947Q210.27264 39.467468 210.38091 39.409607Q210.48914 39.351746 210.59442 39.288639Q210.69971 39.22554 210.80176 39.157345Q210.90381 39.089153 211.00241 39.016037Q211.10101 38.942917 211.19591 38.865051Q211.29079 38.787186 211.38173 38.704758Q211.47267 38.622326 211.55946 38.535534Q211.64626 38.448738 211.72868 38.357796Q211.81113 38.26685 211.88899 38.17197Q211.96686 38.077087 212.03996 37.978497Q212.11307 37.87991 212.18126 37.777851Q212.24945 37.675797 212.31256 37.570511Q212.37567 37.465233 212.43353 37.356983Q212.49138 37.248734 212.54385 37.137772Q212.59634 37.026814 212.64331 36.913414Q212.69028 36.800011 212.73163 36.684444Q212.77298 36.568878 212.80862 36.451424Q212.84424 36.333961 212.87407 36.214897Q212.9039 36.095833 212.92784 35.975452Q212.95178 35.855064 212.96979 35.73365Q212.98781 35.612236 212.99985 35.490086Q213.01187 35.367935 213.0179 35.245338Q213.02393 35.122742 213.02393 35L213.02393 -15Q213.02393 -15.122743 213.01788 -15.245338Q213.01187 -15.367933 212.99985 -15.490086Q212.98781 -15.612238 212.96979 -15.733652Q212.95178 -15.855066 212.92784 -15.975451Q212.9039 -16.095835 212.87408 -16.214901Q212.84424 -16.333965 212.80862 -16.451424Q212.77298 -16.568882 212.73163 -16.68445Q212.69028 -16.800018 212.64331 -16.913416Q212.59634 -17.026817 212.54385 -17.137775Q212.49138 -17.248734 212.43353 -17.356983Q212.37566 -17.465233 212.31256 -17.570515Q212.24945 -17.675795 212.18126 -17.777851Q212.11307 -17.87991 212.03995 -17.978497Q211.96683 -18.077084 211.88898 -18.171967Q211.8111 -18.266846 211.72868 -18.357792Q211.64624 -18.44874 211.55945 -18.535534Q211.47266 -18.622326 211.38171 -18.704754Q211.29077 -18.787184 211.19589 -18.865051Q211.101 -18.942919 211.0024 -19.016037Q210.90381 -19.089155 210.80174 -19.157347Q210.69968 -19.22554 210.59442 -19.288643Q210.48914 -19.351746 210.38089 -19.409607Q210.27263 -19.467468 210.16168 -19.519947Q210.05072 -19.572426 209.93732 -19.619396Q209.82391 -19.666368 209.70834 -19.70772Q209.59279 -19.749071 209.47534 -19.784702Q209.35788 -19.820332 209.23882 -19.850155Q209.11975 -19.87998 208.99936 -19.903927Q208.87897 -19.927872 208.75757 -19.945883Q208.63615 -19.963894 208.51401 -19.975925Q208.39185 -19.987955 208.26926 -19.993979Q208.14667 -20 208.02393 -20L-227.97607 -20Q-228.09882 -20 -228.22141 -19.993977Q-228.34399 -19.987955 -228.46616 -19.975925Q-228.5883 -19.963894 -228.70972 -19.945885Q-228.83112 -19.927872 -228.95151 -19.903927Q-229.0719 -19.87998 -229.19096 -19.850157Q-229.31003 -19.820332 -229.42749 -19.784702Q-229.54495 -19.749071 -229.66051 -19.70772Q-229.77606 -19.666368 -229.88947 -19.619396Q-230.00287 -19.572426 -230.11383 -19.519947Q-230.22479 -19.467468 -230.33305 -19.409607Q-230.44128 -19.351746 -230.54657 -19.288643Q-230.65186 -19.22554 -230.75391 -19.157347Q-230.85596 -19.089155 -230.95456 -19.016037Q-231.05316 -18.942919 -231.14804 -18.865051Q-231.24292 -18.787184 -231.33386 -18.704754Q-231.4248 -18.622326 -231.5116 -18.535534Q-231.59839 -18.44874 -231.68082 -18.357794Q-231.76324 -18.266846 -231.84113 -18.171967Q-231.91898 -18.077084 -231.9921 -17.978497Q-232.06522 -17.879906 -232.13341 -17.777849Q-232.2016 -17.675793 -232.26469 -17.570513Q-232.32779 -17.465233 -232.38567 -17.356985Q-232.44351 -17.248734 -232.496 -17.137775Q-232.54848 -17.026817 -232.59544 -16.913416Q-232.64243 -16.800018 -232.68376 -16.684448Q-232.72513 -16.568882 -232.76076 -16.451424Q-232.79639 -16.333965 -232.8262 -16.214901Q-232.85602 -16.095835 -232.87997 -15.975451Q-232.90393 -15.855066 -232.92194 -15.733652Q-232.93996 -15.612238 -232.952 -15.490086Q-232.96402 -15.367933 -232.97003 -15.245338Q-232.97607 -15.122743 -232.97607 -15Z" clip-rule="evenodd"/>
	</clipPath>
	<g clip-path="url(#cl_1eb)">
		<path fill="#666" transform="translate(54.5569 4.66699)" d="M9.7802057 15.318506C6.7080956 15.318506 3.6387901 15.315701 0.56667966 15.324111C0.34524104 15.324111 0.30039048 15.262444 0.30599651 15.055021C0.32001162 14.502827 0.31720859 13.95063 0.30599651 13.398436C0.30319348 13.224648 0.35925627 13.182604 0.52743751 13.182604C2.0550835 13.18821 3.582727 13.185408 5.110373 13.185408C9.6204329 13.185408 14.12769 13.179801 18.634947 13.18821C19.638428 13.18821 20.381231 12.773363 20.810093 11.873593C21.474409 10.483295 20.468121 8.8154993 18.932066 8.7229996C18.786308 8.7145901 18.640549 8.7145901 18.491989 8.7145901C13.827764 8.7145901 9.1663437 8.7117872 4.5021181 8.7145901C2.6521249 8.7145901 1.2786473 7.8848958 0.44895327 6.2535381C-0.87407231 3.6551383 0.87501168 0.41484699 3.7593195 0.044848282C4.0284095 0.0084090196 4.2946968 0.0056061689 4.5609837 0.0056061689C10.556644 0.0028031487 16.552299 0.0056060404 22.54796 0C22.783415 0 22.847887 0.056060672 22.839478 0.29151437C22.819857 0.81848216 22.825462 1.3454499 22.839478 1.8752207C22.845083 2.077038 22.786217 2.1330986 22.5844 2.1330986C20.594255 2.1246896 18.604116 2.1274924 16.613972 2.1274924C12.625274 2.1274924 8.6365747 2.1302953 4.6478767 2.1246893C3.983561 2.1246893 3.3753066 2.2396131 2.8707628 2.7105205C2.1924319 3.3412001 1.9625809 4.3054399 2.2849283 5.165967C2.6128817 6.0321002 3.4257593 6.59831 4.3759832 6.6011128C6.8930955 6.606719 9.4130125 6.6039157 11.932928 6.6039157C14.200571 6.6039157 16.46541 6.5927038 18.733053 6.606719C20.524183 6.615128 21.880848 7.4364123 22.660088 9.0201187C24.16531 12.072608 21.844404 15.307293 18.845173 15.312899C15.823517 15.324111 12.801862 15.318506 9.7802057 15.318506Z"/>
	</g>
	<clipPath id="cl_1ec">
		<path d="M-232.97607 -15L-232.97607 35Q-232.97607 35.122742 -232.97003 35.245338Q-232.96402 35.367935 -232.952 35.490086Q-232.93996 35.612236 -232.92195 35.73365Q-232.90393 35.855064 -232.87997 35.975452Q-232.85602 36.095833 -232.8262 36.214897Q-232.79639 36.333961 -232.76077 36.451424Q-232.72513 36.568878 -232.68378 36.684444Q-232.64243 36.800011 -232.59546 36.913414Q-232.54849 37.026814 -232.496 37.137775Q-232.44353 37.248734 -232.38568 37.356987Q-232.32782 37.465233 -232.26471 37.570515Q-232.2016 37.675797 -232.13341 37.777851Q-232.06522 37.87991 -231.9921 37.9785Q-231.91898 38.077087 -231.84113 38.17197Q-231.76324 38.26685 -231.68082 38.357796Q-231.59839 38.448738 -231.5116 38.535534Q-231.4248 38.622326 -231.33386 38.704754Q-231.24292 38.787186 -231.14804 38.865051Q-231.05316 38.942917 -230.95456 39.016033Q-230.85596 39.089153 -230.75391 39.157345Q-230.65186 39.22554 -230.54657 39.288639Q-230.44128 39.351746 -230.33304 39.409607Q-230.22479 39.467468 -230.11383 39.519943Q-230.00287 39.572426 -229.88947 39.619396Q-229.77606 39.66637 -229.66052 39.707722Q-229.54495 39.749073 -229.42751 39.784702Q-229.31004 39.820332 -229.19098 39.850155Q-229.0719 39.879978 -228.95151 39.903923Q-228.83112 39.927872 -228.70972 39.945885Q-228.58832 39.963894 -228.46617 39.975925Q-228.34401 39.987953 -228.22142 39.993977Q-228.09882 40 -227.97607 40L208.02393 40Q208.14667 40 208.26926 39.993977Q208.39185 39.987957 208.51401 39.975929Q208.63615 39.963898 208.75757 39.945885Q208.87897 39.927872 208.99936 39.903927Q209.11975 39.879982 209.23883 39.850159Q209.35789 39.820335 209.47536 39.784706Q209.5928 39.749077 209.70837 39.707726Q209.82393 39.66637 209.93733 39.619396Q210.05072 39.572426 210.16168 39.519947Q210.27264 39.467468 210.38091 39.409607Q210.48914 39.351746 210.59442 39.288639Q210.69971 39.22554 210.80176 39.157345Q210.90381 39.089153 211.00241 39.016037Q211.10101 38.942917 211.19591 38.865051Q211.29079 38.787186 211.38173 38.704758Q211.47267 38.622326 211.55946 38.535534Q211.64626 38.448738 211.72868 38.357796Q211.81113 38.26685 211.88899 38.17197Q211.96686 38.077087 212.03996 37.978497Q212.11307 37.87991 212.18126 37.777851Q212.24945 37.675797 212.31256 37.570511Q212.37567 37.465233 212.43353 37.356983Q212.49138 37.248734 212.54385 37.137772Q212.59634 37.026814 212.64331 36.913414Q212.69028 36.800011 212.73163 36.684444Q212.77298 36.568878 212.80862 36.451424Q212.84424 36.333961 212.87407 36.214897Q212.9039 36.095833 212.92784 35.975452Q212.95178 35.855064 212.96979 35.73365Q212.98781 35.612236 212.99985 35.490086Q213.01187 35.367935 213.0179 35.245338Q213.02393 35.122742 213.02393 35L213.02393 -15Q213.02393 -15.122743 213.01788 -15.245338Q213.01187 -15.367933 212.99985 -15.490086Q212.98781 -15.612238 212.96979 -15.733652Q212.95178 -15.855066 212.92784 -15.975451Q212.9039 -16.095835 212.87408 -16.214901Q212.84424 -16.333965 212.80862 -16.451424Q212.77298 -16.568882 212.73163 -16.68445Q212.69028 -16.800018 212.64331 -16.913416Q212.59634 -17.026817 212.54385 -17.137775Q212.49138 -17.248734 212.43353 -17.356983Q212.37566 -17.465233 212.31256 -17.570515Q212.24945 -17.675795 212.18126 -17.777851Q212.11307 -17.87991 212.03995 -17.978497Q211.96683 -18.077084 211.88898 -18.171967Q211.8111 -18.266846 211.72868 -18.357792Q211.64624 -18.44874 211.55945 -18.535534Q211.47266 -18.622326 211.38171 -18.704754Q211.29077 -18.787184 211.19589 -18.865051Q211.101 -18.942919 211.0024 -19.016037Q210.90381 -19.089155 210.80174 -19.157347Q210.69968 -19.22554 210.59442 -19.288643Q210.48914 -19.351746 210.38089 -19.409607Q210.27263 -19.467468 210.16168 -19.519947Q210.05072 -19.572426 209.93732 -19.619396Q209.82391 -19.666368 209.70834 -19.70772Q209.59279 -19.749071 209.47534 -19.784702Q209.35788 -19.820332 209.23882 -19.850155Q209.11975 -19.87998 208.99936 -19.903927Q208.87897 -19.927872 208.75757 -19.945883Q208.63615 -19.963894 208.51401 -19.975925Q208.39185 -19.987955 208.26926 -19.993979Q208.14667 -20 208.02393 -20L-227.97607 -20Q-228.09882 -20 -228.22141 -19.993977Q-228.34399 -19.987955 -228.46616 -19.975925Q-228.5883 -19.963894 -228.70972 -19.945885Q-228.83112 -19.927872 -228.95151 -19.903927Q-229.0719 -19.87998 -229.19096 -19.850157Q-229.31003 -19.820332 -229.42749 -19.784702Q-229.54495 -19.749071 -229.66051 -19.70772Q-229.77606 -19.666368 -229.88947 -19.619396Q-230.00287 -19.572426 -230.11383 -19.519947Q-230.22479 -19.467468 -230.33305 -19.409607Q-230.44128 -19.351746 -230.54657 -19.288643Q-230.65186 -19.22554 -230.75391 -19.157347Q-230.85596 -19.089155 -230.95456 -19.016037Q-231.05316 -18.942919 -231.14804 -18.865051Q-231.24292 -18.787184 -231.33386 -18.704754Q-231.4248 -18.622326 -231.5116 -18.535534Q-231.59839 -18.44874 -231.68082 -18.357794Q-231.76324 -18.266846 -231.84113 -18.171967Q-231.91898 -18.077084 -231.9921 -17.978497Q-232.06522 -17.879906 -232.13341 -17.777849Q-232.2016 -17.675793 -232.26469 -17.570513Q-232.32779 -17.465233 -232.38567 -17.356985Q-232.44351 -17.248734 -232.496 -17.137775Q-232.54848 -17.026817 -232.59544 -16.913416Q-232.64243 -16.800018 -232.68376 -16.684448Q-232.72513 -16.568882 -232.76076 -16.451424Q-232.79639 -16.333965 -232.8262 -16.214901Q-232.85602 -16.095835 -232.87997 -15.975451Q-232.90393 -15.855066 -232.92194 -15.733652Q-232.93996 -15.612238 -232.952 -15.490086Q-232.96402 -15.367933 -232.97003 -15.245338Q-232.97607 -15.122743 -232.97607 -15Z" clip-rule="evenodd"/>
	</clipPath>
	<g clip-path="url(#cl_1ec)">
		<path fill="#666" transform="translate(27.457 4.68457)" d="M11.627863 2.1215856C9.2480984 2.1215856 6.8683343 2.1496155 4.4885702 2.1103733C3.1627417 2.087949 2.1060021 3.125067 2.1228201 4.4621077C2.1536534 6.6232367 2.1256235 8.7843647 2.1340325 10.94269C2.1368356 12.038671 2.8600154 12.910411 3.9195571 13.131849C4.1437988 13.179501 4.3708439 13.171091 4.6006913 13.171091C9.2733269 13.171091 13.943157 13.173895 18.612989 13.165485C18.862457 13.165485 18.926928 13.229954 18.915716 13.473817C18.896095 14.009193 18.901699 14.544571 18.91291 15.08275C18.918516 15.26775 18.868063 15.309796 18.685867 15.309796C16.583603 15.304191 14.478536 15.306993 12.373467 15.306993C9.6769619 15.306993 6.980454 15.312598 4.2839484 15.304189C2.4956214 15.295779 0.85865903 14.118512 0.25600961 12.439503C0.071010262 11.929353 0.0065403804 11.399582 0.0037373602 10.861403C0.0037373602 8.7255011 -0.0046717003 6.5895991 0.0037373602 4.4536977C0.012146421 2.3458264 1.3267628 0.6219694 3.2860739 0.12583484C3.5944061 0.047350265 3.9055409 0.0025017965 4.2250853 0.0025017965C9.1724167 0.0025017965 14.119748 -0.005907136 19.064276 0.0081079658C21.245026 0.013714006 23.134262 1.8609042 23.237974 4.0416541C23.24358 4.1705933 23.246382 4.2995324 23.246382 4.4312744C23.246382 7.971489 23.24358 11.514505 23.251989 15.05472C23.251989 15.276158 23.190321 15.321007 22.982897 15.315401C22.447519 15.298583 21.909344 15.301386 21.373966 15.315401C21.177755 15.321007 21.135708 15.259341 21.135708 15.074342C21.141314 11.548142 21.138512 8.024745 21.141315 4.4985456C21.141315 4.0332441 21.076845 3.5903683 20.816164 3.1979454C20.353666 2.4999933 19.708969 2.1271913 18.856852 2.1299944C16.45186 2.1243885 14.038461 2.1215856 11.627863 2.1215856Z"/>
	</g>
	<clipPath id="cl_1ed">
		<path d="M-232.97607 -15L-232.97607 35Q-232.97607 35.122742 -232.97003 35.245338Q-232.96402 35.367935 -232.952 35.490086Q-232.93996 35.612236 -232.92195 35.73365Q-232.90393 35.855064 -232.87997 35.975452Q-232.85602 36.095833 -232.8262 36.214897Q-232.79639 36.333961 -232.76077 36.451424Q-232.72513 36.568878 -232.68378 36.684444Q-232.64243 36.800011 -232.59546 36.913414Q-232.54849 37.026814 -232.496 37.137775Q-232.44353 37.248734 -232.38568 37.356987Q-232.32782 37.465233 -232.26471 37.570515Q-232.2016 37.675797 -232.13341 37.777851Q-232.06522 37.87991 -231.9921 37.9785Q-231.91898 38.077087 -231.84113 38.17197Q-231.76324 38.26685 -231.68082 38.357796Q-231.59839 38.448738 -231.5116 38.535534Q-231.4248 38.622326 -231.33386 38.704754Q-231.24292 38.787186 -231.14804 38.865051Q-231.05316 38.942917 -230.95456 39.016033Q-230.85596 39.089153 -230.75391 39.157345Q-230.65186 39.22554 -230.54657 39.288639Q-230.44128 39.351746 -230.33304 39.409607Q-230.22479 39.467468 -230.11383 39.519943Q-230.00287 39.572426 -229.88947 39.619396Q-229.77606 39.66637 -229.66052 39.707722Q-229.54495 39.749073 -229.42751 39.784702Q-229.31004 39.820332 -229.19098 39.850155Q-229.0719 39.879978 -228.95151 39.903923Q-228.83112 39.927872 -228.70972 39.945885Q-228.58832 39.963894 -228.46617 39.975925Q-228.34401 39.987953 -228.22142 39.993977Q-228.09882 40 -227.97607 40L208.02393 40Q208.14667 40 208.26926 39.993977Q208.39185 39.987957 208.51401 39.975929Q208.63615 39.963898 208.75757 39.945885Q208.87897 39.927872 208.99936 39.903927Q209.11975 39.879982 209.23883 39.850159Q209.35789 39.820335 209.47536 39.784706Q209.5928 39.749077 209.70837 39.707726Q209.82393 39.66637 209.93733 39.619396Q210.05072 39.572426 210.16168 39.519947Q210.27264 39.467468 210.38091 39.409607Q210.48914 39.351746 210.59442 39.288639Q210.69971 39.22554 210.80176 39.157345Q210.90381 39.089153 211.00241 39.016037Q211.10101 38.942917 211.19591 38.865051Q211.29079 38.787186 211.38173 38.704758Q211.47267 38.622326 211.55946 38.535534Q211.64626 38.448738 211.72868 38.357796Q211.81113 38.26685 211.88899 38.17197Q211.96686 38.077087 212.03996 37.978497Q212.11307 37.87991 212.18126 37.777851Q212.24945 37.675797 212.31256 37.570511Q212.37567 37.465233 212.43353 37.356983Q212.49138 37.248734 212.54385 37.137772Q212.59634 37.026814 212.64331 36.913414Q212.69028 36.800011 212.73163 36.684444Q212.77298 36.568878 212.80862 36.451424Q212.84424 36.333961 212.87407 36.214897Q212.9039 36.095833 212.92784 35.975452Q212.95178 35.855064 212.96979 35.73365Q212.98781 35.612236 212.99985 35.490086Q213.01187 35.367935 213.0179 35.245338Q213.02393 35.122742 213.02393 35L213.02393 -15Q213.02393 -15.122743 213.01788 -15.245338Q213.01187 -15.367933 212.99985 -15.490086Q212.98781 -15.612238 212.96979 -15.733652Q212.95178 -15.855066 212.92784 -15.975451Q212.9039 -16.095835 212.87408 -16.214901Q212.84424 -16.333965 212.80862 -16.451424Q212.77298 -16.568882 212.73163 -16.68445Q212.69028 -16.800018 212.64331 -16.913416Q212.59634 -17.026817 212.54385 -17.137775Q212.49138 -17.248734 212.43353 -17.356983Q212.37566 -17.465233 212.31256 -17.570515Q212.24945 -17.675795 212.18126 -17.777851Q212.11307 -17.87991 212.03995 -17.978497Q211.96683 -18.077084 211.88898 -18.171967Q211.8111 -18.266846 211.72868 -18.357792Q211.64624 -18.44874 211.55945 -18.535534Q211.47266 -18.622326 211.38171 -18.704754Q211.29077 -18.787184 211.19589 -18.865051Q211.101 -18.942919 211.0024 -19.016037Q210.90381 -19.089155 210.80174 -19.157347Q210.69968 -19.22554 210.59442 -19.288643Q210.48914 -19.351746 210.38089 -19.409607Q210.27263 -19.467468 210.16168 -19.519947Q210.05072 -19.572426 209.93732 -19.619396Q209.82391 -19.666368 209.70834 -19.70772Q209.59279 -19.749071 209.47534 -19.784702Q209.35788 -19.820332 209.23882 -19.850155Q209.11975 -19.87998 208.99936 -19.903927Q208.87897 -19.927872 208.75757 -19.945883Q208.63615 -19.963894 208.51401 -19.975925Q208.39185 -19.987955 208.26926 -19.993979Q208.14667 -20 208.02393 -20L-227.97607 -20Q-228.09882 -20 -228.22141 -19.993977Q-228.34399 -19.987955 -228.46616 -19.975925Q-228.5883 -19.963894 -228.70972 -19.945885Q-228.83112 -19.927872 -228.95151 -19.903927Q-229.0719 -19.87998 -229.19096 -19.850157Q-229.31003 -19.820332 -229.42749 -19.784702Q-229.54495 -19.749071 -229.66051 -19.70772Q-229.77606 -19.666368 -229.88947 -19.619396Q-230.00287 -19.572426 -230.11383 -19.519947Q-230.22479 -19.467468 -230.33305 -19.409607Q-230.44128 -19.351746 -230.54657 -19.288643Q-230.65186 -19.22554 -230.75391 -19.157347Q-230.85596 -19.089155 -230.95456 -19.016037Q-231.05316 -18.942919 -231.14804 -18.865051Q-231.24292 -18.787184 -231.33386 -18.704754Q-231.4248 -18.622326 -231.5116 -18.535534Q-231.59839 -18.44874 -231.68082 -18.357794Q-231.76324 -18.266846 -231.84113 -18.171967Q-231.91898 -18.077084 -231.9921 -17.978497Q-232.06522 -17.879906 -232.13341 -17.777849Q-232.2016 -17.675793 -232.26469 -17.570513Q-232.32779 -17.465233 -232.38567 -17.356985Q-232.44351 -17.248734 -232.496 -17.137775Q-232.54848 -17.026817 -232.59544 -16.913416Q-232.64243 -16.800018 -232.68376 -16.684448Q-232.72513 -16.568882 -232.76076 -16.451424Q-232.79639 -16.333965 -232.8262 -16.214901Q-232.85602 -16.095835 -232.87997 -15.975451Q-232.90393 -15.855066 -232.92194 -15.733652Q-232.93996 -15.612238 -232.952 -15.490086Q-232.96402 -15.367933 -232.97003 -15.245338Q-232.97607 -15.122743 -232.97607 -15Z" clip-rule="evenodd"/>
	</clipPath>
	<g clip-path="url(#cl_1ed)">
		<path fill="#666" transform="translate(81.4578 4.66992)" d="M9.9312115 15.316051C6.8591013 15.316051 3.7897959 15.313246 0.71768534 15.321655C0.52147388 15.321655 0.45419767 15.28802 0.45980373 15.07499C0.47662187 14.531204 0.47942486 13.984614 0.45980373 13.440828C0.45139468 13.213783 0.52707654 13.180148 0.73169702 13.180148C3.8766861 13.185754 7.0188694 13.185754 10.163858 13.185754C13.056576 13.185754 15.949291 13.182951 18.842009 13.185754C19.828672 13.185754 20.523827 12.728861 20.958294 11.857121C21.076021 11.624471 21.137684 11.369396 21.137684 11.105912C21.14329 10.365914 21.13769 9.6287212 21.143295 8.8887234C21.146099 8.7485723 21.098442 8.7121334 20.963898 8.7121334C20.445339 8.7177391 19.923977 8.7149363 19.405418 8.7149363C14.432859 8.7149363 9.4603014 8.7149363 4.4877429 8.7149363C2.5536587 8.7149363 1.1829847 7.8123631 0.34768462 6.0857024C0.092609763 5.5587344 0.0085187797 4.9869194 0.0057157595 4.4066939C0.0057157595 3.0079868 0.0085133053 1.6120822 0.00010424348 0.21337509C-0.002698777 0.039587826 0.050564095 -0.0024575535 0.21594229 0.0003454668C0.7849555 0.011557548 1.3539677 0.011557548 1.9229808 0.0003454668C2.1051772 -0.0024575535 2.1304073 0.062012181 2.1276042 0.22178435C2.1219983 1.5784463 2.1247985 2.9351077 2.1247985 4.2917695C2.1247985 5.6400223 3.0778263 6.5986557 4.4204731 6.5986557C9.9143934 6.5986557 15.40551 6.5986557 20.896627 6.6042619C21.106853 6.6042619 21.146099 6.5453987 21.143295 6.3491874C21.13769 4.3169975 21.140491 2.2876101 21.134886 0.2554203C21.134886 0.056405842 21.176926 -0.0052605742 21.38435 0.0003454668C21.936544 0.01716359 22.488743 0.011557613 23.040937 0.0031485516C23.186695 0.00034553115 23.251163 0.025572866 23.251163 0.19655712C23.245558 3.8040445 23.262373 7.4115314 23.239948 11.019019C23.225933 13.124087 21.771168 14.83393 19.719357 15.243171C19.408222 15.304837 19.09148 15.316051 18.774738 15.316051C15.828764 15.316051 12.87999 15.316051 9.9312115 15.316051Z"/>
	</g>
	<clipPath id="cl_1ee">
		<path d="M-232.97607 -15L-232.97607 35Q-232.97607 35.122742 -232.97003 35.245338Q-232.96402 35.367935 -232.952 35.490086Q-232.93996 35.612236 -232.92195 35.73365Q-232.90393 35.855064 -232.87997 35.975452Q-232.85602 36.095833 -232.8262 36.214897Q-232.79639 36.333961 -232.76077 36.451424Q-232.72513 36.568878 -232.68378 36.684444Q-232.64243 36.800011 -232.59546 36.913414Q-232.54849 37.026814 -232.496 37.137775Q-232.44353 37.248734 -232.38568 37.356987Q-232.32782 37.465233 -232.26471 37.570515Q-232.2016 37.675797 -232.13341 37.777851Q-232.06522 37.87991 -231.9921 37.9785Q-231.91898 38.077087 -231.84113 38.17197Q-231.76324 38.26685 -231.68082 38.357796Q-231.59839 38.448738 -231.5116 38.535534Q-231.4248 38.622326 -231.33386 38.704754Q-231.24292 38.787186 -231.14804 38.865051Q-231.05316 38.942917 -230.95456 39.016033Q-230.85596 39.089153 -230.75391 39.157345Q-230.65186 39.22554 -230.54657 39.288639Q-230.44128 39.351746 -230.33304 39.409607Q-230.22479 39.467468 -230.11383 39.519943Q-230.00287 39.572426 -229.88947 39.619396Q-229.77606 39.66637 -229.66052 39.707722Q-229.54495 39.749073 -229.42751 39.784702Q-229.31004 39.820332 -229.19098 39.850155Q-229.0719 39.879978 -228.95151 39.903923Q-228.83112 39.927872 -228.70972 39.945885Q-228.58832 39.963894 -228.46617 39.975925Q-228.34401 39.987953 -228.22142 39.993977Q-228.09882 40 -227.97607 40L208.02393 40Q208.14667 40 208.26926 39.993977Q208.39185 39.987957 208.51401 39.975929Q208.63615 39.963898 208.75757 39.945885Q208.87897 39.927872 208.99936 39.903927Q209.11975 39.879982 209.23883 39.850159Q209.35789 39.820335 209.47536 39.784706Q209.5928 39.749077 209.70837 39.707726Q209.82393 39.66637 209.93733 39.619396Q210.05072 39.572426 210.16168 39.519947Q210.27264 39.467468 210.38091 39.409607Q210.48914 39.351746 210.59442 39.288639Q210.69971 39.22554 210.80176 39.157345Q210.90381 39.089153 211.00241 39.016037Q211.10101 38.942917 211.19591 38.865051Q211.29079 38.787186 211.38173 38.704758Q211.47267 38.622326 211.55946 38.535534Q211.64626 38.448738 211.72868 38.357796Q211.81113 38.26685 211.88899 38.17197Q211.96686 38.077087 212.03996 37.978497Q212.11307 37.87991 212.18126 37.777851Q212.24945 37.675797 212.31256 37.570511Q212.37567 37.465233 212.43353 37.356983Q212.49138 37.248734 212.54385 37.137772Q212.59634 37.026814 212.64331 36.913414Q212.69028 36.800011 212.73163 36.684444Q212.77298 36.568878 212.80862 36.451424Q212.84424 36.333961 212.87407 36.214897Q212.9039 36.095833 212.92784 35.975452Q212.95178 35.855064 212.96979 35.73365Q212.98781 35.612236 212.99985 35.490086Q213.01187 35.367935 213.0179 35.245338Q213.02393 35.122742 213.02393 35L213.02393 -15Q213.02393 -15.122743 213.01788 -15.245338Q213.01187 -15.367933 212.99985 -15.490086Q212.98781 -15.612238 212.96979 -15.733652Q212.95178 -15.855066 212.92784 -15.975451Q212.9039 -16.095835 212.87408 -16.214901Q212.84424 -16.333965 212.80862 -16.451424Q212.77298 -16.568882 212.73163 -16.68445Q212.69028 -16.800018 212.64331 -16.913416Q212.59634 -17.026817 212.54385 -17.137775Q212.49138 -17.248734 212.43353 -17.356983Q212.37566 -17.465233 212.31256 -17.570515Q212.24945 -17.675795 212.18126 -17.777851Q212.11307 -17.87991 212.03995 -17.978497Q211.96683 -18.077084 211.88898 -18.171967Q211.8111 -18.266846 211.72868 -18.357792Q211.64624 -18.44874 211.55945 -18.535534Q211.47266 -18.622326 211.38171 -18.704754Q211.29077 -18.787184 211.19589 -18.865051Q211.101 -18.942919 211.0024 -19.016037Q210.90381 -19.089155 210.80174 -19.157347Q210.69968 -19.22554 210.59442 -19.288643Q210.48914 -19.351746 210.38089 -19.409607Q210.27263 -19.467468 210.16168 -19.519947Q210.05072 -19.572426 209.93732 -19.619396Q209.82391 -19.666368 209.70834 -19.70772Q209.59279 -19.749071 209.47534 -19.784702Q209.35788 -19.820332 209.23882 -19.850155Q209.11975 -19.87998 208.99936 -19.903927Q208.87897 -19.927872 208.75757 -19.945883Q208.63615 -19.963894 208.51401 -19.975925Q208.39185 -19.987955 208.26926 -19.993979Q208.14667 -20 208.02393 -20L-227.97607 -20Q-228.09882 -20 -228.22141 -19.993977Q-228.34399 -19.987955 -228.46616 -19.975925Q-228.5883 -19.963894 -228.70972 -19.945885Q-228.83112 -19.927872 -228.95151 -19.903927Q-229.0719 -19.87998 -229.19096 -19.850157Q-229.31003 -19.820332 -229.42749 -19.784702Q-229.54495 -19.749071 -229.66051 -19.70772Q-229.77606 -19.666368 -229.88947 -19.619396Q-230.00287 -19.572426 -230.11383 -19.519947Q-230.22479 -19.467468 -230.33305 -19.409607Q-230.44128 -19.351746 -230.54657 -19.288643Q-230.65186 -19.22554 -230.75391 -19.157347Q-230.85596 -19.089155 -230.95456 -19.016037Q-231.05316 -18.942919 -231.14804 -18.865051Q-231.24292 -18.787184 -231.33386 -18.704754Q-231.4248 -18.622326 -231.5116 -18.535534Q-231.59839 -18.44874 -231.68082 -18.357794Q-231.76324 -18.266846 -231.84113 -18.171967Q-231.91898 -18.077084 -231.9921 -17.978497Q-232.06522 -17.879906 -232.13341 -17.777849Q-232.2016 -17.675793 -232.26469 -17.570513Q-232.32779 -17.465233 -232.38567 -17.356985Q-232.44351 -17.248734 -232.496 -17.137775Q-232.54848 -17.026817 -232.59544 -16.913416Q-232.64243 -16.800018 -232.68376 -16.684448Q-232.72513 -16.568882 -232.76076 -16.451424Q-232.79639 -16.333965 -232.8262 -16.214901Q-232.85602 -16.095835 -232.87997 -15.975451Q-232.90393 -15.855066 -232.92194 -15.733652Q-232.93996 -15.612238 -232.952 -15.490086Q-232.96402 -15.367933 -232.97003 -15.245338Q-232.97607 -15.122743 -232.97607 -15Z" clip-rule="evenodd"/>
	</clipPath>
	<g clip-path="url(#cl_1ee)">
		<path fill="#666" transform="translate(162.836 4.67285)" d="M13.569126 15.312902C10.497016 15.312902 7.4276934 15.315705 4.3555832 15.312902C2.4663477 15.3101 0.75651455 14.051542 0.19591053 12.246397C0.064168572 11.825944 0.0053072129 11.388672 0.0053072129 10.951401C-0.00029882742 8.7566357 -0.0031018476 6.5646734 0.0053072129 4.3699083C0.013716273 2.2564309 1.4768941 0.48492262 3.5455232 0.072878599C3.7585528 0.030833289 3.979979 0.0084092543 4.1986146 0.0084092543C10.471773 0.0056062341 16.742132 0.0056060408 23.015291 0C23.2087 0 23.264763 0.050454602 23.261959 0.24386302C23.247944 0.78764904 23.24514 1.331435 23.261959 1.8752209C23.267565 2.0994625 23.191889 2.1415074 22.987268 2.1415074C18.073574 2.1359015 13.15708 2.1359019 8.2405825 2.1359019C6.9652081 2.1359019 5.6870236 2.1667349 4.4144526 2.1274927C3.1979418 2.0882504 2.1215806 3.1337769 2.1355958 4.4063482C2.1608229 6.5506592 2.1720321 8.697773 2.1327899 10.83928C2.1103656 12.097836 3.1222665 13.191014 4.4733224 13.185409C10.61474 13.157378 16.758957 13.174196 22.900375 13.174196C23.301207 13.174196 23.253561 13.129349 23.256365 13.518969C23.259169 14.023512 23.24514 14.528056 23.261959 15.029797C23.267565 15.251235 23.208702 15.312902 22.981657 15.312902C19.842274 15.3101 16.705706 15.312902 13.569126 15.312902Z"/>
	</g>
	<clipPath id="cl_1ef">
		<path d="M-232.97607 -15L-232.97607 35Q-232.97607 35.122742 -232.97003 35.245338Q-232.96402 35.367935 -232.952 35.490086Q-232.93996 35.612236 -232.92195 35.73365Q-232.90393 35.855064 -232.87997 35.975452Q-232.85602 36.095833 -232.8262 36.214897Q-232.79639 36.333961 -232.76077 36.451424Q-232.72513 36.568878 -232.68378 36.684444Q-232.64243 36.800011 -232.59546 36.913414Q-232.54849 37.026814 -232.496 37.137775Q-232.44353 37.248734 -232.38568 37.356987Q-232.32782 37.465233 -232.26471 37.570515Q-232.2016 37.675797 -232.13341 37.777851Q-232.06522 37.87991 -231.9921 37.9785Q-231.91898 38.077087 -231.84113 38.17197Q-231.76324 38.26685 -231.68082 38.357796Q-231.59839 38.448738 -231.5116 38.535534Q-231.4248 38.622326 -231.33386 38.704754Q-231.24292 38.787186 -231.14804 38.865051Q-231.05316 38.942917 -230.95456 39.016033Q-230.85596 39.089153 -230.75391 39.157345Q-230.65186 39.22554 -230.54657 39.288639Q-230.44128 39.351746 -230.33304 39.409607Q-230.22479 39.467468 -230.11383 39.519943Q-230.00287 39.572426 -229.88947 39.619396Q-229.77606 39.66637 -229.66052 39.707722Q-229.54495 39.749073 -229.42751 39.784702Q-229.31004 39.820332 -229.19098 39.850155Q-229.0719 39.879978 -228.95151 39.903923Q-228.83112 39.927872 -228.70972 39.945885Q-228.58832 39.963894 -228.46617 39.975925Q-228.34401 39.987953 -228.22142 39.993977Q-228.09882 40 -227.97607 40L208.02393 40Q208.14667 40 208.26926 39.993977Q208.39185 39.987957 208.51401 39.975929Q208.63615 39.963898 208.75757 39.945885Q208.87897 39.927872 208.99936 39.903927Q209.11975 39.879982 209.23883 39.850159Q209.35789 39.820335 209.47536 39.784706Q209.5928 39.749077 209.70837 39.707726Q209.82393 39.66637 209.93733 39.619396Q210.05072 39.572426 210.16168 39.519947Q210.27264 39.467468 210.38091 39.409607Q210.48914 39.351746 210.59442 39.288639Q210.69971 39.22554 210.80176 39.157345Q210.90381 39.089153 211.00241 39.016037Q211.10101 38.942917 211.19591 38.865051Q211.29079 38.787186 211.38173 38.704758Q211.47267 38.622326 211.55946 38.535534Q211.64626 38.448738 211.72868 38.357796Q211.81113 38.26685 211.88899 38.17197Q211.96686 38.077087 212.03996 37.978497Q212.11307 37.87991 212.18126 37.777851Q212.24945 37.675797 212.31256 37.570511Q212.37567 37.465233 212.43353 37.356983Q212.49138 37.248734 212.54385 37.137772Q212.59634 37.026814 212.64331 36.913414Q212.69028 36.800011 212.73163 36.684444Q212.77298 36.568878 212.80862 36.451424Q212.84424 36.333961 212.87407 36.214897Q212.9039 36.095833 212.92784 35.975452Q212.95178 35.855064 212.96979 35.73365Q212.98781 35.612236 212.99985 35.490086Q213.01187 35.367935 213.0179 35.245338Q213.02393 35.122742 213.02393 35L213.02393 -15Q213.02393 -15.122743 213.01788 -15.245338Q213.01187 -15.367933 212.99985 -15.490086Q212.98781 -15.612238 212.96979 -15.733652Q212.95178 -15.855066 212.92784 -15.975451Q212.9039 -16.095835 212.87408 -16.214901Q212.84424 -16.333965 212.80862 -16.451424Q212.77298 -16.568882 212.73163 -16.68445Q212.69028 -16.800018 212.64331 -16.913416Q212.59634 -17.026817 212.54385 -17.137775Q212.49138 -17.248734 212.43353 -17.356983Q212.37566 -17.465233 212.31256 -17.570515Q212.24945 -17.675795 212.18126 -17.777851Q212.11307 -17.87991 212.03995 -17.978497Q211.96683 -18.077084 211.88898 -18.171967Q211.8111 -18.266846 211.72868 -18.357792Q211.64624 -18.44874 211.55945 -18.535534Q211.47266 -18.622326 211.38171 -18.704754Q211.29077 -18.787184 211.19589 -18.865051Q211.101 -18.942919 211.0024 -19.016037Q210.90381 -19.089155 210.80174 -19.157347Q210.69968 -19.22554 210.59442 -19.288643Q210.48914 -19.351746 210.38089 -19.409607Q210.27263 -19.467468 210.16168 -19.519947Q210.05072 -19.572426 209.93732 -19.619396Q209.82391 -19.666368 209.70834 -19.70772Q209.59279 -19.749071 209.47534 -19.784702Q209.35788 -19.820332 209.23882 -19.850155Q209.11975 -19.87998 208.99936 -19.903927Q208.87897 -19.927872 208.75757 -19.945883Q208.63615 -19.963894 208.51401 -19.975925Q208.39185 -19.987955 208.26926 -19.993979Q208.14667 -20 208.02393 -20L-227.97607 -20Q-228.09882 -20 -228.22141 -19.993977Q-228.34399 -19.987955 -228.46616 -19.975925Q-228.5883 -19.963894 -228.70972 -19.945885Q-228.83112 -19.927872 -228.95151 -19.903927Q-229.0719 -19.87998 -229.19096 -19.850157Q-229.31003 -19.820332 -229.42749 -19.784702Q-229.54495 -19.749071 -229.66051 -19.70772Q-229.77606 -19.666368 -229.88947 -19.619396Q-230.00287 -19.572426 -230.11383 -19.519947Q-230.22479 -19.467468 -230.33305 -19.409607Q-230.44128 -19.351746 -230.54657 -19.288643Q-230.65186 -19.22554 -230.75391 -19.157347Q-230.85596 -19.089155 -230.95456 -19.016037Q-231.05316 -18.942919 -231.14804 -18.865051Q-231.24292 -18.787184 -231.33386 -18.704754Q-231.4248 -18.622326 -231.5116 -18.535534Q-231.59839 -18.44874 -231.68082 -18.357794Q-231.76324 -18.266846 -231.84113 -18.171967Q-231.91898 -18.077084 -231.9921 -17.978497Q-232.06522 -17.879906 -232.13341 -17.777849Q-232.2016 -17.675793 -232.26469 -17.570513Q-232.32779 -17.465233 -232.38567 -17.356985Q-232.44351 -17.248734 -232.496 -17.137775Q-232.54848 -17.026817 -232.59544 -16.913416Q-232.64243 -16.800018 -232.68376 -16.684448Q-232.72513 -16.568882 -232.76076 -16.451424Q-232.79639 -16.333965 -232.8262 -16.214901Q-232.85602 -16.095835 -232.87997 -15.975451Q-232.90393 -15.855066 -232.92194 -15.733652Q-232.93996 -15.612238 -232.952 -15.490086Q-232.96402 -15.367933 -232.97003 -15.245338Q-232.97607 -15.122743 -232.97607 -15Z" clip-rule="evenodd"/>
	</clipPath>
	<g clip-path="url(#cl_1ef)">
		<path fill="#666" transform="translate(108.384 4.67285)" d="M23.25666 4.5464988C23.25666 4.2942271 23.24264 4.0447588 23.217413 3.7924869C22.990368 1.7042367 21.129164 0.01121221 19.029701 0.0056061693C15.926758 1.2852252e-07 12.821011 0.0056061693 9.7180672 0.0056061693L9.7180672 0.0028030847C6.5646696 0.0028030847 3.4140766 0.0056060408 0.26067883 0C0.067270428 0 0 0.039242119 0 0.24946865C0.0056060404 5.1883912 0.0056060404 10.127314 0 15.069038C0 15.251235 0.033629388 15.318507 0.23824988 15.318507C6.4945912 15.312901 12.750937 15.315704 19.004475 15.310099C19.5847 15.310099 20.156515 15.203584 20.677877 14.9401C22.312038 14.118814 23.228622 12.809802 23.248243 10.957006C23.276274 8.821104 23.25666 6.6852036 23.25666 4.5464988ZM19.346443 13.143363C19.189474 13.176999 19.024092 13.177 18.861517 13.177C13.370399 13.179803 7.882093 13.176999 2.390976 13.182605C2.1807494 13.182605 2.1386974 13.115332 2.1386974 12.91912C2.1443033 9.4097385 2.1443033 5.9003582 2.1386974 2.3937793C2.1386974 2.1863558 2.1975672 2.1359019 2.3993847 2.1359019C5.1855869 2.1415079 7.9717884 2.1387043 10.755188 2.1387043C13.476921 2.1387043 16.195848 2.1359015 18.917582 2.1415074C19.979927 2.1415074 20.857269 2.8366566 21.087116 3.8541532C21.131964 4.0503645 21.151588 4.2549849 21.151588 4.4568024C21.157194 6.5927038 21.157194 8.7286062 21.151588 10.864508C21.151588 12.013746 20.436817 12.916318 19.346443 13.143363Z"/>
	</g>
	<clipPath id="cl_1f0">
		<path d="M-232.97607 -15L-232.97607 35Q-232.97607 35.122742 -232.97003 35.245338Q-232.96402 35.367935 -232.952 35.490086Q-232.93996 35.612236 -232.92195 35.73365Q-232.90393 35.855064 -232.87997 35.975452Q-232.85602 36.095833 -232.8262 36.214897Q-232.79639 36.333961 -232.76077 36.451424Q-232.72513 36.568878 -232.68378 36.684444Q-232.64243 36.800011 -232.59546 36.913414Q-232.54849 37.026814 -232.496 37.137775Q-232.44353 37.248734 -232.38568 37.356987Q-232.32782 37.465233 -232.26471 37.570515Q-232.2016 37.675797 -232.13341 37.777851Q-232.06522 37.87991 -231.9921 37.9785Q-231.91898 38.077087 -231.84113 38.17197Q-231.76324 38.26685 -231.68082 38.357796Q-231.59839 38.448738 -231.5116 38.535534Q-231.4248 38.622326 -231.33386 38.704754Q-231.24292 38.787186 -231.14804 38.865051Q-231.05316 38.942917 -230.95456 39.016033Q-230.85596 39.089153 -230.75391 39.157345Q-230.65186 39.22554 -230.54657 39.288639Q-230.44128 39.351746 -230.33304 39.409607Q-230.22479 39.467468 -230.11383 39.519943Q-230.00287 39.572426 -229.88947 39.619396Q-229.77606 39.66637 -229.66052 39.707722Q-229.54495 39.749073 -229.42751 39.784702Q-229.31004 39.820332 -229.19098 39.850155Q-229.0719 39.879978 -228.95151 39.903923Q-228.83112 39.927872 -228.70972 39.945885Q-228.58832 39.963894 -228.46617 39.975925Q-228.34401 39.987953 -228.22142 39.993977Q-228.09882 40 -227.97607 40L208.02393 40Q208.14667 40 208.26926 39.993977Q208.39185 39.987957 208.51401 39.975929Q208.63615 39.963898 208.75757 39.945885Q208.87897 39.927872 208.99936 39.903927Q209.11975 39.879982 209.23883 39.850159Q209.35789 39.820335 209.47536 39.784706Q209.5928 39.749077 209.70837 39.707726Q209.82393 39.66637 209.93733 39.619396Q210.05072 39.572426 210.16168 39.519947Q210.27264 39.467468 210.38091 39.409607Q210.48914 39.351746 210.59442 39.288639Q210.69971 39.22554 210.80176 39.157345Q210.90381 39.089153 211.00241 39.016037Q211.10101 38.942917 211.19591 38.865051Q211.29079 38.787186 211.38173 38.704758Q211.47267 38.622326 211.55946 38.535534Q211.64626 38.448738 211.72868 38.357796Q211.81113 38.26685 211.88899 38.17197Q211.96686 38.077087 212.03996 37.978497Q212.11307 37.87991 212.18126 37.777851Q212.24945 37.675797 212.31256 37.570511Q212.37567 37.465233 212.43353 37.356983Q212.49138 37.248734 212.54385 37.137772Q212.59634 37.026814 212.64331 36.913414Q212.69028 36.800011 212.73163 36.684444Q212.77298 36.568878 212.80862 36.451424Q212.84424 36.333961 212.87407 36.214897Q212.9039 36.095833 212.92784 35.975452Q212.95178 35.855064 212.96979 35.73365Q212.98781 35.612236 212.99985 35.490086Q213.01187 35.367935 213.0179 35.245338Q213.02393 35.122742 213.02393 35L213.02393 -15Q213.02393 -15.122743 213.01788 -15.245338Q213.01187 -15.367933 212.99985 -15.490086Q212.98781 -15.612238 212.96979 -15.733652Q212.95178 -15.855066 212.92784 -15.975451Q212.9039 -16.095835 212.87408 -16.214901Q212.84424 -16.333965 212.80862 -16.451424Q212.77298 -16.568882 212.73163 -16.68445Q212.69028 -16.800018 212.64331 -16.913416Q212.59634 -17.026817 212.54385 -17.137775Q212.49138 -17.248734 212.43353 -17.356983Q212.37566 -17.465233 212.31256 -17.570515Q212.24945 -17.675795 212.18126 -17.777851Q212.11307 -17.87991 212.03995 -17.978497Q211.96683 -18.077084 211.88898 -18.171967Q211.8111 -18.266846 211.72868 -18.357792Q211.64624 -18.44874 211.55945 -18.535534Q211.47266 -18.622326 211.38171 -18.704754Q211.29077 -18.787184 211.19589 -18.865051Q211.101 -18.942919 211.0024 -19.016037Q210.90381 -19.089155 210.80174 -19.157347Q210.69968 -19.22554 210.59442 -19.288643Q210.48914 -19.351746 210.38089 -19.409607Q210.27263 -19.467468 210.16168 -19.519947Q210.05072 -19.572426 209.93732 -19.619396Q209.82391 -19.666368 209.70834 -19.70772Q209.59279 -19.749071 209.47534 -19.784702Q209.35788 -19.820332 209.23882 -19.850155Q209.11975 -19.87998 208.99936 -19.903927Q208.87897 -19.927872 208.75757 -19.945883Q208.63615 -19.963894 208.51401 -19.975925Q208.39185 -19.987955 208.26926 -19.993979Q208.14667 -20 208.02393 -20L-227.97607 -20Q-228.09882 -20 -228.22141 -19.993977Q-228.34399 -19.987955 -228.46616 -19.975925Q-228.5883 -19.963894 -228.70972 -19.945885Q-228.83112 -19.927872 -228.95151 -19.903927Q-229.0719 -19.87998 -229.19096 -19.850157Q-229.31003 -19.820332 -229.42749 -19.784702Q-229.54495 -19.749071 -229.66051 -19.70772Q-229.77606 -19.666368 -229.88947 -19.619396Q-230.00287 -19.572426 -230.11383 -19.519947Q-230.22479 -19.467468 -230.33305 -19.409607Q-230.44128 -19.351746 -230.54657 -19.288643Q-230.65186 -19.22554 -230.75391 -19.157347Q-230.85596 -19.089155 -230.95456 -19.016037Q-231.05316 -18.942919 -231.14804 -18.865051Q-231.24292 -18.787184 -231.33386 -18.704754Q-231.4248 -18.622326 -231.5116 -18.535534Q-231.59839 -18.44874 -231.68082 -18.357794Q-231.76324 -18.266846 -231.84113 -18.171967Q-231.91898 -18.077084 -231.9921 -17.978497Q-232.06522 -17.879906 -232.13341 -17.777849Q-232.2016 -17.675793 -232.26469 -17.570513Q-232.32779 -17.465233 -232.38567 -17.356985Q-232.44351 -17.248734 -232.496 -17.137775Q-232.54848 -17.026817 -232.59544 -16.913416Q-232.64243 -16.800018 -232.68376 -16.684448Q-232.72513 -16.568882 -232.76076 -16.451424Q-232.79639 -16.333965 -232.8262 -16.214901Q-232.85602 -16.095835 -232.87997 -15.975451Q-232.90393 -15.855066 -232.92194 -15.733652Q-232.93996 -15.612238 -232.952 -15.490086Q-232.96402 -15.367933 -232.97003 -15.245338Q-232.97607 -15.122743 -232.97607 -15Z" clip-rule="evenodd"/>
	</clipPath>
	<g clip-path="url(#cl_1f0)">
		<path fill="#666" transform="translate(135.492 4.67871)" d="M23.250759 4.1867409C23.250759 4.0157566 23.228329 3.8475752 23.208708 3.679394C22.95924 1.672431 21.098036 0.010239422 19.077059 0.0046333801C16.607597 -0.0037756823 14.138138 0.0018308295 11.668677 0.0018308295C9.1908073 0.0018308295 6.7129335 0.0018308295 4.2350636 0.0018308295C3.9883978 0.0018308295 3.7473416 0.02705761 3.511888 0.077511989C1.420835 0.52879834 0.013716272 2.2554598 0.0053072125 4.3969679C-0.0031018471 6.5665064 -0.00029882742 8.7332401 0.0053072125 10.902779C0.0053072125 11.160657 0.01932539 11.424141 0.069779754 11.676413C0.48462671 13.857162 2.2393155 15.303522 4.4565043 15.303522C9.1908054 15.303522 13.927916 15.303522 18.662216 15.303522C18.95373 15.303522 19.245245 15.29231 19.536758 15.261477C21.473644 15.054053 23.228327 13.173225 23.242342 11.227929C23.264767 8.8818007 23.250759 6.5328693 23.250759 4.1867409ZM21.1513 10.897173C21.1513 12.200578 20.203871 13.16762 18.900467 13.16762C14.059651 13.173225 9.2160301 13.173225 4.3752146 13.16762C3.0746133 13.16762 2.141207 12.214593 2.141207 10.911188C2.141207 8.7332411 2.1580284 6.555294 2.1356041 4.3801494C2.1215889 3.1159868 3.2063575 2.1068995 4.3864288 2.1237175C6.808238 2.1545508 9.2272453 2.1321263 11.649055 2.1321263C14.037228 2.1321263 16.4254 2.1685658 18.813574 2.1181114C20.074932 2.0928841 21.193344 3.1468201 21.168118 4.4866643C21.120466 6.6225662 21.154104 8.7584677 21.1513 10.897173Z"/>
	</g>
	<clipPath id="cl_1f1">
		<path d="M-232.97607 -15L-232.97607 35Q-232.97607 35.122742 -232.97003 35.245338Q-232.96402 35.367935 -232.952 35.490086Q-232.93996 35.612236 -232.92195 35.73365Q-232.90393 35.855064 -232.87997 35.975452Q-232.85602 36.095833 -232.8262 36.214897Q-232.79639 36.333961 -232.76077 36.451424Q-232.72513 36.568878 -232.68378 36.684444Q-232.64243 36.800011 -232.59546 36.913414Q-232.54849 37.026814 -232.496 37.137775Q-232.44353 37.248734 -232.38568 37.356987Q-232.32782 37.465233 -232.26471 37.570515Q-232.2016 37.675797 -232.13341 37.777851Q-232.06522 37.87991 -231.9921 37.9785Q-231.91898 38.077087 -231.84113 38.17197Q-231.76324 38.26685 -231.68082 38.357796Q-231.59839 38.448738 -231.5116 38.535534Q-231.4248 38.622326 -231.33386 38.704754Q-231.24292 38.787186 -231.14804 38.865051Q-231.05316 38.942917 -230.95456 39.016033Q-230.85596 39.089153 -230.75391 39.157345Q-230.65186 39.22554 -230.54657 39.288639Q-230.44128 39.351746 -230.33304 39.409607Q-230.22479 39.467468 -230.11383 39.519943Q-230.00287 39.572426 -229.88947 39.619396Q-229.77606 39.66637 -229.66052 39.707722Q-229.54495 39.749073 -229.42751 39.784702Q-229.31004 39.820332 -229.19098 39.850155Q-229.0719 39.879978 -228.95151 39.903923Q-228.83112 39.927872 -228.70972 39.945885Q-228.58832 39.963894 -228.46617 39.975925Q-228.34401 39.987953 -228.22142 39.993977Q-228.09882 40 -227.97607 40L208.02393 40Q208.14667 40 208.26926 39.993977Q208.39185 39.987957 208.51401 39.975929Q208.63615 39.963898 208.75757 39.945885Q208.87897 39.927872 208.99936 39.903927Q209.11975 39.879982 209.23883 39.850159Q209.35789 39.820335 209.47536 39.784706Q209.5928 39.749077 209.70837 39.707726Q209.82393 39.66637 209.93733 39.619396Q210.05072 39.572426 210.16168 39.519947Q210.27264 39.467468 210.38091 39.409607Q210.48914 39.351746 210.59442 39.288639Q210.69971 39.22554 210.80176 39.157345Q210.90381 39.089153 211.00241 39.016037Q211.10101 38.942917 211.19591 38.865051Q211.29079 38.787186 211.38173 38.704758Q211.47267 38.622326 211.55946 38.535534Q211.64626 38.448738 211.72868 38.357796Q211.81113 38.26685 211.88899 38.17197Q211.96686 38.077087 212.03996 37.978497Q212.11307 37.87991 212.18126 37.777851Q212.24945 37.675797 212.31256 37.570511Q212.37567 37.465233 212.43353 37.356983Q212.49138 37.248734 212.54385 37.137772Q212.59634 37.026814 212.64331 36.913414Q212.69028 36.800011 212.73163 36.684444Q212.77298 36.568878 212.80862 36.451424Q212.84424 36.333961 212.87407 36.214897Q212.9039 36.095833 212.92784 35.975452Q212.95178 35.855064 212.96979 35.73365Q212.98781 35.612236 212.99985 35.490086Q213.01187 35.367935 213.0179 35.245338Q213.02393 35.122742 213.02393 35L213.02393 -15Q213.02393 -15.122743 213.01788 -15.245338Q213.01187 -15.367933 212.99985 -15.490086Q212.98781 -15.612238 212.96979 -15.733652Q212.95178 -15.855066 212.92784 -15.975451Q212.9039 -16.095835 212.87408 -16.214901Q212.84424 -16.333965 212.80862 -16.451424Q212.77298 -16.568882 212.73163 -16.68445Q212.69028 -16.800018 212.64331 -16.913416Q212.59634 -17.026817 212.54385 -17.137775Q212.49138 -17.248734 212.43353 -17.356983Q212.37566 -17.465233 212.31256 -17.570515Q212.24945 -17.675795 212.18126 -17.777851Q212.11307 -17.87991 212.03995 -17.978497Q211.96683 -18.077084 211.88898 -18.171967Q211.8111 -18.266846 211.72868 -18.357792Q211.64624 -18.44874 211.55945 -18.535534Q211.47266 -18.622326 211.38171 -18.704754Q211.29077 -18.787184 211.19589 -18.865051Q211.101 -18.942919 211.0024 -19.016037Q210.90381 -19.089155 210.80174 -19.157347Q210.69968 -19.22554 210.59442 -19.288643Q210.48914 -19.351746 210.38089 -19.409607Q210.27263 -19.467468 210.16168 -19.519947Q210.05072 -19.572426 209.93732 -19.619396Q209.82391 -19.666368 209.70834 -19.70772Q209.59279 -19.749071 209.47534 -19.784702Q209.35788 -19.820332 209.23882 -19.850155Q209.11975 -19.87998 208.99936 -19.903927Q208.87897 -19.927872 208.75757 -19.945883Q208.63615 -19.963894 208.51401 -19.975925Q208.39185 -19.987955 208.26926 -19.993979Q208.14667 -20 208.02393 -20L-227.97607 -20Q-228.09882 -20 -228.22141 -19.993977Q-228.34399 -19.987955 -228.46616 -19.975925Q-228.5883 -19.963894 -228.70972 -19.945885Q-228.83112 -19.927872 -228.95151 -19.903927Q-229.0719 -19.87998 -229.19096 -19.850157Q-229.31003 -19.820332 -229.42749 -19.784702Q-229.54495 -19.749071 -229.66051 -19.70772Q-229.77606 -19.666368 -229.88947 -19.619396Q-230.00287 -19.572426 -230.11383 -19.519947Q-230.22479 -19.467468 -230.33305 -19.409607Q-230.44128 -19.351746 -230.54657 -19.288643Q-230.65186 -19.22554 -230.75391 -19.157347Q-230.85596 -19.089155 -230.95456 -19.016037Q-231.05316 -18.942919 -231.14804 -18.865051Q-231.24292 -18.787184 -231.33386 -18.704754Q-231.4248 -18.622326 -231.5116 -18.535534Q-231.59839 -18.44874 -231.68082 -18.357794Q-231.76324 -18.266846 -231.84113 -18.171967Q-231.91898 -18.077084 -231.9921 -17.978497Q-232.06522 -17.879906 -232.13341 -17.777849Q-232.2016 -17.675793 -232.26469 -17.570513Q-232.32779 -17.465233 -232.38567 -17.356985Q-232.44351 -17.248734 -232.496 -17.137775Q-232.54848 -17.026817 -232.59544 -16.913416Q-232.64243 -16.800018 -232.68376 -16.684448Q-232.72513 -16.568882 -232.76076 -16.451424Q-232.79639 -16.333965 -232.8262 -16.214901Q-232.85602 -16.095835 -232.87997 -15.975451Q-232.90393 -15.855066 -232.92194 -15.733652Q-232.93996 -15.612238 -232.952 -15.490086Q-232.96402 -15.367933 -232.97003 -15.245338Q-232.97607 -15.122743 -232.97607 -15Z" clip-rule="evenodd"/>
	</clipPath>
	<g clip-path="url(#cl_1f1)">
		<path fill="#666" transform="translate(188.057 0)" d="M4.9193144 2.3937795C4.9193144 3.7364264 3.8401518 4.8015738 2.4666717 4.8015738C1.0931917 4.8015738 0 3.7364264 0 2.3937795C0 1.0511328 1.0959913 0 2.4806833 0C3.8373451 0 4.9193144 1.0511328 4.9193144 2.3937795ZM0.61107349 2.3937795C0.61107349 3.4589272 1.4127326 4.3054395 2.4806833 4.3054395C3.5178008 4.3194547 4.3054523 3.4589272 4.3054523 2.4077945C4.3054523 1.3426467 3.5177903 0.4793165 2.4526427 0.4793165C1.4155252 0.48211953 0.61107349 1.3426468 0.61107349 2.3937795ZM2.0854478 3.6355176L1.5304552 3.6355176L1.5304552 1.241738C1.7490908 1.2137078 2.0574312 1.1688595 2.4498541 1.1688595C2.9011405 1.1688595 3.105756 1.2417381 3.2683313 1.3594649C3.4140882 1.4603736 3.5178041 1.6369638 3.5178041 1.8696146C3.5178041 2.1611288 3.2991631 2.3517342 3.0216641 2.4386277L3.0216641 2.4666581C3.2543149 2.5395367 3.3720443 2.7301419 3.4449229 3.0496862C3.5178015 3.4140787 3.5766664 3.545821 3.6215146 3.6327145L3.0384815 3.6327145C2.9656029 3.545821 2.9207568 3.3412004 2.8478782 3.0496862C2.80303 2.8002174 2.6572676 2.6852934 2.3517382 2.6852934L2.0882535 2.6852934L2.0854478 3.6355176ZM2.0994766 2.2928708L2.3629613 2.2928708C2.6684904 2.2928708 2.9179537 2.191962 2.9179537 1.9424931C2.9179537 1.7238575 2.7581797 1.5781006 2.4078021 1.5781006C2.2620451 1.5781006 2.1583257 1.5921156 2.1022654 1.6061307L2.0994766 2.2928708Z"/>
	</g>
</svg>
