<svg xmlns="http://www.w3.org/2000/svg" width="193" height="21" viewBox="0 0 193 21" fill="none">
  <path fill="#D10010" transform="translate(0 4.67188)" d="M13.403502 15.31398C10.373438 15.31398 7.3433733 15.319587 4.3133087 15.311177C2.5277851 15.308374 0.89642727 14.164742 0.27415684 12.499747C0.094763562 12.023233 0.0050669187 11.529903 0.0050669187 11.022556C0.0022638987 8.7801399 -0.0061451616 6.5377226 0.0078699384 4.2953067C0.019082017 1.9379668 1.9279385 0.017898273 4.2880812 0.0094892131C9.2101841 -0.0045258878 14.132289 -0.0017228676 19.054392 0.0094892131C21.277187 0.015095253 23.155209 1.8987248 23.26733 4.1187167C23.396269 6.635829 21.487411 8.2952166 19.864464 8.6119576C19.502874 8.6820326 19.141285 8.7100639 18.77409 8.7100639C13.801533 8.7100639 8.8317766 8.710063 3.8592193 8.7184725C3.6349778 8.7184725 3.5929325 8.6512003 3.5985384 8.4465799C3.6125536 7.9196119 3.6125536 7.3898411 3.5985384 6.8628736C3.5929325 6.652647 3.6405835 6.5909801 3.8620222 6.5937829C5.908227 6.6021919 7.9572344 6.5993891 10.003439 6.5993891C12.969034 6.5993891 15.931826 6.6021929 18.897421 6.5965867C20.122341 6.5937839 21.106203 5.6407566 21.145445 4.4326549C21.18749 3.1853108 20.200825 2.1509964 18.939466 2.1341784C18.339621 2.1257694 17.736971 2.1313753 17.134321 2.1313753C12.893353 2.1313753 8.6551857 2.1313753 4.414217 2.1313753C3.2761908 2.1313753 2.39324 2.8293276 2.1718013 3.9084902C2.138165 4.0738683 2.129756 4.2476549 2.129756 4.4158363C2.1269529 6.5769649 2.12415 8.7380943 2.129756 10.899222C2.1325591 12.054067 2.8445263 12.939822 3.9292948 13.144443C4.1507335 13.186488 4.3805814 13.180881 4.607626 13.180881C10.628512 13.183683 16.646597 13.183684 22.66468 13.178079C22.891726 13.178079 22.970209 13.217319 22.9618 13.463985C22.942179 14.007771 22.944981 14.551558 22.9618 15.095344C22.967405 15.285949 22.905741 15.316782 22.731953 15.316782C19.626207 15.311176 16.514854 15.31398 13.403502 15.31398Z"/>
  <path fill="#D10010" transform="translate(27.457 4.68457)" d="M11.627863 2.1215856C9.2480984 2.1215856 6.8683343 2.1496155 4.4885702 2.1103733C3.1627417 2.087949 2.1060021 3.125067 2.1228201 4.4621077C2.1536534 6.6232367 2.1256235 8.7843647 2.1340325 10.94269C2.1368356 12.038671 2.8600154 12.910411 3.9195571 13.131849C4.1437988 13.179501 4.3708439 13.171091 4.6006913 13.171091C9.2733269 13.171091 13.943157 13.173895 18.612989 13.165485C18.862457 13.165485 18.926928 13.229954 18.915716 13.473817C18.896095 14.009193 18.901699 14.544571 18.91291 15.08275C18.918516 15.26775 18.868063 15.309796 18.685867 15.309796C16.583603 15.304191 14.478536 15.306993 12.373467 15.306993C9.6769619 15.306993 6.980454 15.312598 4.2839484 15.304189C2.4956214 15.295779 0.85865903 14.118512 0.25600961 12.439503C0.071010262 11.929353 0.0065403804 11.399582 0.0037373602 10.861403C0.0037373602 8.7255011 -0.0046717003 6.5895991 0.0037373602 4.4536977C0.012146421 2.3458264 1.3267628 0.6219694 3.2860739 0.12583484C3.5944061 0.047350265 3.9055409 0.0025017965 4.2250853 0.0025017965C9.1724167 0.0025017965 14.119748 -0.005907136 19.064276 0.0081079658C21.245026 0.013714006 23.134262 1.8609042 23.237974 4.0416541C23.24358 4.1705933 23.246382 4.2995324 23.246382 4.4312744C23.246382 7.971489 23.24358 11.514505 23.251989 15.05472C23.251989 15.276158 23.190321 15.321007 22.982897 15.315401C22.447519 15.298583 21.909344 15.301386 21.373966 15.315401C21.177755 15.321007 21.135708 15.259341 21.135708 15.074342C21.141314 11.548142 21.138512 8.024745 21.141315 4.4985456C21.141315 4.0332441 21.076845 3.5903683 20.816164 3.1979454C20.353666 2.4999933 19.708969 2.1271913 18.856852 2.1299944C16.45186 2.1243885 14.038461 2.1215856 11.627863 2.1215856Z"/>
  <path fill="#D10010" transform="translate(54.5569 4.66699)" d="M9.7802057 15.318506C6.7080956 15.318506 3.6387901 15.315701 0.56667966 15.324111C0.34524104 15.324111 0.30039048 15.262444 0.30599651 15.055021C0.32001162 14.502827 0.31720859 13.95063 0.30599651 13.398436C0.30319348 13.224648 0.35925627 13.182604 0.52743751 13.182604C2.0550835 13.18821 3.582727 13.185408 5.110373 13.185408C9.6204329 13.185408 14.12769 13.179801 18.634947 13.18821C19.638428 13.18821 20.381231 12.773363 20.810093 11.873593C21.474409 10.483295 20.468121 8.8154993 18.932066 8.7229996C18.786308 8.7145901 18.640549 8.7145901 18.491989 8.7145901C13.827764 8.7145901 9.1663437 8.7117872 4.5021181 8.7145901C2.6521249 8.7145901 1.2786473 7.8848958 0.44895327 6.2535381C-0.87407231 3.6551383 0.87501168 0.41484699 3.7593195 0.044848282C4.0284095 0.0084090196 4.2946968 0.0056061689 4.5609837 0.0056061689C10.556644 0.0028031487 16.552299 0.0056060404 22.54796 0C22.783415 0 22.847887 0.056060672 22.839478 0.29151437C22.819857 0.81848216 22.825462 1.3454499 22.839478 1.8752207C22.845083 2.077038 22.786217 2.1330986 22.5844 2.1330986C20.594255 2.1246896 18.604116 2.1274924 16.613972 2.1274924C12.625274 2.1274924 8.6365747 2.1302953 4.6478767 2.1246893C3.983561 2.1246893 3.3753066 2.2396131 2.8707628 2.7105205C2.1924319 3.3412001 1.9625809 4.3054399 2.2849283 5.165967C2.6128817 6.0321002 3.4257593 6.59831 4.3759832 6.6011128C6.8930955 6.606719 9.4130125 6.6039157 11.932928 6.6039157C14.200571 6.6039157 16.46541 6.5927038 18.733053 6.606719C20.524183 6.615128 21.880848 7.4364123 22.660088 9.0201187C24.16531 12.072608 21.844404 15.307293 18.845173 15.312899C15.823517 15.324111 12.801862 15.318506 9.7802057 15.318506Z"/>
  <path fill="#D10010" transform="translate(81.4578 4.66992)" d="M9.9312115 15.316051C6.8591013 15.316051 3.7897959 15.313246 0.71768534 15.321655C0.52147388 15.321655 0.45419767 15.28802 0.45980373 15.07499C0.47662187 14.531204 0.47942486 13.984614 0.45980373 13.440828C0.45139468 13.213783 0.52707654 13.180148 0.73169702 13.180148C3.8766861 13.185754 7.0188694 13.185754 10.163858 13.185754C13.056576 13.185754 15.949291 13.182951 18.842009 13.185754C19.828672 13.185754 20.523827 12.728861 20.958294 11.857121C21.076021 11.624471 21.137684 11.369396 21.137684 11.105912C21.14329 10.365914 21.13769 9.6287212 21.143295 8.8887234C21.146099 8.7485723 21.098442 8.7121334 20.963898 8.7121334C20.445339 8.7177391 19.923977 8.7149363 19.405418 8.7149363C14.432859 8.7149363 9.4603014 8.7149363 4.4877429 8.7149363C2.5536587 8.7149363 1.1829847 7.8123631 0.34768462 6.0857024C0.092609763 5.5587344 0.0085187797 4.9869194 0.0057157595 4.4066939C0.0057157595 3.0079868 0.0085133053 1.6120822 0.00010424348 0.21337509C-0.002698777 0.039587826 0.050564095 -0.0024575535 0.21594229 0.0003454668C0.7849555 0.011557548 1.3539677 0.011557548 1.9229808 0.0003454668C2.1051772 -0.0024575535 2.1304073 0.062012181 2.1276042 0.22178435C2.1219983 1.5784463 2.1247985 2.9351077 2.1247985 4.2917695C2.1247985 5.6400223 3.0778263 6.5986557 4.4204731 6.5986557C9.9143934 6.5986557 15.40551 6.5986557 20.896627 6.6042619C21.106853 6.6042619 21.146099 6.5453987 21.143295 6.3491874C21.13769 4.3169975 21.140491 2.2876101 21.134886 0.2554203C21.134886 0.056405842 21.176926 -0.0052605742 21.38435 0.0003454668C21.936544 0.01716359 22.488743 0.011557613 23.040937 0.0031485516C23.186695 0.00034553115 23.251163 0.025572866 23.251163 0.19655712C23.245558 3.8040445 23.262373 7.4115314 23.239948 11.019019C23.225933 13.124087 21.771168 14.83393 19.719357 15.243171C19.408222 15.304837 19.09148 15.316051 18.774738 15.316051C15.828764 15.316051 12.87999 15.316051 9.9312115 15.316051Z"/>
  <path fill="#666666" transform="translate(108.384 4.67285)" d="M23.25666 4.5464988C23.25666 4.2942271 23.24264 4.0447588 23.217413 3.7924869C22.990368 1.7042367 21.129164 0.01121221 19.029701 0.0056061693C15.926758 1.2852252e-07 12.821011 0.0056061693 9.7180672 0.0056061693L9.7180672 0.0028030847C6.5646696 0.0028030847 3.4140766 0.0056060408 0.26067883 0C0.067270428 0 0 0.039242119 0 0.24946865C0.0056060404 5.1883912 0.0056060404 10.127314 0 15.069038C0 15.251235 0.033629388 15.318507 0.23824988 15.318507C6.4945912 15.312901 12.750937 15.315704 19.004475 15.310099C19.5847 15.310099 20.156515 15.203584 20.677877 14.9401C22.312038 14.118814 23.228622 12.809802 23.248243 10.957006C23.276274 8.821104 23.25666 6.6852036 23.25666 4.5464988ZM19.346443 13.143363C19.189474 13.176999 19.024092 13.177 18.861517 13.177C13.370399 13.179803 7.882093 13.176999 2.390976 13.182605C2.1807494 13.182605 2.1386974 13.115332 2.1386974 12.91912C2.1443033 9.4097385 2.1443033 5.9003582 2.1386974 2.3937793C2.1386974 2.1863558 2.1975672 2.1359019 2.3993847 2.1359019C5.1855869 2.1415079 7.9717884 2.1387043 10.755188 2.1387043C13.476921 2.1387043 16.195848 2.1359015 18.917582 2.1415074C19.979927 2.1415074 20.857269 2.8366566 21.087116 3.8541532C21.131964 4.0503645 21.151588 4.2549849 21.151588 4.4568024C21.157194 6.5927038 21.157194 8.7286062 21.151588 10.864508C21.151588 12.013746 20.436817 12.916318 19.346443 13.143363Z"/>
  <path fill="#666666" transform="translate(135.492 4.67871)" d="M23.250759 4.1867409C23.250759 4.0157566 23.228329 3.8475752 23.208708 3.679394C22.95924 1.672431 21.098036 0.010239422 19.077059 0.0046333801C16.607597 -0.0037756823 14.138138 0.0018308295 11.668677 0.0018308295C9.1908073 0.0018308295 6.7129335 0.0018308295 4.2350636 0.0018308295C3.9883978 0.0018308295 3.7473416 0.02705761 3.511888 0.077511989C1.420835 0.52879834 0.013716272 2.2554598 0.0053072125 4.3969679C-0.0031018471 6.5665064 -0.00029882742 8.7332401 0.0053072125 10.902779C0.0053072125 11.160657 0.01932539 11.424141 0.069779754 11.676413C0.48462671 13.857162 2.2393155 15.303522 4.4565043 15.303522C9.1908054 15.303522 13.927916 15.303522 18.662216 15.303522C18.95373 15.303522 19.245245 15.29231 19.536758 15.261477C21.473644 15.054053 23.228327 13.173225 23.242342 11.227929C23.264767 8.8818007 23.250759 6.5328693 23.250759 4.1867409ZM21.1513 10.897173C21.1513 12.200578 20.203871 13.16762 18.900467 13.16762C14.059651 13.173225 9.2160301 13.173225 4.3752146 13.16762C3.0746133 13.16762 2.141207 12.214593 2.141207 10.911188C2.141207 8.7332411 2.1580284 6.555294 2.1356041 4.3801494C2.1215889 3.1159868 3.2063575 2.1068995 4.3864288 2.1237175C6.808238 2.1545508 9.2272453 2.1321263 11.649055 2.1321263C14.037228 2.1321263 16.4254 2.1685658 18.813574 2.1181114C20.074932 2.0928841 21.193344 3.1468201 21.168118 4.4866643C21.120466 6.6225662 21.154104 8.7584677 21.1513 10.897173Z"/>
  <path fill="#666666" transform="translate(162.836 4.67285)" d="M13.569126 15.312902C10.497016 15.312902 7.4276934 15.315705 4.3555832 15.312902C2.4663477 15.3101 0.75651455 14.051542 0.19591053 12.246397C0.064168572 11.825944 0.0053072129 11.388672 0.0053072129 10.951401C-0.00029882742 8.7566357 -0.0031018476 6.5646734 0.0053072129 4.3699083C0.013716273 2.2564309 1.4768941 0.48492262 3.5455232 0.072878599C3.7585528 0.030833289 3.979979 0.0084092543 4.1986146 0.0084092543C10.471773 0.0056062341 16.742132 0.0056060408 23.015291 0C23.2087 0 23.264763 0.050454602 23.261959 0.24386302C23.247944 0.78764904 23.24514 1.331435 23.261959 1.8752209C23.267565 2.0994625 23.191889 2.1415074 22.987268 2.1415074C18.073574 2.1359015 13.15708 2.1359019 8.2405825 2.1359019C6.9652081 2.1359019 5.6870236 2.1667349 4.4144526 2.1274927C3.1979418 2.0882504 2.1215806 3.1337769 2.1355958 4.4063482C2.1608229 6.5506592 2.1720321 8.697773 2.1327899 10.83928C2.1103656 12.097836 3.1222665 13.191014 4.4733224 13.185409C10.61474 13.157378 16.758957 13.174196 22.900375 13.174196C23.301207 13.174196 23.253561 13.129349 23.256365 13.518969C23.259169 14.023512 23.24514 14.528056 23.261959 15.029797C23.267565 15.251235 23.208702 15.312902 22.981657 15.312902C19.842274 15.3101 16.705706 15.312902 13.569126 15.312902Z"/>
  <path fill="#666666" transform="translate(188.057 0)" d="M4.9193144 2.3937795C4.9193144 3.7364264 3.8401518 4.8015738 2.4666717 4.8015738C1.0931917 4.8015738 0 3.7364264 0 2.3937795C0 1.0511328 1.0959913 0 2.4806833 0C3.8373451 0 4.9193144 1.0511328 4.9193144 2.3937795ZM0.61107349 2.3937795C0.61107349 3.4589272 1.4127326 4.3054395 2.4806833 4.3054395C3.5178008 4.3194547 4.3054523 3.4589272 4.3054523 2.4077945C4.3054523 1.3426467 3.5177903 0.4793165 2.4526427 0.4793165C1.4155252 0.48211953 0.61107349 1.3426468 0.61107349 2.3937795ZM2.0854478 3.6355176L1.5304552 3.6355176L1.5304552 1.241738C1.7490908 1.2137078 2.0574312 1.1688595 2.4498541 1.1688595C2.9011405 1.1688595 3.105756 1.2417381 3.2683313 1.3594649C3.4140882 1.4603736 3.5178041 1.6369638 3.5178041 1.8696146C3.5178041 2.1611288 3.2991631 2.3517342 3.0216641 2.4386277L3.0216641 2.4666581C3.2543149 2.5395367 3.3720443 2.7301419 3.4449229 3.0496862C3.5178015 3.4140787 3.5766664 3.545821 3.6215146 3.6327145L3.0384815 3.6327145C2.9656029 3.545821 2.9207568 3.3412004 2.8478782 3.0496862C2.80303 2.8002174 2.6572676 2.6852934 2.3517382 2.6852934L2.0882535 2.6852934L2.0854478 3.6355176ZM2.0994766 2.2928708L2.3629613 2.2928708C2.6684904 2.2928708 2.9179537 2.191962 2.9179537 1.9424931C2.9179537 1.7238575 2.7581797 1.5781006 2.4078021 1.5781006C2.2620451 1.5781006 2.1583257 1.5921156 2.1022654 1.6061307L2.0994766 2.2928708Z"/>
</svg>
