<svg width="64" height="64" viewBox="0 0 24 24" fill="none" xmlns="http://www.w3.org/2000/svg">
<path d="M13.4035 21.9859C10.3734 21.9859 7.34337 21.9915 4.31331 21.9831C2.52778 21.9802 0.896427 20.8366 0.274157 19.1716C0.0947636 18.6951 0.00506692 18.2018 0.00506692 17.6944C0.0022639 15.452 -0.00614516 13.2096 0.00786994 10.9672C0.019082 8.60984 1.92794 6.68977 4.28808 6.68136C9.21018 6.66735 14.1323 6.67015 19.0544 6.68136C21.2772 6.68697 23.1552 8.5706 23.2673 10.7906C23.3963 13.3077 21.4874 14.9671 19.8645 15.2838C19.5029 15.3539 19.1413 15.3819 18.7741 15.3819C13.8015 15.3819 8.83178 15.3819 3.85922 15.3903C3.63498 15.3903 3.59293 15.3231 3.59854 15.1185C3.61255 14.5915 3.61255 14.0617 3.59854 13.5347C3.59293 13.3245 3.64058 13.2629 3.86202 13.2657C5.90823 13.2741 7.95723 13.2713 10.0034 13.2713C12.969 13.2713 15.9318 13.2741 18.8974 13.2685C20.1223 13.2657 21.1062 12.3126 21.1454 11.1045C21.1875 9.85719 20.2008 8.82287 18.9395 8.80605C18.3396 8.79764 17.737 8.80325 17.1343 8.80325C12.8934 8.80325 8.65519 8.80325 4.41422 8.80325C3.27619 8.80325 2.39324 9.5012 2.1718 10.5804C2.13816 10.7457 2.12976 10.9195 2.12976 11.0877C2.12695 13.2488 2.12415 15.41 2.12976 17.5711C2.13256 18.7259 2.84453 19.6117 3.92929 19.8163C4.15073 19.8584 4.38058 19.8528 4.60763 19.8528C10.6285 19.8556 16.6466 19.8556 22.6647 19.85C22.8917 19.85 22.9702 19.8892 22.9618 20.1359C22.9422 20.6796 22.945 21.2234 22.9618 21.7672C22.9674 21.9578 22.9057 21.9887 22.732 21.9887C19.6262 21.9831 16.5149 21.9859 13.4035 21.9859Z" fill="#D10010"/>
</svg>
