<svg width="104" height="23" viewBox="-18 0 122 23" fill="none" xmlns="http://www.w3.org/2000/svg">
<path fill-rule="evenodd" clip-rule="evenodd" d="M18.6551 5.64337C15.413 5.58358 12.4113 8.10504 11.7504 11.587C10.9699 15.0696 13.1911 18.0115 16.9135 17.9511C20.6957 17.8309 23.5778 16.3901 24.4785 11.8268C25.3195 7.80416 22.1371 5.7038 18.6551 5.64337ZM19.6754 9.4262C19.255 11.2276 18.8351 13.0888 18.2347 14.8896C18.0547 15.6103 17.5744 16.4505 16.8537 16.3316C16.2533 16.2107 16.2533 15.2509 16.3137 14.5302C16.6737 12.6079 17.2144 10.6876 17.8149 8.82637C18.1151 7.92567 18.4153 7.14454 19.1958 7.20562C20.2161 7.32456 19.7956 8.70551 19.6754 9.4262ZM4.96583 5.64337C1.66388 5.58358 -1.27803 8.10504 -1.99937 11.587C-2.72006 15.0696 -0.557341 18.0115 3.22421 17.9511C6.94661 17.8309 9.94831 16.3901 10.7892 11.8268C11.6301 7.80416 8.38799 5.7038 4.96583 5.64337ZM5.98676 9.4262C5.5663 11.2276 5.08605 13.0888 4.54601 14.8896C4.366 15.6103 3.88575 16.4505 3.10527 16.3316C2.5048 16.2107 2.5048 15.2509 2.68481 14.5302C2.98505 12.6079 3.52508 10.6876 4.06577 8.82637C4.48622 7.92567 4.66623 7.14454 5.44672 7.20562C6.52679 7.32456 6.10698 8.70551 5.98676 9.4262ZM-8.96328 14.7096C-9.0835 15.13 -9.38374 15.6103 -10.044 15.5498C-10.8843 15.6096 -10.8843 14.8896 -10.8251 14.4691L-9.32395 8.88552C-9.14394 8.22526 -8.72348 7.68458 -7.64276 7.74501C-6.86228 7.74501 -6.3216 8.16547 -5.78156 8.70551L-4.52083 7.02432C-5.66134 6.18405 -6.92271 5.82338 -8.36345 5.76359C-13.1068 5.82338 -15.6282 8.64572 -16.2885 11.288C-17.1288 13.7491 -16.2885 17.7113 -12.0859 17.8926H-4.64105L-2.95987 11.2283H-8.12301L-8.96328 14.7096ZM45.3722 5.40357C45.432 5.34378 45.432 5.28334 45.432 5.22355C45.3111 4.56329 45.3111 4.02261 45.2513 3.42214H45.3111L45.0115 2.94189L40.9889 5.64337C41.2293 6.36406 41.7096 7.14454 42.0098 7.86459L45.3722 5.40357ZM45.0122 15.0098C45.3118 14.6485 45.6718 14.3495 46.0337 13.9882L46.3938 13.6886L46.8142 13.3884L47.2347 13.0882L47.7149 12.7281L48.1354 12.4877L48.6754 12.1875L49.2142 11.8879L49.8153 11.6474L49.8751 11.5876L48.9146 9.84666C48.525 10.2967 48.1032 10.7178 47.6539 11.1074L46.8136 10.2671L46.3333 9.66665C46.2735 9.4262 46.0923 9.1864 46.0337 9.00639L42.6109 11.108L44.8322 15.1307L45.0122 15.0098ZM45.4937 8.70551L42.3113 8.58529C42.4316 9.00574 42.4316 9.42556 42.3113 9.96624C42.3113 10.1463 42.2516 10.4465 42.1313 10.8065L45.4937 8.70551ZM45.3722 6.06383L42.6103 8.10504L45.6712 8.22526C45.6126 8.04525 45.6126 7.86524 45.5522 7.62479L45.4314 6.9041C45.3728 6.60451 45.3728 6.30427 45.3722 6.06383ZM69.6282 12.5481H72.3902L72.9913 10.2067H70.1683L70.7096 7.98546H75.0318L75.5732 5.82338H65.7856L62.8443 17.8919H72.5708L73.2304 15.4901H68.9082L69.6282 12.5481ZM62.3043 5.82274L58.9406 9.84602L57.8619 5.82274H51.9169L53.9588 12.5481L52.6376 17.8919H58.4012L59.5411 12.8484L65.2449 5.82274H62.3043ZM99.527 5.82274H91.1217L87.7606 17.8913H93.5243L94.8454 13.4482L95.9853 17.8913H101.631L100.429 13.2682C102.111 12.3077 102.771 11.3459 103.13 9.30534C103.431 6.24384 101.029 5.88381 99.527 5.82274ZM97.4865 8.10504C97.4267 9.06553 97.1869 9.96624 96.9464 10.8669C96.7671 11.3472 96.7073 11.9477 95.8663 11.9477H95.145L96.1055 7.32456H97.0062C97.4267 7.26477 97.6678 7.68522 97.4865 8.10504ZM80.7954 5.82274L73.4702 17.8919H76.0534L77.2531 15.8507H81.1555L81.4551 17.8919H86.9197L85.4777 5.82338H80.7954V5.82274ZM78.6353 13.6289L80.5556 10.4465L80.8565 13.6289H78.6353ZM34.4454 5.82274H27.1807L24.1185 17.8919H31.1429C36.3664 17.8321 38.2276 14.4698 38.7677 11.1678C39.2486 7.86524 37.1469 6.00404 34.4454 5.82274ZM33.845 9.12597L32.3438 14.6498C32.1638 15.3705 31.8038 15.9709 30.8426 16.0307H29.9419L32.1631 7.68522H33.3641C33.7852 7.68522 34.0854 8.28569 33.845 9.12597Z" fill="#666666"/>
<path fill-rule="evenodd" clip-rule="evenodd" d="M54.3195 4.98313C54.2597 4.56267 53.8392 4.38266 53.4792 4.20265C54.3195 3.9622 55.0993 3.84262 55.2806 3.60218C55.3404 3.54239 55.1598 3.30194 54.7406 2.94192L59.1232 2.88213C60.6836 2.88213 62.6058 1.44139 62.6656 0C62.2452 0.240445 61.5258 0.540037 60.9246 0.60047L51.6784 0.480248C50.0583 0.300235 48.2563 0.480248 47.3556 1.02029C45.9746 2.04121 46.0929 3.60218 46.334 5.16314C46.1533 6.90412 46.5732 8.88554 47.6552 9.84604C48.2563 9.24557 48.7365 8.6451 48.9159 7.6846C49.0965 7.98484 49.3961 8.16485 49.7562 8.28507C49.9972 7.6846 49.9972 7.14457 49.9972 6.5441C50.1766 6.78454 50.4177 7.02434 50.7777 7.14457C51.0773 6.30429 51.1378 5.5836 51.1378 4.86291C52.2178 5.40359 53.4181 5.46338 54.3195 4.98313ZM48.4948 6.42452C48.1348 6.2445 47.8352 5.94427 47.4147 5.76426C47.4147 5.3438 47.4147 4.86355 47.1736 4.50353C47.5941 4.80376 48.0743 4.92398 48.6157 4.98377C48.4948 5.46338 48.4344 5.94363 48.4948 6.42452ZM51.1365 3.06214C50.7764 3.60218 50.356 3.7224 49.6944 3.60218C49.0946 3.9622 48.4948 3.90241 47.8352 3.54239C48.435 3.30194 48.975 3.00235 49.2142 2.52146C49.9966 2.70147 50.5952 2.70147 50.8362 1.92099C51.4361 2.28102 52.0359 2.22123 52.6377 1.98078C52.457 2.64168 51.9767 3.00171 51.1365 3.06214ZM50.0564 12.2479L49.5164 12.5482L48.9763 12.7282L48.4961 13.0284L48.0756 13.328L47.6552 13.6282L47.1749 13.9278L46.8753 14.2281L46.4549 14.4685L45.7933 15.1288L45.1337 15.789C44.3281 16.6441 43.5072 17.485 42.6714 18.3105L42.0709 18.9707L41.7109 19.2703L41.3509 19.5706L40.9908 19.9306L40.6308 20.171L40.1506 20.4713L39.7905 20.7715L39.2492 20.9541L38.8288 21.2537L38.2283 21.4941L37.8078 21.7346L38.4083 22.5157C44.3513 20.054 44.6535 15.7916 50.7771 13.0297L50.2371 12.1881L50.0564 12.2479ZM38.4681 20.6539L39.0081 20.4134L39.3682 20.1132L39.8484 19.9332L40.2084 19.6336L40.6289 19.3333L40.9291 19.0337L41.6498 18.4937L42.2503 17.8932C42.971 17.1725 43.6306 16.3323 44.3506 15.6116L44.4715 15.4914L42.0098 11.1074C41.2294 12.7892 39.2479 15.3101 39.0081 17.9517C37.9274 18.792 36.4867 19.7532 37.3874 21.1341H37.4472L37.9872 20.8937L38.4681 20.6539Z" fill="#666666"/>
</svg>
