<?xml version="1.0" encoding="utf-8" ?>
<svg xmlns="http://www.w3.org/2000/svg" xmlns:xlink="http://www.w3.org/1999/xlink" width="100" height="31">
	<rect fill-opacity="0" width="100" height="31"/>
	<rect fill="#1E1E1E" width="99.796387" height="30.020996"/>
	<clipPath id="cl_5c">
		<rect x="196.37769" y="-7159.4893" width="1920" height="8739"/>
	</clipPath>
	<g clip-path="url(#cl_5c)">
		<clipPath id="cl_5e">
			<rect x="1115.8217" y="-6340.4893" width="80" height="80" rx="40" ry="40"/>
		</clipPath>
		<g clip-path="url(#cl_5e)">
			<ellipse transform="translate(1115.82 -6340.49)" cx="40" cy="40" rx="40" ry="40"/>
		</g>
	</g>
	<clipPath id="cl_5f">
		<rect x="1203.3777" y="-7743.4893" width="0" height="0"/>
	</clipPath>
	<g clip-path="url(#cl_5f)">
		<clipPath id="cl_1">
			<rect/>
		</clipPath>
		<g clip-path="url(#cl_1)">
			<ellipse transform="translate(1115.82 -6340.49)" cx="40" cy="40" rx="40" ry="40"/>
		</g>
	</g>
	<clipPath id="cl_61">
		<rect x="196.37769" y="-7159.4893" width="1920" height="8739"/>
	</clipPath>
	<g clip-path="url(#cl_61)">
		<clipPath id="cl_62">
			<path d="M1152.3976 -6292.5381L1164.8895 -6299.6548C1165.1553 -6299.8003 1165.1553 -6300.1782 1164.8895 -6300.3257L1152.3976 -6307.4404C1152.1396 -6307.5825 1151.8217 -6307.3984 1151.8217 -6307.105L1151.8217 -6292.8735C1151.8217 -6292.5801 1152.1396 -6292.396 1152.3976 -6292.5381Z" clip-rule="evenodd"/>
		</clipPath>
		<g clip-path="url(#cl_62)">
			<path transform="translate(1151.82 -6307.49)" d="M0.57592595 14.951165L13.067896 7.8345499C13.333559 7.6888433 13.333559 7.3111563 13.067896 7.1635327L0.57592595 0.048835382C0.31801969 -0.093036786 0 0.09101361 0 0.38434389L0 14.615657C0 14.908987 0.31801969 15.093038 0.57592595 14.951165Z" fill-rule="evenodd"/>
		</g>
	</g>
	<clipPath id="cl_12c">
		<rect x="196.37769" y="-7159.4893" width="1920" height="8739"/>
	</clipPath>
	<g clip-path="url(#cl_12c)">
		<clipPath id="cl_12e">
			<rect x="1596.1553" y="-907.48926" width="80" height="80" rx="40" ry="40"/>
		</clipPath>
		<g clip-path="url(#cl_12e)">
			<ellipse transform="translate(1596.16 -907.489)" cx="40" cy="40" rx="40" ry="40"/>
		</g>
	</g>
	<clipPath id="cl_12f">
		<rect x="1203.3777" y="-7743.4893" width="0" height="0"/>
	</clipPath>
	<g clip-path="url(#cl_12f)">
		<clipPath id="cl_1">
			<rect/>
		</clipPath>
		<g clip-path="url(#cl_1)">
			<ellipse transform="translate(1596.16 -907.489)" cx="40" cy="40" rx="40" ry="40"/>
		</g>
	</g>
	<clipPath id="cl_131">
		<rect x="196.37769" y="-7159.4893" width="1920" height="8739"/>
	</clipPath>
	<g clip-path="url(#cl_131)">
		<clipPath id="cl_132">
			<path d="M1632.7312 -859.53809L1645.2231 -866.65472C1645.4889 -866.80042 1645.4889 -867.1781 1645.2231 -867.32574L1632.7312 -874.44043C1632.4733 -874.58228 1632.1553 -874.39825 1632.1553 -874.10492L1632.1553 -859.8736C1632.1553 -859.58026 1632.4733 -859.39624 1632.7312 -859.53809Z" clip-rule="evenodd"/>
		</clipPath>
		<g clip-path="url(#cl_132)">
			<path transform="translate(1632.16 -874.489)" d="M0.57592595 14.951165L13.067896 7.8345499C13.333559 7.6888433 13.333559 7.3111563 13.067896 7.1635327L0.57592595 0.048835382C0.31801969 -0.093036786 0 0.09101361 0 0.38434389L0 14.615657C0 14.908987 0.31801969 15.093038 0.57592595 14.951165Z" fill-rule="evenodd"/>
		</g>
	</g>
</svg>
