<svg width="100" height="31" viewBox="0 0 100 31" fill="none" xmlns="http://www.w3.org/2000/svg">
<path d="M15.0105 0C6.726 0 0 6.726 0 15.0105C0 16.815 0.328098 18.5375 0.902269 20.1507L1.20302 19.9319L2.46073 19.0023L17.7446 7.65561L19.0023 6.69866L21.5177 4.83944L22.6934 3.96451L22.5841 5.16754L22.2013 9.37813L22.0099 11.4834L20.8342 24.5526L20.8069 24.9081C20.8069 24.9081 20.7522 24.8534 20.6702 24.744C20.1507 24.1152 18.1547 21.8732 15.4753 20.9709C13.2606 20.2054 8.77661 19.6585 3.11693 21.299C2.67946 21.4084 2.21466 21.5724 1.74985 21.7365L1.61315 21.7912C4.10122 26.6579 9.15939 30.0209 14.9831 30.0209C23.2676 30.0209 29.9936 23.2949 29.9936 15.0105C30.0209 6.726 23.2949 0 15.0105 0Z" fill="#666666"/>
<path d="M21.7638 28.0796V28.0249L21.7365 28.0522L21.7638 28.0796Z" fill="#666666"/>
<path d="M21.7638 28.0796V28.0249L21.7365 28.0522L21.7638 28.0796Z" fill="#666666"/>
<path d="M53.2885 25.0172C52.9877 25.0172 52.7417 24.9078 52.5776 24.6891C52.4136 24.443 52.3589 24.1696 52.4409 23.8962L53.3432 20.5059H55.0384L54.1361 23.8962V24.1149L54.2181 24.279L54.3548 24.4157L54.5735 24.443H56.8155L56.6515 25.0172H53.2885Z" fill="#666666"/>
<path d="M62.5299 23.8962C62.4479 24.1696 62.2565 24.443 61.9831 24.6891C61.7097 24.9078 61.4089 25.0172 61.1082 25.0172H58.292C57.9913 25.0172 57.7725 24.9078 57.6085 24.6891C57.4444 24.443 57.3897 24.1696 57.4718 23.8962L58.1006 21.6269C58.1826 21.3261 58.3467 21.08 58.6475 20.834C58.9209 20.6152 59.2216 20.5059 59.5224 20.5059H62.3386C62.6393 20.5059 62.858 20.6152 63.0221 20.834C63.1861 21.08 63.2682 21.3534 63.1588 21.6269L62.5299 23.8962ZM61.4363 21.6269V21.4081L61.3543 21.2441L61.2175 21.1074L60.9988 21.0527H60.4246L60.2059 21.1074L59.9872 21.2441L59.8231 21.4081L59.7138 21.6269L59.0849 23.8962V24.1149L59.1669 24.279L59.3036 24.4157L59.495 24.443H60.0692C60.2059 24.443 60.3426 24.3883 60.5067 24.279C60.6434 24.1696 60.7254 24.0329 60.7801 23.8962L61.4363 21.6269Z" fill="#666666"/>
<path d="M64.1431 25.0172C63.8423 25.0172 63.5963 24.9078 63.4322 24.6891C63.2682 24.443 63.2135 24.1696 63.2955 23.8962L63.897 21.6269C63.979 21.3261 64.1704 21.08 64.4438 20.834C64.7446 20.6152 65.018 20.5059 65.3461 20.5059H69.3106L69.1466 21.08H66.3031L66.0843 21.1347L65.8656 21.2714L65.6742 21.4355L65.5922 21.6542L64.9907 23.9235V24.1423L65.0727 24.3063L65.2094 24.443L65.4008 24.4704H66.5218L66.9866 22.7752H68.6818L68.0803 25.0172H64.1431Z" fill="#666666"/>
<path d="M70.1035 20.5059H71.7713L70.5683 25.0172H68.9005L70.1035 20.5059Z" fill="#666666"/>
<path d="M76.7202 23.8962C76.6382 24.197 76.4468 24.443 76.1734 24.6891C75.8726 24.9078 75.5992 25.0172 75.2985 25.0172H71.3613L71.5253 24.443H74.3415L74.5602 24.4157L74.779 24.279L74.943 24.1149L75.0524 23.8962C75.1071 23.6775 74.8883 23.4861 74.3415 23.322C73.4939 23.0486 73.0018 22.8572 72.8651 22.7752C72.3456 22.5018 72.1815 22.119 72.3182 21.6269C72.4003 21.3261 72.5643 21.08 72.8651 20.834C73.1385 20.6152 73.4392 20.5059 73.74 20.5059H77.6772L77.5405 21.08H74.7243L74.5056 21.1347L74.2868 21.2714L74.0954 21.4355L73.9861 21.6542C73.9314 21.8729 74.1501 22.0643 74.6969 22.2284C75.1071 22.3651 75.4625 22.4744 75.7086 22.5565C75.9546 22.6385 76.1187 22.6932 76.1734 22.7479C76.6655 23.0213 76.8569 23.4041 76.7202 23.8962Z" fill="#666666"/>
<path d="M80.3566 25.0172H78.6614L79.7277 21.08H78.0052L78.1693 20.5059H83.2548L83.0907 21.08H81.3956L80.3566 25.0172Z" fill="#666666"/>
<path d="M83.8836 20.5059H85.5515L84.3484 25.0172H82.6533L83.8836 20.5059Z" fill="#666666"/>
<path d="M86.3171 25.0172C86.0163 25.0172 85.7702 24.9078 85.6062 24.6891C85.4421 24.443 85.3875 24.1696 85.4695 23.8962L86.071 21.6269C86.153 21.3261 86.3444 21.08 86.6178 20.834C86.8912 20.6152 87.192 20.5059 87.4927 20.5059H90.8557L90.719 21.08H88.4497L88.231 21.1347L88.0122 21.2714L87.8482 21.4355L87.7388 21.6542L87.1373 23.9235V24.1423L87.2193 24.3063L87.356 24.443L87.5474 24.4704H89.7894L89.6527 25.0445H86.3171V25.0172Z" fill="#666666"/>
<path d="M95.6952 23.8962C95.6131 24.197 95.4217 24.443 95.1483 24.6891C94.8476 24.9078 94.5742 25.0172 94.2734 25.0172H90.3362L90.4729 24.443H93.2891L93.5078 24.4157L93.7266 24.279L93.8906 24.1149L94 23.8962C94.0547 23.6775 93.8359 23.4861 93.2891 23.322C92.4415 23.0486 91.9494 22.8572 91.8127 22.7752C91.2932 22.5018 91.1291 22.119 91.2385 21.6269C91.3205 21.3261 91.4846 21.08 91.7853 20.834C92.0587 20.6152 92.3595 20.5059 92.6603 20.5059H96.5974L96.4607 21.08H93.6445L93.4258 21.1347L93.2071 21.2714L93.043 21.4355L92.9337 21.6542C92.879 21.8729 93.0977 22.0643 93.6445 22.2284C94.0547 22.3651 94.4101 22.4744 94.6562 22.5565C94.9023 22.6385 95.0663 22.6932 95.121 22.7479C95.6405 23.0213 95.8319 23.4041 95.6952 23.8962Z" fill="#666666"/>
<path d="M41.231 16.6236C41.1216 16.5689 41.0122 16.4869 40.9576 16.3775C40.8755 16.2681 40.8482 16.1588 40.8209 16.022C40.7935 15.8853 40.7935 15.7213 40.8209 15.5846L43.6097 5.16748H37.7859L35.0245 15.3659C34.751 16.3501 34.9151 17.2524 35.4619 18.0727C36.0088 18.8382 36.829 19.221 37.868 19.221H48.0937L48.7499 16.7329H41.5864C41.4497 16.7056 41.313 16.6782 41.231 16.6236Z" fill="#666666"/>
<path d="M62.0378 5.16748L59.3037 15.3659C59.2216 15.6939 59.0029 16.022 58.6475 16.3228C58.292 16.5962 57.9639 16.7329 57.6358 16.7329H55.968C55.8313 16.7329 55.6946 16.7056 55.6126 16.6236C55.5032 16.5689 55.4212 16.4869 55.3392 16.3775C55.2571 16.2681 55.2298 16.1588 55.2024 16.022C55.1751 15.858 55.1751 15.7213 55.2024 15.5846L58.0186 5.16748H52.1675L49.4334 15.3659C49.16 16.3501 49.324 17.2524 49.8709 18.0727C50.445 18.8382 51.2379 19.221 52.2496 19.221H60.4794C61.4363 19.221 62.3933 18.8656 63.3229 18.1547C64.2251 17.4165 64.8266 16.5689 65.0727 15.6119L67.8889 5.19482H62.0378V5.16748Z" fill="#666666"/>
<path d="M69.8575 6.26114C68.9552 6.97202 68.3537 7.8196 68.135 8.74921L65.3188 19.1937H71.1425L72.701 13.4246H79.3176L79.9738 10.9365H73.3845L73.904 8.9406C73.9314 8.80389 74.0134 8.66719 74.1228 8.50314C74.2595 8.33909 74.3962 8.20238 74.5602 8.06567C74.7243 7.92897 74.9157 7.8196 75.0797 7.76492C75.2438 7.68289 75.4078 7.65555 75.5445 7.65555H82.4893L83.1454 5.14014H72.701C71.744 5.16748 70.7871 5.52292 69.8575 6.26114Z" fill="#666666"/>
<path d="M84.0477 5.16748L83.3915 7.65555H88.3403L85.2507 19.1937H91.1018L94.1914 7.65555H99.1129L99.7964 5.16748H84.0477Z" fill="#666666"/>
</svg>
