<svg width="81" height="36" viewBox="0 0 81 36" fill="none" xmlns="http://www.w3.org/2000/svg">
<path d="M71.5708 18.8972C71.0729 18.9463 70.5749 19.0133 70.1045 19.121C70.2003 19.4083 70.3128 19.6944 70.3535 19.9805C70.7365 19.9529 71.1112 19.9326 71.4667 19.9601C71.5828 19.6477 71.8174 19.4765 71.979 19.2216C72.1897 18.8912 71.8821 18.8673 71.5708 18.8972Z" fill="#666666"/>
<path d="M71.6378 16.0995C71.4954 15.9343 71.4415 15.9833 71.2237 15.9762C70.8622 15.9642 70.8035 16.1797 70.4696 16.2239C70.5138 16.4286 70.5438 16.4502 70.6132 16.6537C70.8059 16.6752 71.8688 16.3664 71.6378 16.0995Z" fill="#666666"/>
<path d="M71.5755 16.942C71.2248 16.8978 70.8957 16.9432 70.6179 17.0737C70.5725 17.1982 70.4683 17.44 70.369 17.5082C70.3785 17.5226 70.3881 17.5369 70.3989 17.5537C70.515 17.6207 70.6311 17.6387 70.7484 17.6088L70.746 17.6136C71.0836 17.5717 71.4247 17.5322 71.7599 17.4974C71.8173 17.2784 71.8652 17.051 71.9011 16.814C71.803 16.9325 71.7312 16.9325 71.5755 16.942Z" fill="#666666"/>
<path d="M70.5485 2.68115C69.2426 21.8798 58.1632 31.3695 39.3261 33.001C36.3252 33.2608 33.2896 33.3458 30.2792 33.2692C26.7648 33.1794 23.2289 32.8646 19.7684 32.2338C15.7166 31.4952 11.5402 30.2743 7.88702 28.2621L7.71106 28.3351C15.7824 32.7377 28.5831 35.4656 41.2137 34.9653C52.8318 34.5045 64.2966 31.5072 72.3595 22.6135C79.3667 14.8833 80.0275 6.11413 80.6224 0.610352C77.2481 1.48416 73.9049 2.13053 70.5569 2.56265L70.5485 2.68115ZM74.483 17.968C73.8402 17.9033 73.0322 17.895 72.1848 17.9392C72.0459 18.1188 71.9179 18.3019 71.7934 18.4899L72.0399 18.4575C72.0735 18.4528 72.1082 18.4504 72.1441 18.4516L72.2757 18.3235C72.5367 18.4528 72.7605 18.6239 73.0203 18.8741C72.9916 19.0249 73.0861 19.1063 72.9137 19.2823C72.7713 19.4905 72.6097 19.8233 72.4673 20.0316C72.326 20.4936 72.1273 20.5535 71.8233 20.5726C71.3313 20.6732 70.7687 20.496 70.3797 20.569C70.3115 20.7594 70.1966 20.8551 70.0469 20.9066C69.7716 20.5774 69.6651 20.2494 69.6651 19.9215C69.6759 19.5468 69.4485 19.2105 69.2928 18.9471C69.215 18.6778 69.3563 18.533 69.5646 18.6084C69.6783 18.6491 69.6902 18.8059 69.9344 18.7975C70.4264 18.673 70.922 18.6024 71.4163 18.5377C71.4881 18.3546 71.5564 18.1679 71.6198 17.9752C71.2439 18.0051 70.8645 18.0446 70.4946 18.0937C70.4443 18.2157 70.4037 18.3402 70.3713 18.4647C70.2947 18.3534 70.2205 18.2469 70.1463 18.1439C69.5861 18.2289 69.0534 18.3366 68.5854 18.4659C67.9522 18.6419 67.3753 18.4061 67.3094 17.9392C67.5775 17.9716 67.9989 18.047 68.3305 17.9823C68.753 17.9009 69.2785 17.8148 69.8459 17.7322C69.7429 17.5945 69.6364 17.4545 69.5203 17.3036C69.4903 16.9876 69.5334 16.7853 70.1786 17.239C70.1942 17.2641 70.2097 17.2869 70.2253 17.3084C70.108 17.0595 70.0242 16.753 70.0134 16.5854C69.9667 16.2263 69.926 16.0073 69.8578 15.8912C69.8028 15.6997 70.0745 15.4519 70.2229 15.5058C70.3031 15.5345 70.3115 15.7559 70.485 15.7499C70.8621 15.5895 71.208 15.501 71.6593 15.6207C71.9382 15.3932 71.8867 15.3669 72.1884 15.5393C72.9568 15.9786 72.4445 16.0743 72.0818 16.5424C72.2123 16.6393 72.3536 16.7303 72.5044 16.8165C72.7354 16.9493 72.7438 16.8907 72.6767 17.1552C72.6564 17.233 72.6061 17.3264 72.5618 17.4209C73.4165 17.3491 74.1658 17.3192 74.6099 17.3599C75.1749 17.628 75.4622 18.2553 74.483 17.968ZM72.8324 8.30823C74.5034 7.7624 75.5184 7.82584 76.4437 7.8414C76.4808 7.63911 76.5083 7.43681 76.5263 7.23093C76.5478 6.99632 76.4245 6.8431 76.1588 6.96759C75.8165 7.12799 75.4526 7.2824 75.1174 7.45836C74.4746 7.77676 73.9084 7.06694 74.2795 6.05907L74.7631 3.94877C74.6231 3.71895 74.4339 3.52623 74.3442 3.2581C74.1646 2.72664 74.8493 2.61651 75.1785 3.17312C75.3029 3.38379 75.4274 3.58369 75.5244 3.78837C75.4574 4.13311 75.3939 4.48502 75.3305 4.83933L76.3132 4.38567C77.2217 3.96672 77.752 4.85609 76.798 5.10267L75.2096 5.51564C75.1461 5.86995 75.0827 6.22186 75.0157 6.5654C75.3496 6.50435 75.6716 6.35952 76.0176 6.29727C76.6867 6.17757 77.296 6.50316 77.284 7.38534C77.2816 7.53257 77.272 7.6798 77.2541 7.82344C77.4947 7.80549 77.7412 7.76958 78.0034 7.70733C78.8915 8.12508 79.3416 9.00847 77.8095 8.5584C77.5617 8.54762 77.3414 8.52488 77.1224 8.50693C76.968 9.10064 76.7226 9.67998 76.4784 10.2701C76.0044 11.4156 75.6106 11.4839 75.285 11.205C74.811 10.7992 74.4662 10.3347 74.1682 9.85833C74.6111 10.0726 75.0408 10.2509 75.5352 10.1684C75.8907 9.57105 76.1301 9.02403 76.2893 8.48777C75.1222 8.50094 74.0976 8.77266 73.1017 9.12458C72.1501 9.45973 71.6449 9.1162 71.4606 8.38483C71.8807 8.4375 72.3296 8.47221 72.8324 8.30823ZM71.5899 13.6887L71.8604 13.6169C72.5989 13.4194 73.0574 14.0753 72.0136 14.2573L71.5875 14.3315L71.5863 14.7098L71.7108 14.6966C72.3308 14.6319 72.6205 15.1419 71.761 15.2316L70.7891 15.3334C70.1678 15.398 69.8794 14.8881 70.7388 14.7983L70.9914 14.772L71.0081 14.4332L70.8992 14.4524C70.2516 14.5661 69.7716 14.3937 69.7381 13.7103C69.9272 13.8276 70.406 14.0059 70.8812 13.879L71.0381 13.8371V13.824C71.062 13.3332 70.8741 12.9454 70.7125 12.791C71.3816 12.6521 71.5899 13.0376 71.5899 13.6887Z" fill="#666666"/>
<path fill-rule="evenodd" clip-rule="evenodd" d="M31.05 13.5571C30.3043 13.5571 29.6388 13.854 29.0906 14.6919C28.2993 15.902 27.7918 18.1165 28.0516 19.681C28.2419 20.8265 28.9732 21.2933 29.6962 21.2933C30.4599 21.2933 31.129 20.8935 31.6892 20.0137C32.5834 18.6108 33.1244 15.8829 32.4146 14.4082C32.1237 13.8025 31.6976 13.5571 31.05 13.5571Z" fill="#666666"/>
<path fill-rule="evenodd" clip-rule="evenodd" d="M69.9405 2.63949C64.5648 3.29185 59.1699 3.39839 53.6027 3.01894C39.6517 2.06972 19.0646 -4.08403 6.42793 4.51398C-2.08988 10.311 -2.19163 20.9595 6.41716 26.662C15.7585 32.8492 30.6252 33.1425 39.2747 32.3932C58.7701 30.7054 68.7159 20.6399 69.9405 2.63949ZM16.2253 27.1647H11.3404C11.0352 27.1647 10.8879 26.9121 11.0292 26.6093L13.738 20.7548L6.94982 6.08803C6.80977 5.784 6.957 5.53263 7.26104 5.53263H12.1759C12.4811 5.53263 12.8342 5.78519 12.9755 6.08803L16.7508 14.2456L20.5261 6.08803C20.6662 5.78519 21.0205 5.53263 21.3257 5.53263H26.2107C26.5159 5.53263 26.6631 5.784 26.5219 6.08803L17.0249 26.6093C16.8837 26.9133 16.5306 27.1647 16.2253 27.1647ZM29.2989 25.5715C26.802 25.5715 24.1267 24.59 23.1021 22.1768C21.704 18.8815 22.7442 14.2192 25.0879 11.6672C26.7098 9.90405 28.9111 9.27802 31.4894 9.27802C33.723 9.27802 35.2755 9.79393 36.4761 11.0675C39.4003 14.1749 38.4104 19.9205 35.7711 22.8759C34.1156 24.73 31.9323 25.5715 29.2989 25.5715ZM51.8694 25.0975H47.4394C47.1341 25.0975 46.7858 24.8449 46.6841 24.5421L44.3583 17.6103L42.8237 24.5421C42.7567 24.8461 42.4647 25.0975 42.1582 25.0975H37.9699C37.6647 25.0975 37.4576 24.8461 37.5247 24.5421L41.61 6.08803C41.677 5.784 41.9703 5.53263 42.2755 5.53263H46.4638C46.769 5.53263 46.9773 5.784 46.9091 6.08803L44.9795 14.801L48.4891 10.2632C48.7273 9.95552 49.2013 9.70774 49.5054 9.70774H55.2474C55.5526 9.70774 55.6017 9.95911 55.3419 10.2632L49.5353 17.0561L52.2238 24.5421C52.3351 24.8473 52.1747 25.0975 51.8694 25.0975ZM61.613 10.2608V10.2632L61.4155 11.1573L58.4517 24.5421C58.3847 24.8461 58.0926 25.0975 57.7862 25.0975H53.5979C53.2927 25.0975 53.0856 24.8461 53.1526 24.5421L56.1152 11.1585L56.3127 10.2643C56.3797 9.96031 56.673 9.70894 56.9782 9.70894H61.1665C61.4705 9.70774 61.6776 9.95792 61.613 10.2608ZM62.5371 6.08803L62.2534 7.36882L62.0559 8.26297V8.26537C61.9876 8.56821 61.6956 8.81838 61.3915 8.81838H57.2032C56.898 8.81838 56.6897 8.56701 56.758 8.26297L56.9555 7.36882L57.2392 6.08803C57.3062 5.784 57.5995 5.53263 57.9047 5.53263H62.093C62.3958 5.53263 62.6041 5.784 62.5371 6.08803Z" fill="#666666"/>
</svg>
